<svg xmlns="http://www.w3.org/2000/svg" xmlns:xlink="http://www.w3.org/1999/xlink" width="29" height="18"><defs><path id="a" d="M0 .51h10.496V12.1H0z"/><path id="c" d="M.213.611h11.834V18H.213z"/></defs><g fill="none" fill-rule="evenodd"><path fill="#044DA1" d="M27.705 13.301h.199c.131 0 .246-.018.246-.18 0-.144-.127-.168-.244-.168h-.201v.348zm-.225-.52h.45c.291 0 .449.102.449.357 0 .208-.121.31-.319.327l.327.53h-.231l-.316-.523h-.135v.523h-.225v-1.214zm1.223.612c0-.5-.363-.864-.812-.864-.448 0-.811.364-.811.864 0 .502.363.865.811.865.449 0 .812-.363.812-.865zm-1.883 0a1.072 1.072 0 0 1 2.143 0c0 .59-.481 1.072-1.072 1.072-.59 0-1.071-.482-1.071-1.072z"/><g transform="translate(0 2.39)"><mask id="b" fill="#fff"><use xlink:href="#a"/></mask><path fill="#044DA1" d="M5.553.51a3.622 3.622 0 0 0-3.436 2.482l-.031.097-.08.311L0 12.101h5.059A3.498 3.498 0 0 0 8.348 9.8l.193-.827L10.496.51H5.553z" mask="url(#b)"/></g><g transform="translate(8 -.61)"><mask id="d" fill="#fff"><use xlink:href="#c"/></mask><path fill="#F26F21" d="M7.1.61a3.618 3.618 0 0 0-3.561 2.976L.213 18H5.15a3.617 3.617 0 0 0 3.508-2.734h.003L12.047.612H7.1z" mask="url(#d)"/></g><path fill="#50B748" d="M23.314 2.898a3.619 3.619 0 0 0-3.38 2.333c-.028.07-.118.357-.118.357l-2.055 8.902h4.94a3.62 3.62 0 0 0 3.513-2.747c0 .002-.002.002-.002.002h.002l2.041-8.846h-4.94z"/><path fill="#FEFEFE" d="M3.35 6.109c-.28.23-.46.51-.51.735l-1.045 4.719.059-.001c.324 0 .633-.116.91-.344a1.45 1.45 0 0 0 .525-.832l.27-1.198h2.24c.326 0 .633-.115.914-.345.282-.23.463-.51.532-.836l.013-.059H3.834l.209-.944h3.243c.326 0 .632-.115.912-.343.275-.228.449-.514.523-.836l.016-.061H4.26c-.326 0-.633.116-.91.345m22.845-.065a.954.954 0 0 0-.699-.271h-4.473l-.01.04a1.443 1.443 0 0 0-.023.245.94.94 0 0 0 .27.683c.18.181.415.272.7.272h.967l-.972 4.55h.06c.325 0 .63-.116.907-.342.275-.228.451-.508.517-.832l.721-3.376h2.271l.01-.04c.016-.083.022-.169.022-.254a.924.924 0 0 0-.268-.675m-13.107.961h2.994l-.205.948h-2.998l.209-.948zm3.29-1.241h-3.024l.004-.003h-1.245l-1.234 5.802h.063c.324 0 .628-.116.906-.344a1.43 1.43 0 0 0 .517-.833l.252-1.191h3.053c.324 0 .629-.115.906-.342.276-.226.45-.508.526-.839l.23-1.049c.016-.082.026-.168.026-.255a.899.899 0 0 0-.276-.674.963.963 0 0 0-.703-.272z"/></g></svg>
