<svg xmlns="http://www.w3.org/2000/svg" width="3612.8" height="3461.1" viewBox="0 0 3612.8 3461.1"><defs><style>.cls-1{fill:#f1f0fe;}.cls-2{fill:#dbe0fe;}.cls-3{fill:#97a3fe;}.cls-4{fill:#e0e6ff;}.cls-5{fill:#5ec077;}.cls-6{fill:#fe73a2;}.cls-7{fill:#95a2fd;}.cls-8{fill:#fff;}.cls-9{fill:#b8c4f8;}.cls-10{fill:#b7c4f7;}.cls-11{fill:#a3afff;}.cls-12{fill:#fffffe;}.cls-13{fill:#c1cbff;}.cls-14,.cls-15,.cls-16,.cls-25,.cls-26,.cls-27,.cls-28,.cls-29,.cls-30{fill:none;}.cls-14,.cls-15{stroke:#a3afff;}.cls-14,.cls-15,.cls-16,.cls-25,.cls-26,.cls-27{stroke-miterlimit:10;}.cls-14,.cls-16{stroke-width:6px;}.cls-15{stroke-width:4.9px;}.cls-16{stroke:#dbe0fe;}.cls-17{fill:#271bbf;}.cls-18{fill:#1a127a;}.cls-19{fill:#ffbcac;}.cls-20{fill:#ff4c8b;}.cls-21{fill:#fed001;}.cls-22{fill:#feb701;}.cls-23{fill:#ff9695;}.cls-24{fill:#3f39f5;}.cls-25,.cls-26,.cls-29{stroke:#ffd0e0;}.cls-25,.cls-28{stroke-width:26px;}.cls-26{stroke-width:17.03px;}.cls-27{stroke:#fdeab1;stroke-width:20.34px;}.cls-28{stroke:#c6f4cf;}.cls-28,.cls-29,.cls-30{stroke-linecap:round;stroke-linejoin:round;}.cls-29{stroke-width:15.99px;}.cls-30{stroke:#95a2fd;stroke-width:16.66px;}</style></defs><title>ladipage2</title><g id="Sreeen"><ellipse class="cls-1" cx="1989.1" cy="2820.8" rx="25.3" ry="725.3" transform="translate(-1120.3 4368.1) rotate(-88.1)"/><path class="cls-2" d="M1972.9,2819.1l146.1,7.2a78.4,78.4,0,0,0,21.5-1.9Z" transform="translate(-222.7 -344.9)"/><path class="cls-3" d="M1974.5,2550.7a88.1,88.1,0,1,1,87.1-107.2,97.1,97.1,0,1,0,2.1,21.3c0-.2,0-.3,0-.5A88.1,88.1,0,0,1,1974.5,2550.7Z" transform="translate(-222.7 -344.9)"/><path class="cls-2" d="M2111.7,2185.8c-6.2-40-40.6-69.3-80.3-68.6l-129.2,2.2c-36.3.6-67,27.2-73.8,63.7l-168,575a40.8,40.8,0,0,0,37.9,52.2l274.6,8.7,167.6,5.3,63.4,2a40.8,40.8,0,0,0,41.1-49.8Zm-64.9,335.2a68.3,68.3,0,0,1-24.8,24.1c-95.7,54.2-192.3-45-135.6-139.2a68.4,68.4,0,0,1,24.8-24.1C2006.9,2327.6,2103.6,2426.9,2046.8,2521.1Z" transform="translate(-222.7 -344.9)"/><path class="cls-1" d="M559.9,923.2,3440.1,738.6V2456.2a80,80,0,0,1-82.2,80l-2704.5-74a96.1,96.1,0,0,1-93.5-96.1Z" transform="translate(-222.7 -344.9)"/><path class="cls-4" d="M559.9,887.4,3440.1,704.1V619.3a80,80,0,0,0-86.2-79.8L642.4,749.5a89.4,89.4,0,0,0-82.5,89.1Z" transform="translate(-222.7 -344.9)"/><circle class="cls-5" cx="701.6" cy="812.6" r="26.7" transform="translate(-290.5 -281) rotate(-5)"/><circle class="cls-6" cx="816" cy="805" r="26.7" transform="translate(-289.4 -271.1) rotate(-5)"/><circle class="cls-7" cx="930.3" cy="797.3" r="26.7" transform="translate(-288.3 -261.2) rotate(-5)"/><path class="cls-2" d="M2236.4,994.8l942.2-51.6c90-4.9,165.8,66.8,165.8,156.9V2228.7a157.2,157.2,0,0,1-158.6,157.2l-942.2-8.5a157.2,157.2,0,0,1-155.8-157.2V1151.7A157.2,157.2,0,0,1,2236.4,994.8Z" transform="translate(-222.7 -344.9)"/><path class="cls-2" d="M690.2,1079.1l300.1-20.6a35,35,0,0,1,37.4,34.9V2341.9a35,35,0,0,1-35,35H692.6a35,35,0,0,1-35-35V1114A35,35,0,0,1,690.2,1079.1Z" transform="translate(-222.7 -344.9)"/><path class="cls-8" d="M944.2,1218.7c-.1,54.5-45,98.6-100.3,98.6s-100.3-44.1-100.3-98.6,44.9-98.8,100.3-98.8S944.3,1164.2,944.2,1218.7Z" transform="translate(-222.7 -344.9)"/><polygon class="cls-9" points="742.3 1023.5 501.2 1023.5 501.2 1001.2 742.3 1001.2 742.3 1023.5"/><polygon class="cls-9" points="741.2 1342.4 501.1 1342.4 501 1320.2 741.3 1320.2 741.2 1342.4"/><polygon class="cls-9" points="740.1 1669.4 501 1669.4 500.9 1647.4 740.2 1647.4 740.1 1669.4"/><polygon class="cls-9" points="739.1 1972.6 500.8 1972.6 500.8 1950.8 739.1 1950.8 739.1 1972.6"/><path class="cls-8" d="M897.4,1635.2H790.9a35,35,0,0,1-35-35V1497.2a35,35,0,0,1,35-35H897.5a35,35,0,0,1,35,35v103.1A35,35,0,0,1,897.4,1635.2Z" transform="translate(-222.7 -344.9)"/><path class="cls-8" d="M814.3,1835.9l-46.3,78.3c-13.8,23.3,3,52.8,30.1,52.8h92.6c27.1,0,43.9-29.5,30.1-52.8l-46.3-78.3c-13.5-22.9-46.7-22.9-60.3,0l-46.3,78.3c-13.8,23.3,3,52.8,30.1,52.8h92.6c27.1,0,43.9-29.5,30.1-52.8l-46.3-78.3C861.1,1813,827.9,1813,814.3,1835.9Z" transform="translate(-222.7 -344.9)"/><path class="cls-8" d="M928.7,2266.1H758.4a35,35,0,0,1-35-34.9v-60.9a35,35,0,0,1,35-35.1H928.8a35,35,0,0,1,35,35.1v60.9A35,35,0,0,1,928.7,2266.1Z" transform="translate(-222.7 -344.9)"/><path class="cls-10" d="M1651.7,906.8l21.2-1.2a39.8,39.8,0,0,1,11.5.9,22.9,22.9,0,0,1,9.1,4.3,21.6,21.6,0,0,1,6.2,8.2,40.1,40.1,0,0,1,1.4,25,21.6,21.6,0,0,1-5.2,8.8,22.9,22.9,0,0,1-8.6,5.3,39.7,39.7,0,0,1-11.3,2.2l-21.2,1.2Zm16.1,42.4,7.8-.4a15.4,15.4,0,0,0,6.4-1.6,11.3,11.3,0,0,0,4.1-3.6,13.7,13.7,0,0,0,2.1-5.2,26.6,26.6,0,0,0-.7-12.4,13.7,13.7,0,0,0-2.7-4.9,11.3,11.3,0,0,0-4.5-3.1,15.7,15.7,0,0,0-6.6-.9l-7.8.4Z" transform="translate(-222.7 -344.9)"/><path class="cls-10" d="M1709.1,903.6l27.4-1.5q9.2-.5,14.8,3.6t6.1,13.3a14.7,14.7,0,0,1-2.6,9.4,15.9,15.9,0,0,1-7.9,6l13.8,21.3-15.3.9-11.9-19.1-8.7.5,1.1,19.7-13.7.8Zm15.1,24.1,12.5-.7a8.1,8.1,0,0,0,5.2-2.1q1.9-1.8,1.7-5.7t-2.3-5.5a8.1,8.1,0,0,0-5.4-1.5l-12.5.7Z" transform="translate(-222.7 -344.9)"/><path class="cls-10" d="M1779.7,899.6l14.1-.8,23.8,53.6-14.7.8-3.3-8.5-20.2,1.1-2.3,8.8-14.6.8Zm16.1,35.2-8-22.2h-.2l-5.5,23Z" transform="translate(-222.7 -344.9)"/><path class="cls-10" d="M1859.3,912.3q-4.5-6.9-13.3-6.4a13.3,13.3,0,0,0-9.9,4.8q-3.6,4.4-3.1,13.4t4.3,12.5q3.8,4.5,10.8,4.1a14.7,14.7,0,0,0,3.9-.8,12.6,12.6,0,0,0,3.7-2,10.9,10.9,0,0,0,2.8-3.2,9.7,9.7,0,0,0,1.2-4.6l-12.1.7-.6-10.6,23.7-1.3,1.7,30.5-10.6.6-.3-4.9a18,18,0,0,1-6.5,5.1,23.7,23.7,0,0,1-9.1,2.2,25.7,25.7,0,0,1-11-1.5,21.6,21.6,0,0,1-8.1-5.5,25.8,25.8,0,0,1-5.2-8.8,40,40,0,0,1-2.2-11.4,38.2,38.2,0,0,1,1-11.7,26.3,26.3,0,0,1,4.5-9.5,22.8,22.8,0,0,1,8-6.6,29.2,29.2,0,0,1,11.6-2.9,30.7,30.7,0,0,1,14.8,2.6,27.2,27.2,0,0,1,11.1,9.6Z" transform="translate(-222.7 -344.9)"/><path class="cls-10" d="M1932.7,926.1a16.9,16.9,0,0,0,1.6-4.2,41.6,41.6,0,0,0,.8-4.3l10.1,3.1a69.4,69.4,0,0,1-2.3,7.2,32.3,32.3,0,0,1-3.2,6.4,7.5,7.5,0,0,0,1.7,1.3l1.6.6,1.4.2h2.6l1.1-.2.5,8.9-7,.4a15.9,15.9,0,0,1-3.2-.1,8.4,8.4,0,0,1-2.4-.7l-1.9-1.1-1.6-1.4a19.6,19.6,0,0,1-3.6,2.2,28.7,28.7,0,0,1-3.9,1.5l-3.8.9-3.3.4a20.9,20.9,0,0,1-8.6-1.1,18.8,18.8,0,0,1-6.1-3.6,15.1,15.1,0,0,1-3.7-4.9,14.5,14.5,0,0,1-1.4-5.2,20.7,20.7,0,0,1,.6-6.7,16.2,16.2,0,0,1,2.4-5.1,18.8,18.8,0,0,1,4-4,50.4,50.4,0,0,1,5.4-3.5,18.6,18.6,0,0,1-2.7-4.5,15.5,15.5,0,0,1-1.2-5.1,10.2,10.2,0,0,1,.9-5.1,11.5,11.5,0,0,1,2.9-3.8,13.6,13.6,0,0,1,4.3-2.4,17.8,17.8,0,0,1,5-1,19.4,19.4,0,0,1,5.4.4,13.5,13.5,0,0,1,4.6,2,10.8,10.8,0,0,1,3.3,3.6,11.9,11.9,0,0,1,1.5,5.3,10.3,10.3,0,0,1-.6,4.3,13.1,13.1,0,0,1-2.1,3.7,19.1,19.1,0,0,1-3.2,3,30.4,30.4,0,0,1-3.7,2.4Zm-16.5-5-2.3,1.9a15.5,15.5,0,0,0-2,2.1,9,9,0,0,0-1.3,2.4,6.9,6.9,0,0,0-.4,2.8,8.4,8.4,0,0,0,.7,2.8,7.9,7.9,0,0,0,1.6,2.5,8,8,0,0,0,2.5,1.7,6.9,6.9,0,0,0,3.2.5,14,14,0,0,0,4.3-.9,10.9,10.9,0,0,0,3.6-2.4Zm8.4-18.5a3,3,0,0,0-1.3-2.5,4.6,4.6,0,0,0-2.8-.7,4.1,4.1,0,0,0-2.4,1,2.8,2.8,0,0,0-1.1,2.4,6.8,6.8,0,0,0,1.1,3.1l1.7,2.7a12.7,12.7,0,0,0,3.4-2.7A4.6,4.6,0,0,0,1924.6,902.6Z" transform="translate(-222.7 -344.9)"/><path class="cls-10" d="M1973.5,888.6l21.2-1.2a39.8,39.8,0,0,1,11.5.9,22.9,22.9,0,0,1,9.1,4.3,21.6,21.6,0,0,1,6.2,8.2,40.1,40.1,0,0,1,1.4,25,21.6,21.6,0,0,1-5.2,8.8,22.9,22.9,0,0,1-8.6,5.3,39.7,39.7,0,0,1-11.3,2.2l-21.2,1.2Zm16.1,42.4,7.8-.4a15.4,15.4,0,0,0,6.4-1.6,11.3,11.3,0,0,0,4.1-3.6,13.7,13.7,0,0,0,2.1-5.2,26.6,26.6,0,0,0-.7-12.4,13.7,13.7,0,0,0-2.7-4.9,11.3,11.3,0,0,0-4.5-3.1,15.7,15.7,0,0,0-6.6-.9l-7.8.4Z" transform="translate(-222.7 -344.9)"/><path class="cls-10" d="M2030.8,885.4l27.4-1.5q9.2-.5,14.8,3.6t6.1,13.3a14.7,14.7,0,0,1-2.6,9.4,15.9,15.9,0,0,1-7.9,6l13.8,21.3-15.3.9-11.9-19.1-8.7.5,1.1,19.7-13.7.8Zm15.1,24.1,12.5-.7a8.1,8.1,0,0,0,5.2-2.1q1.9-1.8,1.7-5.7t-2.3-5.5a8.1,8.1,0,0,0-5.4-1.5l-12.5.7Z" transform="translate(-222.7 -344.9)"/><path class="cls-10" d="M2140.8,906.6a32.2,32.2,0,0,1-1.3,11.1,28.2,28.2,0,0,1-4.9,9.5,25.6,25.6,0,0,1-8.3,6.8,30.3,30.3,0,0,1-23.4,1.3,25.6,25.6,0,0,1-9-5.9,28.2,28.2,0,0,1-5.9-8.9,33.1,33.1,0,0,1-1.2-22,28.2,28.2,0,0,1,4.9-9.5,25.6,25.6,0,0,1,8.3-6.8,30.3,30.3,0,0,1,23.4-1.3,25.6,25.6,0,0,1,9,5.9,28.3,28.3,0,0,1,5.9,8.9A32.3,32.3,0,0,1,2140.8,906.6Zm-13.7.8a26.5,26.5,0,0,0-1.1-6.3,17.4,17.4,0,0,0-2.7-5.4,12.5,12.5,0,0,0-4.6-3.7,13.1,13.1,0,0,0-6.5-1.1,15.3,15.3,0,0,0-5.5,1.3,11.3,11.3,0,0,0-4.2,3.3,15,15,0,0,0-2.6,5.5,25.7,25.7,0,0,0-.6,8,29.1,29.1,0,0,0,1,6,16.9,16.9,0,0,0,2.6,5.5,12.5,12.5,0,0,0,4.5,3.9,13.2,13.2,0,0,0,6.9,1.2,12.4,12.4,0,0,0,10.5-6.1,17.4,17.4,0,0,0,2.1-5.7A26.1,26.1,0,0,0,2127.1,907.4Z" transform="translate(-222.7 -344.9)"/><path class="cls-10" d="M2147.5,878.8l27.1-1.5a27.9,27.9,0,0,1,9.5.9,16.5,16.5,0,0,1,6.5,3.5,14.5,14.5,0,0,1,3.8,5.6,24.5,24.5,0,0,1,1.5,7.4,21.9,21.9,0,0,1-.6,6,14.9,14.9,0,0,1-3.1,6.2,19.8,19.8,0,0,1-6.7,5,29.7,29.7,0,0,1-11.3,2.5l-10.7.6,1,17.7-13.8.8Zm15.2,26.1,11.5-.7a10,10,0,0,0,3.9-.9,7.1,7.1,0,0,0,2.5-2,7.3,7.3,0,0,0,1.3-2.7,10.6,10.6,0,0,0,.3-3.1q-.2-4.2-2.4-6.2t-6.9-1.8l-11.1.6Z" transform="translate(-222.7 -344.9)"/><polygon class="cls-9" points="1519.4 1096.4 1518.5 1114.2 944.3 1115.5 944.3 1097.7 1519.4 1096.4"/><polygon class="cls-9" points="1578.2 1169.3 1577.2 1189 944.3 1190.3 944.3 1170.7 1578.2 1169.3"/><polygon class="cls-9" points="1649.3 1242.2 1648.2 1264 944.3 1265.6 944.3 1243.7 1649.3 1242.2"/><path class="cls-8" d="M1485.7,1218.6a158.5,158.5,0,0,1-18.1,73.8c-17.5-47.1-74-81.7-141-81.7s-123.6,34.5-141,81.6a159.2,159.2,0,1,1,300.2-73.8Z" transform="translate(-222.7 -344.9)"/><path class="cls-11" d="M1467.6,1292.5a159.2,159.2,0,0,1-282.1,0c17.5-47.1,74-81.6,141-81.6S1450.1,1245.3,1467.6,1292.5Z" transform="translate(-222.7 -344.9)"/><circle class="cls-11" cx="1103.8" cy="812.1" r="35.7"/><rect class="cls-8" x="942.6" y="1516.1" width="484.6" height="110.66" rx="35" ry="35"/><g id="logo_ladipage" data-name="logo ladipage"><path class="cls-8" d="M2751.2,1465.7a300.6,300.6,0,0,0-35.1-23.8,299.8,299.8,0,0,0-86.1,445,263.6,263.6,0,0,1,86.1-100.6,263.6,263.6,0,0,1,86.1,100.6,300,300,0,0,0-51-421.2Zm51,351a301.1,301.1,0,0,0-86.1-74.7,301.1,301.1,0,0,0-86.1,74.7,260.6,260.6,0,0,1-23.3-74.2,264.3,264.3,0,0,1-3.1-38.3c0-.8,0-1.6,0-2.3a262.2,262.2,0,0,1,112.5-215.4,262.2,262.2,0,0,1,112.5,215.4c0,.8,0,1.6,0,2.3a264.3,264.3,0,0,1-3.1,38.3A260.6,260.6,0,0,1,2802.2,1816.6Z" transform="translate(-222.7 -344.9)"/><path class="cls-8" d="M2678.6,1629.4l56.6-67.9a56.3,56.3,0,0,0-44.3,103.2l19.5-39.1Z" transform="translate(-222.7 -344.9)"/><path class="cls-8" d="M2741.2,1564.1l-19.5,39.1,31.9-3.7-56.6,67.9a56.3,56.3,0,0,0,44.3-103.2Z" transform="translate(-222.7 -344.9)"/></g><path class="cls-12" d="M1025.5,766.4a20,20,0,0,1,18.4-19.9l2119.2-167a35,35,0,0,1,37.7,34.9v41.2a35,35,0,0,1-32.7,34.9L1046.9,837.8a20,20,0,0,1-21.4-20Z" transform="translate(-222.7 -344.9)"/><path class="cls-11" d="M1065.3,766.7l5.3-.4-.3,16a17.5,17.5,0,0,1,3.5-3.6,12.5,12.5,0,0,1,6.5-2.1q6.9-.5,9.2,4.1a15.3,15.3,0,0,1,1.2,7.1l-.5,20-5.4.4.4-19.6a10.4,10.4,0,0,0-.8-5q-1.4-2.5-5.4-2.2a10,10,0,0,0-6,2.7q-2.7,2.4-2.9,8.7l-.3,16.5-5.3.4Z" transform="translate(-222.7 -344.9)"/><path class="cls-11" d="M1100.1,767.2l5.4-.4-.2,8.8,5.1-.4v4.3l-5.1.4-.5,20.4a2,2,0,0,0,1.1,2.1,4.6,4.6,0,0,0,2.1.2h.8l1-.2v4.2l-1.9.5-2.1.3q-3.7.3-5-1.5a7.7,7.7,0,0,1-1.2-4.8l.5-20.7-4.3.3v-4.3l4.3-.3Z" transform="translate(-222.7 -344.9)"/><path class="cls-11" d="M1116.9,766l5.4-.4-.2,8.8,5.1-.4v4.3l-5.1.4-.6,20.4a2,2,0,0,0,1.1,2.1,4.6,4.6,0,0,0,2.1.2h.8l1-.2v4.2l-1.9.5-2.1.3q-3.7.3-5-1.5a7.7,7.7,0,0,1-1.2-4.8l.6-20.7-4.3.3v-4.3l4.3-.3Z" transform="translate(-222.7 -344.9)"/><path class="cls-11" d="M1132,773.9l5.2-.4v4.2a15,15,0,0,1,3.6-3.6,12.4,12.4,0,0,1,6.4-2.2,10.8,10.8,0,0,1,9,3.4q3.6,3.8,3.4,11.4-.3,10.2-5.9,14.9a13.7,13.7,0,0,1-8.1,3.3,10.3,10.3,0,0,1-6-1.1,11.8,11.8,0,0,1-3.1-2.8l-.5,15.9-5.3.4Zm19.3,23.1q2.6-3.2,2.8-9.4a16.1,16.1,0,0,0-.9-6.3q-1.9-5-7.4-4.6t-7.8,6a22.4,22.4,0,0,0-1.3,7.5,14.7,14.7,0,0,0,.9,6.1q1.9,4.7,7.4,4.3A8.6,8.6,0,0,0,1151.3,796.9Z" transform="translate(-222.7 -344.9)"/><path class="cls-11" d="M1168.7,792.5a6.8,6.8,0,0,0,1.2,3.9q2,2.4,7,2a11.7,11.7,0,0,0,5.3-1.6,4.7,4.7,0,0,0,2.4-4.1,2.9,2.9,0,0,0-1.7-2.9,20.4,20.4,0,0,0-4.6-1.2l-4.3-.7a19.4,19.4,0,0,1-6-1.8,5.8,5.8,0,0,1-3.3-5.7,10,10,0,0,1,3.5-7.4,14.7,14.7,0,0,1,8.9-3.4q7.3-.5,10.3,3.4a8.1,8.1,0,0,1,1.7,5.5l-5,.4a5.3,5.3,0,0,0-1.2-3.1q-1.8-1.9-6.4-1.6a8.7,8.7,0,0,0-4.7,1.5,4,4,0,0,0-1.7,3.1,3.2,3.2,0,0,0,2,3.1,11.6,11.6,0,0,0,3.5,1l3.6.6q5.8,1,7.7,2.1t2.9,6.1a10.7,10.7,0,0,1-3.5,7.4q-3.4,3.3-10,3.7t-10-2.4a10.6,10.6,0,0,1-2.9-7.6Z" transform="translate(-222.7 -344.9)"/><path class="cls-11" d="M1199.4,769.3l6.2-.4-.3,6.4-6.2.4Zm-.9,24.5,6.2-.4-.3,6.3-6.2.4Z" transform="translate(-222.7 -344.9)"/><path class="cls-11" d="M1223.9,755.5l4.5-.3-15.6,44-4.5.3Z" transform="translate(-222.7 -344.9)"/><path class="cls-11" d="M1240.8,754.3l4.5-.3-15.7,44-4.5.3Z" transform="translate(-222.7 -344.9)"/><path class="cls-11" d="M1247.9,753.8l5.4-.4-2,43-5.3.4Z" transform="translate(-222.7 -344.9)"/><path class="cls-11" d="M1277.1,775.8a3.4,3.4,0,0,0,2.5-1.7,5,5,0,0,0,.5-2.1,3.8,3.8,0,0,0-1.7-3.8,9.8,9.8,0,0,0-5.5-.8q-4.2.3-6,2.7a8.2,8.2,0,0,0-1.4,3.8l-5,.4q.4-5.8,4.2-8.4a17.3,17.3,0,0,1,8.6-2.9q5.6-.4,9,1.5t3.1,6.3l-.9,18a2.1,2.1,0,0,0,.3,1.3q.3.5,1.4.4h.8l1-.2-.2,3.9-1.9.6-1.8.2a3.9,3.9,0,0,1-3.9-1.6,6.6,6.6,0,0,1-.8-2.8,16.9,16.9,0,0,1-11.6,6,9.1,9.1,0,0,1-7.1-2.1,7.7,7.7,0,0,1-2.5-6.4,9.5,9.5,0,0,1,3.1-6.9,15,15,0,0,1,7.4-3.5Zm-11.9,15a5.7,5.7,0,0,0,3.9,1,13.4,13.4,0,0,0,5.5-1.7,8.3,8.3,0,0,0,4.8-7.3l.2-4.2a10.4,10.4,0,0,1-2.6,1.2l-3,.8-3.2.6a13.9,13.9,0,0,0-4.4,1.5,5.3,5.3,0,0,0-2.7,4.5A3.8,3.8,0,0,0,1265.2,790.8Z" transform="translate(-222.7 -344.9)"/><path class="cls-11" d="M1312,761.9a11.8,11.8,0,0,1,3.1,2.9l.9-15.9,5.1-.4-2.4,43.2-4.8.3.2-4.3a12.9,12.9,0,0,1-10.5,6.2,10.4,10.4,0,0,1-8.9-3.7q-3.6-4.1-3.3-11.4a22.3,22.3,0,0,1,4.1-12.1,13.3,13.3,0,0,1,10.4-5.8A10.5,10.5,0,0,1,1312,761.9Zm-13.2,24.4q2,3.2,6.7,2.9a8.4,8.4,0,0,0,6.2-3.6q2.5-3.3,2.9-9.2t-2-8.6a6.7,6.7,0,0,0-5.9-2.4,9.2,9.2,0,0,0-6.7,3.5q-2.7,3.2-3,9.1A14.2,14.2,0,0,0,1298.8,786.2Z" transform="translate(-222.7 -344.9)"/><path class="cls-11" d="M1329.1,748l5.4-.4-.3,6-5.4.4Zm-.7,11.9,5.4-.4-1.8,31.2-5.4.4Z" transform="translate(-222.7 -344.9)"/><path class="cls-11" d="M1341.5,759l5.2-.4-.2,4.2a15.7,15.7,0,0,1,3.7-3.6,12.7,12.7,0,0,1,6.5-2.2,10.6,10.6,0,0,1,9,3.4q3.5,3.8,3.1,11.4-.6,10.2-6.4,15a14.1,14.1,0,0,1-8.2,3.3,10.1,10.1,0,0,1-5.9-1.1,11.3,11.3,0,0,1-3-2.8l-.9,15.9-5.3.4Zm18.6,23.2q2.7-3.3,3.1-9.4a16.1,16.1,0,0,0-.7-6.4q-1.8-5-7.3-4.7t-8,6a22.9,22.9,0,0,0-1.5,7.5,14.6,14.6,0,0,0,.7,6.1q1.8,4.7,7.3,4.3A8.9,8.9,0,0,0,1360.1,782.2Z" transform="translate(-222.7 -344.9)"/><path class="cls-11" d="M1392.1,767.6a3.5,3.5,0,0,0,2.6-1.7,5,5,0,0,0,.5-2.1,3.7,3.7,0,0,0-1.7-3.8,9.7,9.7,0,0,0-5.5-.8q-4.2.3-6.1,2.7a8.4,8.4,0,0,0-1.5,3.8l-5,.4q.5-5.8,4.3-8.4a17.6,17.6,0,0,1,8.7-2.9q5.6-.4,9,1.5t3,6.3l-1.2,18.1a2.1,2.1,0,0,0,.3,1.3q.3.5,1.4.4h.8l1-.2-.3,3.9-1.9.6-1.8.2q-2.8.2-3.9-1.6a6.6,6.6,0,0,1-.7-2.8,16.5,16.5,0,0,1-4.9,4,16.2,16.2,0,0,1-6.8,2,9,9,0,0,1-7-2.1,7.6,7.6,0,0,1-2.4-6.4,9.7,9.7,0,0,1,3.2-6.9,15.3,15.3,0,0,1,7.4-3.5Zm-12.2,15a5.7,5.7,0,0,0,3.9,1,13.6,13.6,0,0,0,5.5-1.7,8.5,8.5,0,0,0,4.9-7.3l.3-4.2a10.6,10.6,0,0,1-2.6,1.2l-3.1.8-3.3.6a14.1,14.1,0,0,0-4.4,1.5,5.4,5.4,0,0,0-2.8,4.6A3.7,3.7,0,0,0,1379.9,782.6Z" transform="translate(-222.7 -344.9)"/><path class="cls-11" d="M1427.3,754a11.8,11.8,0,0,1,2.9,2.8l.3-4,4.9-.4-2.1,28.6a22.7,22.7,0,0,1-2.4,9.5q-3.8,6.6-12.9,7.2a14.1,14.1,0,0,1-8.4-1.6q-3.3-2-3.4-6.8l5.4-.4a5.1,5.1,0,0,0,1.3,3.1q1.7,1.6,5.5,1.3,6.1-.4,8.3-4.8,1.3-2.6,1.7-9a12.8,12.8,0,0,1-4.1,3.8,14.1,14.1,0,0,1-6,1.6,11.2,11.2,0,0,1-8.7-3q-3.6-3.3-3-11.7t4.7-12.6a14.1,14.1,0,0,1,9.7-5.1A10.5,10.5,0,0,1,1427.3,754Zm.3,5.6a6.7,6.7,0,0,0-6-2.4,9.1,9.1,0,0,0-8.1,5.8,21.9,21.9,0,0,0-1.6,7.4q-.4,5.3,1.6,7.9a6.1,6.1,0,0,0,5.6,2.4,9.7,9.7,0,0,0,8.4-5.7,17.9,17.9,0,0,0,1.8-6.9Q1429.8,762.3,1427.6,759.6Z" transform="translate(-222.7 -344.9)"/><path class="cls-11" d="M1463.3,751a9.7,9.7,0,0,1,4.5,3.7,12.2,12.2,0,0,1,1.7,5.4,35.5,35.5,0,0,1-.1,6.9l-23.2,1.6q-.2,4.8,1.7,7.5t6.4,2.4a9.9,9.9,0,0,0,6.8-3.2,11.1,11.1,0,0,0,2.2-3.8l5.3-.4a12.5,12.5,0,0,1-1.7,3.9,17.1,17.1,0,0,1-2.9,3.7,14.8,14.8,0,0,1-6.2,3.6,19.4,19.4,0,0,1-4.4.8,11.6,11.6,0,0,1-9.7-3.5q-3.8-4-3.2-11.6a20.6,20.6,0,0,1,5-12.6,16,16,0,0,1,11.2-5.5A13.3,13.3,0,0,1,1463.3,751Zm1,12.2a12.3,12.3,0,0,0-1.1-5.4q-1.9-3.7-7-3.3a9.4,9.4,0,0,0-6.3,3.1,11.5,11.5,0,0,0-3.1,6.9Z" transform="translate(-222.7 -344.9)"/><path class="cls-11" d="M1476.9,774.1l6.2-.4-.5,6.4-6.2.4Z" transform="translate(-222.7 -344.9)"/><path class="cls-11" d="M1497.2,747.8l6.4,25,11-26.3,5.9-.4-14.6,32.3-5.7.4-9.2-30.6Z" transform="translate(-222.7 -344.9)"/><path class="cls-11" d="M1525.1,745.8l5.1-.4-.4,4.5a17.9,17.9,0,0,1,5.1-4.3,14.4,14.4,0,0,1,5.7-1.6q6.8-.5,8.8,4,1.1,2.5.7,7.2l-1.8,20.2-5.4.4,1.7-19.8a9.9,9.9,0,0,0-.5-4.6q-1.2-2.8-4.9-2.6a11.5,11.5,0,0,0-3.2.6,10,10,0,0,0-4.1,2.9,9.5,9.5,0,0,0-2,3.3,22.7,22.7,0,0,0-.8,4.8l-1.4,16.5-5.3.4Z" transform="translate(-222.7 -344.9)"/></g><g id="tree"><ellipse class="cls-1" cx="2802.4" cy="2837.4" rx="235.7" ry="24"/><path class="cls-2" d="M2843.3,2832.3l43,288.3s8.7,68.4,129.1,73.2,132.8-70.9,132.8-70.9l41.5-290.6" transform="translate(-222.7 -344.9)"/><ellipse class="cls-3" cx="2793.1" cy="2488.4" rx="172.6" ry="25.4"/><path class="cls-11" d="M3109.9,2655.4l40-44.4a120.3,120.3,0,0,0,23.8-39.1c7.2-19.6,9.4-42.4-19.3-41.8a58,58,0,0,0-39.9,17.6l-53.6,54.4c-6.1,6.2-15.8,7.7-23.3,3.1-9.5-5.9-13.8-20.4,20.2-56.1,39.3-41.3,68.9-74.6,83.9-91.8,9.1-10.5,11.2-25.6,4.6-37.8s-20.2-18.8-47.3,11.3c-50,55.6-67.4,57.7-67.4,57.7s-52.6-1,28.4-91.2c107-119.1,60-125.8,60-125.8s-1.5-25-80,54.2-42.3-10.4-16-38c23-24.2,78.4-109.3,52-124.9s-81.6,108.8-102.9,81.6,88.4-99,73.1-140.1-55.6-11.7-71.9,32.3-43.3,17.1-23.8-31-.5-72.2-19.6-63.1-37.1,22-5.3,85.4-43.3,26.8-70.4-12.6-72.5,17-4,50.7c66,32.4,96,79.1,62.4,86.6s-44.2-69.2-104.8-52.5c-32.9,9.1,27.7,77.7,81.1,103.6,38.7,18.8,93.8,82.2,4.2,51.1-55-19.1-87.2-54.8-102.6-25.6s58.3,69.9,139.1,105.8,40.6,95.2-.4,58.6-105.2-69.8-121.8-21.9,141,70.3,159.7,99.5c14.5,22.6-11.3,42-37.2,34.9s-76.4-59.3-99.5-25.2c-16.5,24.4,21.3,70.2,99.1,108.5A151.4,151.4,0,0,0,3109.9,2655.4Z" transform="translate(-222.7 -344.9)"/><path class="cls-13" d="M3015.4,2611.3l-27-53.4a120.3,120.3,0,0,1-12.7-44c-1.8-20.8,2-43.4,29.6-35.2a58,58,0,0,1,33.9,27.4l37.5,66.5c4.3,7.6,13.3,11.6,21.6,9.1,10.7-3.2,18.7-16-4.8-59.4-27.1-50.2-46.9-90-56.9-110.5-6.1-12.5-4.1-27.6,5.5-37.7s24.5-12.9,42.7,23.3c33.6,66.8,49.9,73.4,49.9,73.4s51,12.8-3.6-95.4c-72-143-24.9-137.1-24.9-137.1s8-23.7,63,73.2,43.5,1,25.4-32.5c-15.9-29.4-47-126.1-17.5-134.2s50.2,126.4,78,105.8-59.4-118.7-33.8-154.4,56.8,3.3,61,50,37.3,27.9,31.1-23.7,19.4-69.5,35.4-55.8,30.1,30.9-17.3,83.8,34.8,37.2,71.3,6.3,65.5,35.4-9.4,49.9c-72.1,14-113.4,51.2-82.9,67.3s60.8-55.2,114.9-23.2c29.4,17.4-47.1,67.7-105.4,78.7-42.3,8-112,54.8-17.5,48.2,58.1-4.1,98.5-30,105.8,2.2s-74.5,52.2-161.9,65.6-64.1,81.2-15,56.7,119.8-39.9,123.3,10.8-154.5,30.9-180.2,54.2c-19.9,18-.1,43.5,26.8,43.5s89.3-37.2,102.6,1.8c9.5,27.9-38.9,62.1-124,78.8A151.4,151.4,0,0,1,3015.4,2611.3Z" transform="translate(-222.7 -344.9)"/><path class="cls-14" d="M3260.8,2296.2s-148.1,266-214.8,561.5" transform="translate(-222.7 -344.9)"/><path class="cls-13" d="M2995.7,2666.2l22-43.5a98.2,98.2,0,0,0,10.4-35.9c1.5-17-1.7-35.4-24.1-28.8a47.4,47.4,0,0,0-27.6,22.4l-30.6,54.3a15.4,15.4,0,0,1-17.7,7.5c-8.7-2.6-15.2-13.1,3.9-48.5,22.2-41,38.3-73.5,46.5-90.2a27.2,27.2,0,0,0-4.5-30.7c-7.9-8.3-20-10.5-34.8,19-27.4,54.5-40.8,59.9-40.8,59.9s-41.6,10.5,2.9-77.9c58.8-116.7,20.4-111.9,20.4-111.9s-6.6-19.4-51.4,59.8-35.5.9-20.7-26.5c13-24,38.4-102.9,14.3-109.5s-41,103.2-63.6,86.3,48.4-96.9,27.6-126-46.3,2.7-49.8,40.8-30.4,22.7-25.4-19.3-15.8-56.7-28.9-45.5-24.5,25.2,14.1,68.4-28.4,30.3-58.2,5.2-53.5,28.9,7.7,40.8c58.9,11.4,92.5,41.8,67.7,54.9s-49.6-45.1-93.8-19c-24,14.2,38.4,55.3,86.1,64.3,34.5,6.5,91.4,44.7,14.3,39.3-47.4-3.3-80.4-24.5-86.3,1.8s60.8,42.6,132.2,53.6,52.3,66.3,12.3,46.3-97.8-32.5-100.6,8.8,126.1,25.3,147.1,44.2c16.2,14.7.1,35.5-21.8,35.5s-72.9-30.4-83.7,1.5c-7.8,22.7,31.7,50.7,101.2,64.3A123.6,123.6,0,0,0,2995.7,2666.2Z" transform="translate(-222.7 -344.9)"/><path class="cls-15" d="M2790.5,2398.4s120.8,217.1,175.3,458.3" transform="translate(-222.7 -344.9)"/><path class="cls-16" d="M2955.4,2260.5s73.2,295.5,60.1,598.2" transform="translate(-222.7 -344.9)"/></g><g id="Girl"><path class="cls-1" d="M634,3476.6c-44.1,41.7,44.2,141.9,197.7,226.1,155.8,85.5,327.5,126.7,383.3,89.6,57.9-38.5-31.6-144.9-199.5-235.2C850.2,3468.2,679.7,3433.4,634,3476.6Z" transform="translate(-222.7 -344.9)"/><g id="paint"><path class="cls-17" d="M748.2,3135.4c45.3-151.9,29.6-205.1,33.1-278.7s49-191.5,68.9-229.2c0,0,106,114.3,325.9,18.3,0,0,1.7,133.3,16.5,202.4s-13.3,201.8-62.8,314.1-85.7,377-64.7,462.6h-60.9s-57.1-242.3-13.3-489.6c17.9-101,13.2-180.4,1.4-239.1,0,0-31.6,165.5-103,277s-102.8,353.6-102.8,353.6l-66.2-17.4S703,3287.3,748.2,3135.4Z" transform="translate(-222.7 -344.9)"/><path class="cls-18" d="M962.7,2796.8s23,28.2,31.4,108.7-104.8,267.9-104.8,267.9S1008,2925.4,962.7,2796.8Z" transform="translate(-222.7 -344.9)"/></g><g id="shose"><path class="cls-19" d="M1004.3,3625s10.7,22.2,0,46.9c0,0,42.1,59.5,134.3,24,0,0,8.4-3.9-4.5-14.3s-53.1-7.3-68.8-56.6Z" transform="translate(-222.7 -344.9)"/><path class="cls-20" d="M1004.3,3671.8s-31.5,39.9,17.1,39.9,72,29.8,119.9,12.1,52.4-33.9-7.2-42.3c0,0,19.5,17.9-19.5,19.1S1020.3,3688.2,1004.3,3671.8Z" transform="translate(-222.7 -344.9)"/></g><g id="shose-2" data-name="shose"><path class="cls-19" d="M720.4,3509.5s11.3,28.1,0,50.6c0,0,19.5,50.9,121.8-6.7,0,0,10.4-17.1-10.6-14.8s-39.2,11-45-11.6Z" transform="translate(-222.7 -344.9)"/><path class="cls-20" d="M720.4,3560.1s-37.8,52.4,19.6,42.4,75-1.4,125.8-20.6,47.5-43.4-34.2-43.4c0,0,33.7,3.4-6.9,21.6S738.3,3587.2,720.4,3560.1Z" transform="translate(-222.7 -344.9)"/></g><path class="cls-21" d="M850.3,2627.6s114.6,119.1,325.9,18.3c0,0-19.6-68.5-24.6-129.9h0c-1.6-20-1.7-39.2.9-55.1a95.2,95.2,0,0,0,45.8,2.3s33.7-118.7-15.5-202.6c0,0-92.8-48.7-133.3-165.4,0,0-219,204.8-183.3,283.3S922.5,2481.5,850.3,2627.6Z" transform="translate(-222.7 -344.9)"/><path class="cls-22" d="M1151.6,2515.9c-1.6-20-1.7-39.2.9-55.1,0,0-43.8-17.2-63.3-35.3C1091.6,2428.1,1142.3,2483.6,1151.6,2515.9Z" transform="translate(-222.7 -344.9)"/><g id="hand"><path class="cls-19" d="M1198.3,2463h0s106-11.1,171.4-114.4h.1c20.4-32.2,36.9-73.4,44.9-126.1,0,0,9.4-68,8.2-104.3s2.6-69.6,30.7-84.8,2.5-65.1-12.7-52.2l21.5-43.2s4.7-14.4-6.8-11.3c-8,2.1-19.7,26-26.1,40.5a40.8,40.8,0,0,1-12.2,15.7c-10.5,8.1-29.1,28.1-38.2,71.2-13.1,61.9-89.6,245.6-196.2,206.3,0,0,36.2,50.1,23.2,157.8v.2C1204.3,2432.4,1201.8,2447.2,1198.3,2463Z" transform="translate(-222.7 -344.9)"/><path class="cls-23" d="M1198.3,2463.1s106-11.1,171.4-114.4c-79.4,110-163.7,69.6-163.7,69.6v.2c-1.9,20.2-7.3,43.1-7.7,44.5Z" transform="translate(-222.7 -344.9)"/><path class="cls-23" d="M1458.3,2004.2a18.6,18.6,0,0,1-.3,7.3,24.1,24.1,0,0,1-2.8,6.8,20,20,0,0,1-5,5.6,13.7,13.7,0,0,1-6.9,2.7,55.3,55.3,0,0,0,4.8-5,54.2,54.2,0,0,0,3.7-5.3c1.1-1.9,2.2-3.8,3.2-5.8S1457.1,2006.3,1458.3,2004.2Z" transform="translate(-222.7 -344.9)"/><path class="cls-23" d="M1453.1,1988.6a18.2,18.2,0,0,1-.5,7,25.4,25.4,0,0,1-2.6,6.5,27.9,27.9,0,0,1-1.9,2.9,23.7,23.7,0,0,1-2.4,2.6,17.5,17.5,0,0,1-5.9,3.8c1.1-2.1,2.3-3.9,3.4-5.8l1.7-2.8,1.6-2.8,3.2-5.6C1450.8,1992.5,1451.9,1990.6,1453.1,1988.6Z" transform="translate(-222.7 -344.9)"/></g><g id="face"><path id="face-2" data-name="face" class="cls-19" d="M986.8,1898.6h.7c3.3,1,28.5,9.7,33.6,52.9,4.5,38.4,38.1,38.7,49.3,37.7a.8.8,0,0,1,.5,1.5l-.4.3a31,31,0,0,0-13.4,33.8c4.5,17.5,6,41.9-14.3,55.7-32.4,22-90.6-5.3-96-8a.8.8,0,0,1-.5-.6L934.2,1976a.8.8,0,0,1,.1-.4l23.3-59.3.3-.4Z" transform="translate(-222.7 -344.9)"/><path id="shape" class="cls-23" d="M1014.8,1926.4s-22-14-22.3-7.5-2.9,18,15.3,44.5-28.9,29.8-35.1,36.6-39.2,31.7,47.5,60.4c0,0-82.3.5-81.7,0s0-17,0-17l12.1-37.2,13.9-56,5-33,14.2-8.3,20.5.8Z" transform="translate(-222.7 -344.9)"/></g><g id="hair"><path class="cls-24" d="M635,2503.8h.1c26.8,19.3,65.6,29,117.6,20.9,145.2-22.8,82.6-165.1,125.3-222.1s113.9,15.6,176.5-123.8c0,0,0,0,0,0h0c62.6-139.5-71.2-110.7-89.7-137.9s0-47.5,27-52.3-7.1-51.8-7.1-70.3,30.1,8.1,30.1,8.1-18.7-90.7-111.2-35.2-45.6,106.8-94,160.9-76.9,37.6-98.2,166.1-72.6,64.5-109.6,138.5C578.1,2404.2,587.1,2469.3,635,2503.8Z" transform="translate(-222.7 -344.9)"/><path class="cls-17" d="M635,2503.9c26.8,19.3,65.6,29,117.6,20.9,145.2-22.8,82.6-165.1,125.3-222.1s113.9,15.6,176.5-123.8c0,0,0,0,0,0-1.5,2-67.2,86.8-160.9,75.7s-69.3,160.9-113.1,187.2-65.3,39.8-79.7,66.9S637.2,2505.2,635,2503.9Z" transform="translate(-222.7 -344.9)"/></g></g><g id="pattern"><circle class="cls-25" cx="1270.2" cy="106.3" r="54.4"/><circle class="cls-26" cx="172.6" cy="1564" r="35.6"/><path class="cls-27" d="M3779.2,1221.7A96.7,96.7,0,1,1,3678,1386.5" transform="translate(-222.7 -344.9)"/><path class="cls-27" d="M496.8,2663.9a96.7,96.7,0,0,1-69.9-180.4" transform="translate(-222.7 -344.9)"/><polygon class="cls-28" points="161 556.5 87 507.1 13 457.6 92.8 418.3 172.6 378.9 166.8 467.7 161 556.5"/><polygon class="cls-29" points="2356.5 2434.2 2311 2403.8 2265.4 2373.4 2314.5 2349.2 2363.6 2325 2360 2379.6 2356.5 2434.2"/><rect class="cls-30" x="2502.6" y="373.9" width="122" height="121.96" transform="translate(-151.7 830.4) rotate(-26.2)"/><circle class="cls-20" cx="2732.7" cy="160.7" r="33.7"/><circle class="cls-21" cx="269.8" cy="910.5" r="33.7"/><circle class="cls-5" cx="1103.8" cy="2282.7" r="23.8"/></g></svg>