<svg xmlns="http://www.w3.org/2000/svg" xmlns:xlink="http://www.w3.org/1999/xlink" width="3597" height="2721.3" viewBox="0 0 3597 2721.3"><defs><style>.cls-1,.cls-43{fill:#f1f0fe;}.cls-2{fill:#1a127a;}.cls-3{fill:#bcc1f8;}.cls-4{fill:#e0e6ff;}.cls-5{fill:#fed001;}.cls-6{fill:#feb701;}.cls-7{fill:#06015f;}.cls-8{fill:#c1cbff;}.cls-9{fill:#dbe0fe;}.cls-10,.cls-30,.cls-31,.cls-32,.cls-33,.cls-34,.cls-35,.cls-36,.cls-37,.cls-38,.cls-39,.cls-40,.cls-41,.cls-42{fill:none;}.cls-10{stroke:#fff;stroke-width:1.15px;}.cls-10,.cls-43{stroke-miterlimit:10;}.cls-11{fill:#fff;}.cls-12{fill:url(#linear-gradient);}.cls-13{fill:url(#linear-gradient-2);}.cls-14{fill:url(#linear-gradient-3);}.cls-15{fill:url(#linear-gradient-4);}.cls-16{fill:url(#linear-gradient-5);}.cls-17{fill:url(#linear-gradient-6);}.cls-18{fill:url(#linear-gradient-7);}.cls-19{fill:url(#linear-gradient-8);}.cls-20{fill:url(#linear-gradient-9);}.cls-21{fill:url(#linear-gradient-10);}.cls-22{fill:url(#linear-gradient-11);}.cls-23{fill:url(#linear-gradient-12);}.cls-24{fill:url(#linear-gradient-13);}.cls-25{fill:#3f3af4;}.cls-26{fill:#ffbcac;}.cls-27{fill:#ff9695;}.cls-28{fill:#97a3fe;}.cls-29{fill:#a3afff;}.cls-30,.cls-31{stroke:#a3afff;}.cls-30,.cls-31,.cls-32,.cls-33,.cls-34,.cls-35,.cls-36,.cls-37,.cls-38,.cls-39,.cls-40,.cls-41,.cls-42{stroke-linecap:round;stroke-linejoin:round;}.cls-30,.cls-32{stroke-width:5.22px;}.cls-31{stroke-width:3.92px;}.cls-32,.cls-41,.cls-42{stroke:#c1cbff;}.cls-33,.cls-34{stroke:#ffd0e0;}.cls-33{stroke-width:11.7px;}.cls-34{stroke-width:6.14px;}.cls-35{stroke:#fdeab1;stroke-width:6.36px;}.cls-36,.cls-37,.cls-38{stroke:#c6f4cf;}.cls-36{stroke-width:8.13px;}.cls-37{stroke-width:3.75px;}.cls-38{stroke-width:6.03px;}.cls-39{stroke:#95a2fd;stroke-width:5.21px;}.cls-40{stroke:#271bbf;stroke-width:5.76px;}.cls-41,.cls-42{stroke-width:3.4px;}.cls-42{stroke-dasharray:15.8 15.8;}.cls-43{stroke:#97a3fe;stroke-width:4.58px;}.cls-44{fill:#b7c4f7;}</style><linearGradient id="linear-gradient" x1="2518.98" y1="2270.08" x2="2518.98" y2="2263.41" gradientTransform="matrix(0.65, 0.76, -0.76, 0.65, 2600.66, -978.4)" gradientUnits="userSpaceOnUse"><stop offset="0" stop-color="#004acc"/><stop offset="0.01" stop-color="#004acd"/><stop offset="0.35" stop-color="#0757e1"/><stop offset="0.68" stop-color="#0b5eee"/><stop offset="1" stop-color="#0c61f2"/></linearGradient><linearGradient id="linear-gradient-2" x1="2470.13" y1="2291.5" x2="2470.13" y2="2291.5" xlink:href="#linear-gradient"/><linearGradient id="linear-gradient-3" x1="2479.86" y1="2408.42" x2="2479.86" y2="2367.02" gradientTransform="translate(75.9 -76.5) rotate(1.8)" xlink:href="#linear-gradient"/><linearGradient id="linear-gradient-4" x1="2563.54" y1="2499.56" x2="2563.54" y2="2455.71" gradientTransform="translate(75.9 -76.5) rotate(1.8)" xlink:href="#linear-gradient"/><linearGradient id="linear-gradient-5" x1="2585.79" y1="2535.78" x2="2585.79" y2="2483.46" gradientTransform="translate(75.9 -76.5) rotate(1.8)" xlink:href="#linear-gradient"/><linearGradient id="linear-gradient-6" x1="2613.44" y1="2550.15" x2="2613.44" y2="2511.61" gradientTransform="translate(75.9 -76.5) rotate(1.8)" xlink:href="#linear-gradient"/><linearGradient id="linear-gradient-7" x1="2439.22" y1="2304.11" x2="2439.22" y2="2260.51" xlink:href="#linear-gradient"/><linearGradient id="linear-gradient-8" x1="2508.94" y1="2435.31" x2="2508.94" y2="2393.21" gradientTransform="translate(75.9 -76.5) rotate(1.8)" xlink:href="#linear-gradient"/><linearGradient id="linear-gradient-9" x1="2524.73" y1="2303.8" x2="2524.73" y2="2274.85" gradientTransform="matrix(0.65, 0.76, -0.76, 0.65, 2372.95, -1702.71)" xlink:href="#linear-gradient"/><linearGradient id="linear-gradient-10" x1="2528.47" y1="2465.37" x2="2528.47" y2="2422.4" gradientTransform="translate(75.9 -76.5) rotate(1.8)" xlink:href="#linear-gradient"/><linearGradient id="linear-gradient-11" x1="2433.05" y1="2372.87" x2="2433.05" y2="2302.41" gradientTransform="translate(75.9 -76.5) rotate(1.8)" xlink:href="#linear-gradient"/><linearGradient id="linear-gradient-12" x1="2392.53" y1="2284.68" x2="2392.53" y2="2268.04" xlink:href="#linear-gradient"/><linearGradient id="linear-gradient-13" x1="2400.73" y1="2285.57" x2="2400.73" y2="2268.91" xlink:href="#linear-gradient"/></defs><title>ladipage4</title><g id="background"><path class="cls-1" d="M3485.1,3043.8q-23.7,36.7-47.1,70.2c-45.6,65.4-89.5,121.6-128,167.7q-16.5,19.8-31.7,37c-62.7,71.7-104.7,110.2-104.7,110.2H524.6S714.2,2831.8,551,2391.5s31.6-784.1,258.1-928.8,711,319.7,853.2-96.5,421.3-482.5,579.3-337.8,416,144.8,516.1-24.1,626.7-717.7,984.8,428.2C3954.8,2112.1,3715.3,2687.8,3485.1,3043.8Z" transform="translate(-227.7 -724.3)"/><rect class="cls-2" y="2706.1" width="3331.2" height="15.23" rx="7.6" ry="7.6"/></g><g id="table"><path class="cls-3" d="M3444.9,3103.6c-45.6,65.4-89.5,121.6-128,167.7q-16.5,19.8-31.7,37H2005.3v121.8h-43V3308.3H1686.8l-77.2-191-209.7-518.9H2573.3Z" transform="translate(-227.7 -724.3)"/><path class="cls-4" d="M3492,3033.4q-23.7,36.7-47.1,70.2c-45.6,65.4-89.5,121.6-128,167.7H1672.2l-62.6-154L1206.3,2126H2379.7Z" transform="translate(-227.7 -724.3)"/><g id="book"><g id="book-2" data-name="book"><polygon class="cls-5" points="1523.4 1610.6 1523.4 1600 1474.1 1503.7 1737.2 1503.7 1807.7 1593 1807.7 1605.4 1523.4 1610.6"/><polygon class="cls-1" points="1523.4 1610.6 1474.1 1512.7 1474.1 1503.7 1523.4 1600 1523.4 1610.6"/><polygon class="cls-6" points="1523.4 1610.6 1807.7 1605.4 1807.7 1593 1523.4 1600 1523.4 1610.6"/></g><g id="book-3" data-name="book"><polygon class="cls-7" points="1545.9 1587.6 1545.9 1577.1 1496.6 1480.7 1759.7 1480.7 1830.2 1570 1830.2 1582.4 1545.9 1587.6"/><polygon class="cls-1" points="1545.9 1587.6 1496.6 1489.7 1496.6 1480.7 1545.9 1577.1 1545.9 1587.6"/><polygon points="1545.9 1587.6 1830.2 1582.4 1830.2 1570 1545.9 1577.1 1545.9 1587.6"/></g></g><g id="laptop"><path class="cls-8" d="M2221.5,2447.2H1771a28.8,28.8,0,0,0-25.7,41.8l196.1,389.3a40.3,40.3,0,0,0,37,22.2l563-13Z" transform="translate(-227.7 -724.3)"/><path class="cls-9" d="M2541.3,2887.5l-12.2,15.6a12.9,12.9,0,0,1-10.3,4.9l-540.5-7.5Z" transform="translate(-227.7 -724.3)"/><path class="cls-9" d="M1843.7,2579.3l94.9,189.7a6.9,6.9,0,0,0,6.2,3.8l136.9-1.4a6.9,6.9,0,0,0,5.9-10.3l-107.5-188.3a6.9,6.9,0,0,0-6-3.5H1849.9A6.9,6.9,0,0,0,1843.7,2579.3Z" transform="translate(-227.7 -724.3)"/><path class="cls-9" d="M1978.2,2471.5h220.4a8.1,8.1,0,0,1,6.5,3.3l273.6,376.7a8.1,8.1,0,0,1-6.3,12.8l-274.1,6.3a8.1,8.1,0,0,1-7.2-4l-219.9-383A8.1,8.1,0,0,1,1978.2,2471.5Z" transform="translate(-227.7 -724.3)"/><line class="cls-10" x1="1793" y1="1783.3" x2="1973.3" y2="2095.5"/><line class="cls-10" x1="1847.6" y1="1813" x2="2027.9" y2="2125.2"/><line class="cls-10" x1="1846.4" y1="1759.1" x2="2036.9" y2="2071.3"/><line class="cls-10" x1="1914.1" y1="1818.2" x2="2103.3" y2="2121.1"/><line class="cls-10" x1="1920.6" y1="1771.2" x2="2117.8" y2="2078.7"/><line class="cls-10" x1="1973.3" y1="1798.9" x2="2170.6" y2="2095.5"/><path class="cls-8" d="M2452.6,2050.8l-231.1,396.4,319.8,440.2,318.8-481.3a40.3,40.3,0,0,0-6.3-51.9l-339.1-312.7A40.3,40.3,0,0,0,2452.6,2050.8Z" transform="translate(-227.7 -724.3)"/><polygon class="cls-11" points="2246.1 1327.2 2019.2 1716.5 2316.5 2121.1 2615.4 1669.7 2246.1 1327.2"/><path class="cls-12" d="M2533.9,2406.8a2.7,2.7,0,0,0-4.4.1l-1.9,2.8,2.4,2.7a2.7,2.7,0,0,0,4.4-.1l1.9-2.8Z" transform="translate(-227.7 -724.3)"/><path class="cls-13" d="M2481.3,2388.8" transform="translate(-227.7 -724.3)"/><path class="cls-14" d="M2493,2377.8l4.8,5.4-17.1,23.9-4.8-5.5,1.8-2.5a11.3,11.3,0,0,1-8.6-4,17.7,17.7,0,0,1-4.4-11.6,19.7,19.7,0,0,1,3.9-12.1q3.9-5.3,9.1-5.7t9.4,4.2a17.1,17.1,0,0,1,3.9,10.6Zm-19.7-1a12.2,12.2,0,0,0-2.5,7.3,10.2,10.2,0,0,0,2.5,6.8q2.6,3,5.8,2.7t5.6-3.7a12,12,0,0,0,2.4-7.4,10.5,10.5,0,0,0-2.7-6.9,6.5,6.5,0,0,0-5.6-2.5A7.7,7.7,0,0,0,2473.3,2376.8Z" transform="translate(-227.7 -724.3)"/><path class="cls-15" d="M2574.1,2469.7l5,5.7-16.9,25.4-5-5.8,1.8-2.7a11.8,11.8,0,0,1-8.9-4.2,19.6,19.6,0,0,1-4.8-12.3,20.9,20.9,0,0,1,3.6-12.9q3.8-5.6,9.2-6.1t9.8,4.5q3.8,4.3,4.3,11.3Zm-20.2-1a12.9,12.9,0,0,0-2.3,7.8,11.2,11.2,0,0,0,2.7,7.2q2.8,3.2,6,2.9t5.7-3.9a12.8,12.8,0,0,0,2.2-7.8,11.6,11.6,0,0,0-2.9-7.3,6.7,6.7,0,0,0-5.8-2.6A7.6,7.6,0,0,0,2553.9,2468.7Z" transform="translate(-227.7 -724.3)"/><path class="cls-16" d="M2588.1,2529.5l-2.2,3.1-1.9,2.2a9.2,9.2,0,0,1-5.5,2.6q-5.7.6-10.9-5.4a22.4,22.4,0,0,1-5.4-11.2,18.5,18.5,0,0,1,1.9-11.8l5.1,5.8a10.5,10.5,0,0,0-1,4.1,11.4,11.4,0,0,0,3,7.7q5.6,6.5,10.9-1.7l2.4-3.6a11.6,11.6,0,0,1-9.4-4.4,19.5,19.5,0,0,1-4.8-12.2,20.9,20.9,0,0,1,3.5-12.9q3.7-5.6,8.9-6.4t10.3,4.5a18.4,18.4,0,0,1,4.5,11.4l1.9-2.9,5.1,5.8Zm3.1-17.9a12.8,12.8,0,0,0,2.2-8,11.8,11.8,0,0,0-2.9-7.3q-2.9-3.3-6.2-2.7t-5.3,4a13.1,13.1,0,0,0-2.3,7.5,11.4,11.4,0,0,0,2.9,7.7q2.9,3.3,6.3,2.8T2591.3,2511.6Z" transform="translate(-227.7 -724.3)"/><path class="cls-17" d="M2620,2546.8l-16-18.3a12.3,12.3,0,0,0-1.5,7.2,11.4,11.4,0,0,0,2.8,6.5,7.1,7.1,0,0,0,3.9,2.6,12.1,12.1,0,0,0,5.4-.8l2.6,7.9a15.9,15.9,0,0,1-4.4,1,11.1,11.1,0,0,1-4-.4,11.9,11.9,0,0,1-3.7-1.8,21.3,21.3,0,0,1-3.5-3.3,22,22,0,0,1-5.6-13,21.1,21.1,0,0,1,3.5-13.4q4-6.1,9.4-6.6t10.2,5.1a21,21,0,0,1,5.5,12.5,21.4,21.4,0,0,1-3.6,13.4Zm-2.2-11a10.3,10.3,0,0,0-2.1-10.8,8,8,0,0,0-2-1.7,5.7,5.7,0,0,0-2.1-.7,4.9,4.9,0,0,0-2.1.2,5.9,5.9,0,0,0-2,1.2Z" transform="translate(-227.7 -724.3)"/><path class="cls-18" d="M2481,2341.2a2.6,2.6,0,0,0-4.3,0l-24.5,33.3,4.7,5.4,26.4-36.1Z" transform="translate(-227.7 -724.3)"/><path class="cls-19" d="M2528.5,2394.6a2.7,2.7,0,0,0-4.4,0h0l-9.2,13a17.6,17.6,0,0,0-4.1-10.8q-4.2-4.7-9.5-4.3t-9.2,5.8a20,20,0,0,0-3.8,12.4,18.2,18.2,0,0,0,4.5,11.7,11.2,11.2,0,0,0,8.7,4.1l-1.8,2.6,4.8,5.6,24.3-34.6,2-2.8Zm-25.5,26.5q-3.2.3-5.8-2.8a10.5,10.5,0,0,1-2.6-6.9,12.4,12.4,0,0,1,2.4-7.5,7.7,7.7,0,0,1,5.5-3.6,6.5,6.5,0,0,1,5.7,2.5,10.8,10.8,0,0,1,2.7,7,12.2,12.2,0,0,1-2.3,7.5Q2506.3,2420.8,2503.1,2421.1Z" transform="translate(-227.7 -724.3)"/><polygon class="cls-20" points="2297.1 1689.5 2280 1713.9 2284.8 1719.4 2301.9 1695 2297.1 1689.5"/><path class="cls-21" d="M2549.2,2446.9a18.6,18.6,0,0,0-4.7-11.9,11.2,11.2,0,0,0-8.9-4.1h0l1.8-2.7-4.9-5.5-24.5,35.2h0l-2,2.9,2.4,2.8h0a2.7,2.7,0,0,0,4.4-.1l9.3-13.5h0a18.6,18.6,0,0,0,4.2,11.1q4.3,5,9.7,4.5t9.3-6.1A20.3,20.3,0,0,0,2549.2,2446.9Zm-14.2,10.7a6.5,6.5,0,0,1-5.8-2.6,11.2,11.2,0,0,1-2.8-7.2,12.5,12.5,0,0,1,.7-4.7,13.1,13.1,0,0,1,1.5-3,11,11,0,0,1,2.1-2.3,6.4,6.4,0,0,1,3.5-1.5q3.2-.3,5.9,2.8a10.9,10.9,0,0,1,2.7,7.1,12.6,12.6,0,0,1-2.3,7.7A7.6,7.6,0,0,1,2535,2457.6Z" transform="translate(-227.7 -724.3)"/><path class="cls-22" d="M2462.4,2309.1a65.5,65.5,0,0,0-1.6-7.3,38,38,0,0,0-6.1-1.4c-12.9-1.7-25.9,3.4-35.2,15.5a49.4,49.4,0,0,0-3.4,5.1,57.1,57.1,0,0,0-6.8,19.2,65.1,65.1,0,0,0-.8,7.6,31.5,31.5,0,0,1,19.3-2.1,59.7,59.7,0,0,1,.9,16.9,56.8,56.8,0,0,1-1.1,7.3,35.8,35.8,0,0,0,6.1-1.6,39,39,0,0,0,15.2-9.9,46,46,0,0,0,3.9-4.6C2461.9,2341.4,2465,2324.8,2462.4,2309.1Zm-28,51.5a68.4,68.4,0,0,0-.7-13.2,67.5,67.5,0,0,0-1.6-7.5,37.9,37.9,0,0,0-6.2-1.4,36,36,0,0,0-10.6.1,49.4,49.4,0,0,1,4.7-12.5,43.7,43.7,0,0,1,3.4-5.3l.2-.3c8.6-11.3,21-15.7,33-13.3,3,14.5.5,30.2-8.1,41.7l-.2.3a39.6,39.6,0,0,1-4,4.6A34.4,34.4,0,0,1,2434.4,2360.7Z" transform="translate(-227.7 -724.3)"/><path class="cls-23" d="M2438.8,2320.8l12.7-1.6a11,11,0,0,0-1.8-2.8c-3.4-3.9-8.6-3.8-11.6.1a11.5,11.5,0,0,0-1.4,10.3l5.9-2.5Z" transform="translate(-227.7 -724.3)"/><path class="cls-24" d="M2452,2320.3l-5.9,2.5,3.9,3.5-12.8,1.6a11,11,0,0,0,1.8,2.8c3.4,3.9,8.7,3.9,11.6-.1A11.5,11.5,0,0,0,2452,2320.3Z" transform="translate(-227.7 -724.3)"/></g><g id="pencil"><rect class="cls-25" x="1938.5" y="3043.2" width="225.6" height="14.42" transform="translate(675.1 -1165.9) rotate(15.7)"/><rect class="cls-8" x="1938.5" y="3047.8" width="225.6" height="5.12" transform="translate(675.1 -1165.9) rotate(15.7)"/><polygon class="cls-26" points="1934.1 2349.7 1968.2 2366.8 1930.2 2363.6 1934.1 2349.7"/><rect class="cls-8" x="1938.1" y="3012" width="4.7" height="14.42" transform="translate(662.5 -1137) rotate(15.7)"/><path class="cls-27" d="M1927,3008.8h11.5a0,0,0,0,1,0,0v14.4a0,0,0,0,1,0,0H1927a7.2,7.2,0,0,1-7.2-7.2v0a7.2,7.2,0,0,1,7.2-7.2Z" transform="translate(661.3 -1134.1) rotate(15.7)"/><path d="M2182.3,3084.3s-1.1.4-1.2,1.2.4,1.6-.6,2.2-.1,2.1-.1,2.1l15.5,1.3Z" transform="translate(-227.7 -724.3)"/></g></g><g id="tree"><path class="cls-2" d="M3349.8,2977.7c-4.4,66.1-34.6,122.7-76.8,154.1l-1.1,17.2a6.9,6.9,0,0,1-7.4,6.5l-147.6-9.7a6.9,6.9,0,0,1-6.5-7.4l1-14.5c-39.6-36.4-63.4-97.9-58.9-165.7a236,236,0,0,1,17.8-76.4l271.9,18A236,236,0,0,1,3349.8,2977.7Z" transform="translate(-227.7 -724.3)"/><ellipse class="cls-28" cx="3206.2" cy="2890.7" rx="18.7" ry="136.3" transform="translate(-117.2 5175.2) rotate(-86.2)"/><path class="cls-29" d="M3132.4,2871.5s-89.9-77-4.9-241.1,18.7-201.6,1.8-243.6-66.2-179.2,99.9-350.9c0,0-52,113.9,7.5,214.2s34.3,209.1,34.3,209.1-20.2,96,.2,190.7c25.6,119-31.5,236.1-85.1,228.9Z" transform="translate(-227.7 -724.3)"/><path class="cls-8" d="M3002,2281.3s18.9,114.3,108.2,169.7,11.6,179,47,262.2c42.4,99.7,63.5,125.6,39.9,182.9,0,0-123.2-16.4-148-140.9s10.2-151.8-69.4-219.7-4.9-138.9-1.6-154.6C2983.1,2356.1,2973.3,2300.2,3002,2281.3Z" transform="translate(-227.7 -724.3)"/><path class="cls-8" d="M3196.5,2896s122.8,22,111.3-93.6,12.2-84.5,58-127,77.6-83.8,65.5-174.1-3.8-100.1,10.9-118.7c0,0-79.2,60.1-94.7,128.1s-12.8,48-55.9,70.6-55.7,45.2-63.9,85.9-145,131.3-31.1,228.9" transform="translate(-227.7 -724.3)"/><path class="cls-30" d="M2995.1,2353.7s-6,63.6,20.1,110.2a82.1,82.1,0,0,0,13.9,18c14.4,14.3,53.7,60.8,62.5,149.4,13.5,136.2,70.7,224.2,70.7,224.2" transform="translate(-227.7 -724.3)"/><path class="cls-31" d="M3407.4,2442.7s-3.5,5.6-7.8,14.3a154.7,154.7,0,0,0-16.1,70c.1,25-5.5,80.7-52.3,126.4-62.4,60.8-105,142.5-103,244.1" transform="translate(-227.7 -724.3)"/><path class="cls-32" d="M3186.4,2127.8s-26.1,121.9,15.8,199.8c40.9,76,20.8,224.1,4.6,267.7-30.2,81.5-2,193.6-2,193.6" transform="translate(-227.7 -724.3)"/></g><g id="Boy"><g id="hand_left" data-name="hand left"><path class="cls-26" d="M1864.6,2532.1c-20.4-1.5-32.9,13.1-32.9,13.1s22,4.6,24.3,13-2.6,1.8-15.9,4.4h-.1l-2.8.7h-.2l-2.7.5h0c-10.7,1.6-27.4,1.8-52.8,1.5-28.3-.3-81.5,33.8-163.1,54.9h-.1l-10.8,2.7c-79.6,18.8-184.7,23.9-318.1-24.8l-29.7-157.7-23.1-122.9s130.5,234,521.8,184.2c0,0,38.6-7,65.1-25.2s47-12.9,40.2-6.2-19.8,3.5-34.1,17.8c0,0,48.8-12.5,54.3,11.8,1.9,8.5,2,15.6-.7,21.7S1872.4,2532.7,1864.6,2532.1Z" transform="translate(-227.7 -724.3)"/><path class="cls-27" d="M1607.5,2623c-79.6,18.8-184.7,23.9-318.1-24.8l-29.7-157.7,26.2-63.1s37.2,142.3,83.8,162.8,65,30.1,80.8,54.8C1465.2,2617.9,1555.2,2633.2,1607.5,2623Z" transform="translate(-227.7 -724.3)"/><path class="cls-27" d="M1847.3,2502.5a32.5,32.5,0,0,1,8.4-4.4,39,39,0,0,1,9.3-2.2,29.8,29.8,0,0,1,9.6.5,23.8,23.8,0,0,1,4.6,1.6,17.1,17.1,0,0,1,4,2.7c-1.5-.4-3-.8-4.5-1.1l-4.4-.5a55.8,55.8,0,0,0-8.9.3c-3,.3-5.9.8-8.9,1.3Z" transform="translate(-227.7 -724.3)"/><path class="cls-27" d="M1847.3,2514.2a32.5,32.5,0,0,1,8.4-4.4,39,39,0,0,1,9.3-2.2,29.8,29.8,0,0,1,9.6.5,23.9,23.9,0,0,1,4.6,1.6,17.1,17.1,0,0,1,4,2.7c-1.5-.4-3-.8-4.5-1.1l-4.4-.5a55.8,55.8,0,0,0-8.9.3c-3,.3-5.9.8-8.9,1.3Z" transform="translate(-227.7 -724.3)"/><path class="cls-27" d="M1843,2528.2a32.5,32.5,0,0,1,8.4-4.4,39,39,0,0,1,9.3-2.2,29.8,29.8,0,0,1,9.6.5,23.9,23.9,0,0,1,4.6,1.6,17.1,17.1,0,0,1,4,2.7c-1.5-.4-3-.8-4.5-1.1l-4.4-.5a55.8,55.8,0,0,0-8.9.3c-3,.3-5.9.8-8.9,1.3Z" transform="translate(-227.7 -724.3)"/></g><g id="body"><path class="cls-2" d="M971,2013.5s26.1,149.2,208.8,149.2c0,0,272.2,317,104.4,1006.9,0,0-395.3,238.7-846.5,0C437.7,3169.6-106.7,2289.5,971,2013.5Z" transform="translate(-227.7 -724.3)"/><path class="cls-7" d="M831,2686.1s-79-101.5-103.4-183.7c0,0,16,180.2,153.6,292.1s453.8,57.3,453.8,57.3S1010.4,2877,831,2686.1Z" transform="translate(-227.7 -724.3)"/><path class="cls-7" d="M1166.8,2433.9s-80.9-93.8-91.2-107.7,139.7,153,248.5,217.9l2.3,13.5S1236.6,2506.9,1166.8,2433.9Z" transform="translate(-227.7 -724.3)"/><g id="pattern"><path class="cls-33" d="M884.1,2287.5a24.5,24.5,0,1,1,0,49" transform="translate(-227.7 -724.3)"/><path class="cls-34" d="M1270.1,2455.7a12.8,12.8,0,1,1,20.5,15.5" transform="translate(-227.7 -724.3)"/><path class="cls-33" d="M1272.1,2927.2a24.5,24.5,0,1,1-39.4,29.1" transform="translate(-227.7 -724.3)"/><path class="cls-33" d="M470.6,2663.4a24.5,24.5,0,0,1-39.4,29.1" transform="translate(-227.7 -724.3)"/><path class="cls-35" d="M547.2,2983.5a30.2,30.2,0,0,1-21.8-56.4" transform="translate(-227.7 -724.3)"/><path class="cls-35" d="M634.5,2274.8a30.2,30.2,0,0,1,60.3,4" transform="translate(-227.7 -724.3)"/><path class="cls-35" d="M937.5,2129.3a30.2,30.2,0,0,1-21.8-56.4" transform="translate(-227.7 -724.3)"/><path class="cls-35" d="M679.4,2571.6a30.2,30.2,0,0,1-59.2-12.3" transform="translate(-227.7 -724.3)"/><path class="cls-35" d="M911.2,3088.4a30.2,30.2,0,0,1-49.1,35.3" transform="translate(-227.7 -724.3)"/><polygon class="cls-36" points="284.1 1708.2 261 1692.7 237.8 1677.3 262.8 1664.9 287.7 1652.6 285.9 1680.4 284.1 1708.2"/><polygon class="cls-37" points="880.2 2309.6 869.5 2302.4 858.8 2295.3 870.4 2289.6 881.9 2283.9 881 2296.7 880.2 2309.6"/><polygon class="cls-38" points="546 2114.1 533.9 2130.8 521.8 2147.6 513.4 2128.7 504.9 2109.9 525.4 2112 546 2114.1"/><rect class="cls-39" x="1174.3" y="2267.5" width="38.1" height="38.13" transform="translate(-1113.9 36.5) rotate(-26.2)"/><rect class="cls-39" x="683" y="3132.2" width="38.1" height="38.13" transform="translate(-1545.6 -91.6) rotate(-26.2)"/><rect class="cls-39" x="1166.5" y="3117.2" width="38.1" height="38.13" transform="translate(-1489.4 120.1) rotate(-26.2)"/><rect class="cls-39" x="905" y="2463.3" width="38.1" height="38.13" transform="translate(501.9 -883.6) rotate(16.2)"/></g></g><path class="cls-26" d="M1840.1,2562.7l-2.8.7Z" transform="translate(-227.7 -724.3)"/><g id="head"><path class="cls-26" d="M1185.6,2072.9h0c-1.5.5-44.4,14.1-51.9,35.1,0,0,22.3,21,46.2,54.6,0,0-152.4,11.7-201.6-125a229.8,229.8,0,0,1-7.2-24.2s110.7-17,184.1-116.3c0,0-49.7-109.4,44.3-107.8a100.4,100.4,0,0,0,20.5-1.9c89.8-17.3,192.1-147.8,193.5-177.6C1413.3,1609.9,1631.9,2131,1185.6,2072.9Z" transform="translate(-227.7 -724.3)"/><path class="cls-27" d="M1241.6,1824.9s-45.9-47.7-59.9-12.3,4.3,63.3,4.3,63.3,12.2,30.9-32.2,61.5-166.9,119.6-166.9,119.6-8.1-17.7-8.7-19.2c-1.8-4.7-5.6-15.3-7.2-24.2,0,0,110.7-17,184.1-116.3,0,0-49.7-109.4,44.3-107.8a100.4,100.4,0,0,0,20.5-1.9l6.8,3.3Z" transform="translate(-227.7 -724.3)"/><path class="cls-27" d="M1461.7,1795.7c-49.3,38.8-119.3-4.4-119.3-4.4-29.2,24.8-80.3,5.7-84.3,4.2,4,1.4,55.8,17.9,85.9-48.1C1344,1747.4,1352.5,1838.5,1461.7,1795.7Z" transform="translate(-227.7 -724.3)"/><path class="cls-27" d="M1179.8,2162.7c-18.8-25.8-63-64.3-63-64.3,7.8-17.3,66.9-25.2,68.8-25.4-1.5.5-44.4,14.1-51.9,35.1C1133.7,2108.1,1155.9,2129.1,1179.8,2162.7Z" transform="translate(-227.7 -724.3)"/></g><g id="hair"><path class="cls-7" d="M1559.3,1756.9c-19.3,105.7-97.6,38.9-97.6,38.9-109.2,42.7-117.7-48.3-117.7-48.3-30.1,66-82,49.5-85.9,48.1h-.2c-.1,39.8-16.3,29.4-16.3,29.4-23.9-31.9-44.4-56.7-73.2-8.4-12,20.2-1.3,32.3,10.8,46.2h.1c41.3,50.5-99.9,105.7-99.9,105.7-20.7-18.6-34.3-42.2-34.3-42.2-88,13.4-67.3-81.3-67.3-81.3-43.2-27-48.9-93.5,12.7-118.6,40.7-16.5,46.3-45.1,45.3-62.5-1-19.1,3-38.2,12.5-54.7,36.5-63.7,106.3-45,106.3-45,301.5-199.1,299.1,40.2,299.1,40.2C1533.1,1590.5,1578.6,1651.2,1559.3,1756.9Z" transform="translate(-227.7 -724.3)"/><path class="cls-1" d="M1484.6,1624.2a94.6,94.6,0,0,1,33.3,24.1,97.9,97.9,0,0,1,12.2,16.9c.9,1.5,1.7,3,2.5,4.6l1.1,2.4.6,1.2.5,1.2,2,4.8,1.7,4.9a114.3,114.3,0,0,1,4.2,20.4c.2,1.7.3,3.5.4,5.2l.2,2.6c.1.9,0,1.7,0,2.6v5.2c0,1.7-.2,3.5-.3,5.2-.1,3.5-.6,6.9-1.1,10.3-.2,1.7-.5,3.4-.8,5.1l-1,5.1c-.8,3.4-1.7,6.7-2.5,10s-2.1,6.6-3.1,9.8l1.1-5,1.1-5c.6-3.4,1.2-6.7,1.7-10.1a171.1,171.1,0,0,0,1.8-20.3,132,132,0,0,0-.9-20.3,114.9,114.9,0,0,0-4.3-19.8,99.3,99.3,0,0,0-7.9-18.6,104.4,104.4,0,0,0-11.4-16.7,111.5,111.5,0,0,0-14.4-14.4A98.2,98.2,0,0,0,1484.6,1624.2Z" transform="translate(-227.7 -724.3)"/><path class="cls-1" d="M1333.3,1499.1a80.6,80.6,0,0,1,12.6-.8,100.3,100.3,0,0,1,12.6.9,90.9,90.9,0,0,1,12.5,2.6,87.6,87.6,0,0,1,12,4.4,61.6,61.6,0,0,1,20.6,15.1,52.9,52.9,0,0,1,11.7,22.4,66.7,66.7,0,0,0-13.6-20.5,60.3,60.3,0,0,0-9.4-7.8,71.5,71.5,0,0,0-10.7-6,91.3,91.3,0,0,0-11.5-4.4,113.6,113.6,0,0,0-12-3A151.4,151.4,0,0,0,1333.3,1499.1Z" transform="translate(-227.7 -724.3)"/><path class="cls-1" d="M1353.3,1611.3a80.6,80.6,0,0,1,10.5-7,100.3,100.3,0,0,1,11.4-5.6,90.9,90.9,0,0,1,12.1-4,87.6,87.6,0,0,1,12.6-2.2,61.6,61.6,0,0,1,25.4,2.7,52.9,52.9,0,0,1,21.3,13.5,66.7,66.7,0,0,0-22.1-10.9,60.3,60.3,0,0,0-12-2,71.5,71.5,0,0,0-12.2.1,91.3,91.3,0,0,0-12.1,2,113.6,113.6,0,0,0-11.9,3.4A151.4,151.4,0,0,0,1353.3,1611.3Z" transform="translate(-227.7 -724.3)"/><path class="cls-1" d="M971.1,1820.5a80.6,80.6,0,0,1-.7-12.6,100.3,100.3,0,0,1,1-12.6,90.9,90.9,0,0,1,2.6-12.4,87.6,87.6,0,0,1,4.5-12,61.6,61.6,0,0,1,15.3-20.5,52.9,52.9,0,0,1,22.5-11.5,66.7,66.7,0,0,0-20.6,13.5,60.3,60.3,0,0,0-7.9,9.4,71.5,71.5,0,0,0-6.1,10.6,91.3,91.3,0,0,0-4.5,11.5,113.6,113.6,0,0,0-3.1,12A151.4,151.4,0,0,0,971.1,1820.5Z" transform="translate(-227.7 -724.3)"/><path class="cls-1" d="M1090.2,1585.3a155.4,155.4,0,0,0-16.4,14c-2.5,2.5-5,5.1-7.2,7.9a74.9,74.9,0,0,0-6.3,8.5,64,64,0,0,0-5,9.3,54.4,54.4,0,0,0-3.1,10l-.5,2.6-.3,2.6a22.4,22.4,0,0,0-.2,2.6,26.3,26.3,0,0,0,0,2.7v2.7c.1.9.2,1.8.3,2.7l.2,1.3.3,1.3.5,2.7-1-2.5-.5-1.3-.4-1.3c-.2-.9-.5-1.8-.7-2.7l-.5-2.7a41,41,0,0,1-.1-11.1,48.7,48.7,0,0,1,2.8-10.8,63,63,0,0,1,5.1-9.9,76.9,76.9,0,0,1,14.6-16.5,89.8,89.8,0,0,1,8.7-6.6A71.3,71.3,0,0,1,1090.2,1585.3Z" transform="translate(-227.7 -724.3)"/><path class="cls-1" d="M1268.3,1785.9a186.6,186.6,0,0,0,18.1-6.9l4.4-2,4.3-2.1,4.2-2.3,2.1-1.2,2-1.3a120.3,120.3,0,0,0,15.7-11l3.7-3.1,3.5-3.3,1.8-1.7,1.7-1.8,3.4-3.5-2.7,4.1-1.4,2-1.5,1.9-3.2,3.8-3.5,3.5-1.8,1.7-1.9,1.6-3.8,3.1-4,2.8-1,.7-1.1.6-2.1,1.3-2.1,1.3-2.2,1.2-2.2,1.1-2.2,1.1-4.5,2-4.6,1.8-4.7,1.5-4.8,1.3A65.8,65.8,0,0,1,1268.3,1785.9Z" transform="translate(-227.7 -724.3)"/><path class="cls-1" d="M1084.3,1951.3a186.6,186.6,0,0,0,18.1-6.9l4.4-2,4.3-2.1,4.2-2.3,2.1-1.2,2-1.3a120.3,120.3,0,0,0,15.7-11l3.7-3.1,3.5-3.3,1.8-1.7,1.7-1.8,3.4-3.5-2.7,4.1-1.4,2-1.5,1.9-3.2,3.8-3.5,3.5-1.8,1.7-1.9,1.6-3.8,3.1-4,2.8-1,.7-1.1.6-2.1,1.3-2.1,1.3-2.2,1.2-2.2,1.1-2.2,1.1-4.5,2-4.6,1.8-4.7,1.5-4.8,1.3A65.8,65.8,0,0,1,1084.3,1951.3Z" transform="translate(-227.7 -724.3)"/></g><g id="hand_right" data-name="hand right"><path class="cls-26" d="M1962.4,2599.4l-49.7,14.4c21.8-5.2,50.1,43.6,49.7,58s-20.9,40.5-35.7,22.2-30.7-7.9-30.7-7.9c-273,124.7-481.2,168-637.9,169.8C934.6,2859.6,831,2686.1,831,2686.1c257.3-77.2,332.5-244.4,335.8-252.2v-.3h0c234,228.1,436,212.9,559.3,213.7s144.7-26.6,161.7-38.8,63.6-31.4,80.6-23.1S1962.4,2599.4,1962.4,2599.4Z" transform="translate(-227.7 -724.3)"/><path class="cls-27" d="M1258.1,2855.9h0C934.6,2859.6,831,2686.1,831,2686.1c257.3-77.2,332.5-244.4,335.8-252.2-3.4,8.9-84.2,220-195.8,251.8C857,2718.3,996.7,2826.8,1258.1,2855.9Z" transform="translate(-227.7 -724.3)"/><path class="cls-27" d="M1936.5,2651.6a32.5,32.5,0,0,1,7.7,5.5,39,39,0,0,1,6,7.4,29.8,29.8,0,0,1,3.8,8.9,23.8,23.8,0,0,1,.6,4.8,17.1,17.1,0,0,1-.7,4.7c-.3-1.6-.6-3.1-1-4.5a41.2,41.2,0,0,0-1.5-4.2,55.8,55.8,0,0,0-4.2-7.8c-1.6-2.5-3.3-5-5.1-7.4Z" transform="translate(-227.7 -724.3)"/><path class="cls-27" d="M1926.4,2663.7a32.5,32.5,0,0,1,7.7,5.5,39,39,0,0,1,6,7.4,29.8,29.8,0,0,1,3.8,8.9,23.9,23.9,0,0,1,.6,4.8,17.1,17.1,0,0,1-.7,4.7c-.3-1.6-.6-3.1-1-4.5a41.2,41.2,0,0,0-1.5-4.2,55.8,55.8,0,0,0-4.2-7.8c-1.6-2.5-3.3-5-5.1-7.4Z" transform="translate(-227.7 -724.3)"/></g><path class="cls-26" d="M1837.1,2563.4l-2.7.5Z" transform="translate(-227.7 -724.3)"/><g id="paint"><path class="cls-25" d="M1284.2,3169.6s-55.1,181.1-126.5,260.8H492.8c-1-1.6-113.7-82.5-55.1-260.8C437.7,3169.6,857.7,3393.9,1284.2,3169.6Z" transform="translate(-227.7 -724.3)"/><path class="cls-40" d="M1232.7,3244.2s-14.7,69.2-112.4,92.9" transform="translate(-227.7 -724.3)"/><path class="cls-40" d="M819.6,3296.5s10.9,26.6,2.5,65.1,1.2,65.1,1.2,65.1" transform="translate(-227.7 -724.3)"/></g></g><g id="features"><g id="play"><path class="cls-8" d="M2542.4,1629.8H2220.6a84.6,84.6,0,0,0-84.6,84.6v179a84.6,84.6,0,0,0,84.6,84.6h321.9c54.2,0,84.6,100.8,84.6,100.8V1714.4A84.6,84.6,0,0,0,2542.4,1629.8Z" transform="translate(-227.7 -724.3)"/><circle class="cls-28" cx="2153.8" cy="1079.6" r="116.1"/><polygon class="cls-1" points="2214.7 1079.6 2165.6 1107.9 2116.5 1136.3 2116.5 1079.6 2116.5 1022.9 2165.6 1051.2 2214.7 1079.6"/></g><g id="countdown"><path class="cls-8" d="M3053,1205.2V1527a84.6,84.6,0,0,1-84.6,84.6h-179c-82.3,0-84.6,96.5-84.6,96.5v-503a84.6,84.6,0,0,1,84.6-84.6h179A84.6,84.6,0,0,1,3053,1205.2Z" transform="translate(-227.7 -724.3)"/><g id="countdown-2" data-name="countdown"><path class="cls-28" d="M2936.4,1401.6c22.9,26.4,38.1,71.8,39,131.8H2782.5s-3.8-86.3,44.2-132l2.3-2.1.5-.4h0a58.2,58.2,0,0,0-3.9-85.9c-46.8-46-43.1-131-43.1-131h192.9c-.9,59.6-16,104.8-38.6,131.3h0a58.2,58.2,0,0,0-.4,88.3Z" transform="translate(-227.7 -724.3)"/><path class="cls-1" d="M2811.8,1255.7s35.9-5.2,70.6,4.8,68.3-3.1,68.3-3.1-9.1,32.2-24.1,44.5-29.2,18.4-34.6,22.3-13.2,12.8-13.2,12.8-16-15.1-27.3-21.4S2810.9,1286.4,2811.8,1255.7Z" transform="translate(-227.7 -724.3)"/><path class="cls-1" d="M2886.1,1357.7a7.4,7.4,0,0,1-8.2,7.4,8,8,0,0,1-6.4-5.9,7.4,7.4,0,0,1,1.8-6.4,18.4,18.4,0,0,0,2.7-3.6l3.1-5.8,1.8,3.7,3.8,5.7A7.6,7.6,0,0,1,2886.1,1357.7Z" transform="translate(-227.7 -724.3)"/><path class="cls-1" d="M2799.9,1520.4h158.3s4.9-46.1-33.3-35.7-42.4,24.3-64.6,13.9S2808.9,1496.3,2799.9,1520.4Z" transform="translate(-227.7 -724.3)"/></g></g><g id="coupon"><path class="cls-8" d="M2806.9,1681.7h315.2a82.8,82.8,0,0,1,82.8,82.8v175.3a82.8,82.8,0,0,1-82.8,82.8H2806.9c-53.1,0-82.8,98.7-82.8,98.7V1764.5A82.8,82.8,0,0,1,2806.9,1681.7Z" transform="translate(-227.7 -724.3)"/><path class="cls-9" d="M3141.8,1854.5a36.9,36.9,0,0,0,24.2,34.7v35.2a25.5,25.5,0,0,1-25.5,25.5h-352a25.5,25.5,0,0,1-25.5-25.5v-35.2a36.9,36.9,0,0,0,0-69.3v-35.2a25.5,25.5,0,0,1,25.5-25.5h352a25.5,25.5,0,0,1,25.5,25.5v35.2A36.9,36.9,0,0,0,3141.8,1854.5Z" transform="translate(-227.7 -724.3)"/><path class="cls-28" d="M3166,1889.2v35.2a25.5,25.5,0,0,1-25.5,25.5h-352a25.5,25.5,0,0,1-25.5-25.5v-35.2a36.9,36.9,0,0,0,24.2-34.7h354.7A36.9,36.9,0,0,0,3166,1889.2Z" transform="translate(-227.7 -724.3)"/><line class="cls-41" x1="2842.5" y1="1034.8" x2="2842.5" y2="1043.3"/><line class="cls-42" x1="2842.5" y1="1059.1" x2="2842.5" y2="1209.2"/><line class="cls-41" x1="2842.5" y1="1217.1" x2="2842.5" y2="1225.6"/><path class="cls-11" d="M2923.4,1809.7a10.8,10.8,0,0,1-4.3-.8,9.2,9.2,0,0,1-3.5-2.6,12.6,12.6,0,0,1-2.3-4.4,24.9,24.9,0,0,1,0-12.8,12.6,12.6,0,0,1,2.3-4.4,9.3,9.3,0,0,1,3.5-2.6,11.3,11.3,0,0,1,8.5,0,9.3,9.3,0,0,1,3.5,2.6,12.6,12.6,0,0,1,2.3,4.4,24.9,24.9,0,0,1,0,12.8,12.6,12.6,0,0,1-2.3,4.4,9.2,9.2,0,0,1-3.5,2.6A10.8,10.8,0,0,1,2923.4,1809.7Zm0-6.9a2.9,2.9,0,0,0,2.7-1.6q.9-1.6.9-5.8t-.9-5.8a3.1,3.1,0,0,0-5.4,0q-.9,1.6-.9,5.8t.9,5.8A2.9,2.9,0,0,0,2923.4,1802.8Zm28.4-23.6,4.5,1.9-29.8,56.1-4.4-1.9Zm4.2,56.1a10.9,10.9,0,0,1-4.3-.8,9.2,9.2,0,0,1-3.5-2.6,12.6,12.6,0,0,1-2.3-4.4,24.9,24.9,0,0,1,0-12.8,12.6,12.6,0,0,1,2.3-4.4,9.2,9.2,0,0,1,3.5-2.6,11.3,11.3,0,0,1,8.5,0,9.3,9.3,0,0,1,3.5,2.6,12.6,12.6,0,0,1,2.3,4.4,24.9,24.9,0,0,1,0,12.8,12.6,12.6,0,0,1-2.3,4.4,9.2,9.2,0,0,1-3.5,2.6A10.9,10.9,0,0,1,2956,1835.4Zm0-6.9a2.9,2.9,0,0,0,2.7-1.6q.9-1.6.9-5.8t-.9-5.8a3.1,3.1,0,0,0-5.4,0q-.9,1.6-.9,5.8t.9,5.8A2.9,2.9,0,0,0,2956,1828.5Z" transform="translate(-227.7 -724.3)"/></g><g id="form"><path class="cls-8" d="M2212.1,1039.8v406.8a106.9,106.9,0,0,0,106.9,106.9h226.2c104,0,106.9,122,106.9,122V1039.8A106.9,106.9,0,0,0,2545.1,933H2318.9A106.9,106.9,0,0,0,2212.1,1039.8Z" transform="translate(-227.7 -724.3)"/><rect class="cls-9" x="2030.1" y="275.8" width="352.9" height="501.63"/><rect class="cls-8" x="2125.3" y="324.1" width="162.5" height="23.11"/><rect class="cls-28" x="2125.3" y="716.7" width="162.5" height="31.3" rx="15.7" ry="15.7"/><rect class="cls-8" x="2068.1" y="389.1" width="98.8" height="12.61"/><rect class="cls-43" x="2068.1" y="419.1" width="246.8" height="47.2" rx="23.6" ry="23.6"/><rect class="cls-8" x="2068.1" y="497.2" width="98.8" height="12.61"/><rect class="cls-43" x="2068.1" y="527.2" width="246.8" height="47.2" rx="23.6" ry="23.6"/><rect class="cls-8" x="2068.1" y="599.9" width="98.8" height="12.61"/><rect class="cls-43" x="2068.1" y="629.9" width="246.8" height="47.2" rx="23.6" ry="23.6"/></g><g id="google_máp" data-name="google máp"><path class="cls-8" d="M1705.6,1129.8h358.1c52,0,94.1,49.7,94.1,111v234.9c0,108,107.4,111,107.4,111H1705.6c-52,0-94.1-49.7-94.1-111V1240.7C1611.5,1179.5,1653.6,1129.8,1705.6,1129.8Z" transform="translate(-227.7 -724.3)"/><polygon class="cls-29" points="1788.9 804 1503 804 1645.9 661.1 1788.9 804"/><path class="cls-28" d="M2006.4,1191.3l-302.6,302.6V1217a25.8,25.8,0,0,1,25.8-25.8Z" transform="translate(-227.7 -724.3)"/><path class="cls-4" d="M2040.8,1218.2v285.9a24.2,24.2,0,0,1-24.2,24.2h0l-143-142.9Z" transform="translate(-227.7 -724.3)"/><path class="cls-44" d="M2040.8,1191.3v27l-310.1,310.1h-1.2a25.8,25.8,0,0,1-25.8-25.8v-8.7l302.6-302.6Z" transform="translate(-227.7 -724.3)"/><path class="cls-1" d="M2040.8,1491.2v13a24.2,24.2,0,0,1-24.2,24.2h0l-143-142.9,30.7-30.7Z" transform="translate(-227.7 -724.3)"/><path class="cls-29" d="M1974.6,1449.2c.1,2,.3,3,.3,3S1974.9,1451.2,1974.6,1449.2Z" transform="translate(-227.7 -724.3)"/><path class="cls-29" d="M2018.5,1349c51.9-58.7,46.4-96.3,46.4-96.3a89.9,89.9,0,0,0-179.9-2.3,6.9,6.9,0,0,0-.1,2.3,89.9,89.9,0,0,0,3.6,25.2c3.3,15.8,11.1,32.5,40.6,74.6,36.6,52.1,43.9,86.7,45.4,96.8C1973.8,1438.3,1974.5,1398.7,2018.5,1349Z" transform="translate(-227.7 -724.3)"/><circle class="cls-7" cx="1754.1" cy="528.3" r="31.2"/></g><g id="facebook_messenger" data-name="facebook messenger"><path class="cls-8" d="M3482.6,1252.2H3185.3c-43.1,0-78.1,42.5-78.1,94.8v200.8c0,92.3-89.2,94.8-89.2,94.8h464.5c43.1,0,78.1-42.5,78.1-94.8V1347C3560.7,1294.7,3525.7,1252.2,3482.6,1252.2Z" transform="translate(-227.7 -724.3)"/><g id="facebook_mesenger" data-name="facebook mesenger"><path class="cls-29" d="M3337.4,1297.1c-83.9,0-151.9,65.5-151.9,146.3,0,42.9,19.2,81.5,49.7,108.3a7.9,7.9,0,0,1,2.7,5.9V1596a7.8,7.8,0,0,0,11,7.2l41.9-18.5a7.9,7.9,0,0,1,5.3-.4,157.3,157.3,0,0,0,41.3,5.5c83.9,0,151.9-65.5,151.9-146.3S3421.3,1297.1,3337.4,1297.1Z" transform="translate(-227.7 -724.3)"/><path class="cls-1" d="M3241.5,1494.2l48.6-75.9c7.3-11.5,23.7-14.2,34.8-5.8l33.9,25.8a18.3,18.3,0,0,0,21.7.1l48.2-35.8c2.8-2.1,6.6,1.1,4.7,3.9l-51.6,78.5c-5.7,8.7-18.2,10.9-27,4.7l-40-28.6a13.8,13.8,0,0,0-15.9,0l-52.5,37.2C3243.4,1500.5,3239.6,1497.2,3241.5,1494.2Z" transform="translate(-227.7 -724.3)"/></g></g><g id="facebook_commnet" data-name="facebook commnet"><path class="cls-8" d="M2099,733.8H1777.7a84.4,84.4,0,0,0-84.4,84.4V996.9a84.4,84.4,0,0,0,84.4,84.4H2099c54.1,0,84.4,100.7,84.4,100.7V818.2A84.4,84.4,0,0,0,2099,733.8Z" transform="translate(-227.7 -724.3)"/><path class="cls-28" d="M2063.1,795.9H1807.4a43.3,43.3,0,0,0-43.3,43.3V962.9a43.3,43.3,0,0,0,43.3,43.3H1890a22.5,22.5,0,0,1,15.9,6.6l27.1,27.1a5.3,5.3,0,0,0,7.6,0l27.1-27.1a22.5,22.5,0,0,1,15.9-6.6h79.6a43.3,43.3,0,0,0,43.3-43.3V839.2A43.3,43.3,0,0,0,2063.1,795.9Z" transform="translate(-227.7 -724.3)"/><path class="cls-9" d="M1827.2,850.3h24.9v6.3h-16.8v6.9h15.5v6.3h-15.5v13.1h-8.2Z" transform="translate(-227.7 -724.3)"/><path class="cls-9" d="M1876.7,877.9q0,1.3.1,2.6a8.1,8.1,0,0,0,.6,2.5h-6.6a6.6,6.6,0,0,1-.3-1.3q-.1-.6-.1-1.3h-.1a4.5,4.5,0,0,1-1.3,1.3l-1.9,1-2.1.6-2.1.2a10.4,10.4,0,0,1-3.2-.5,7.7,7.7,0,0,1-2.6-1.4,6.3,6.3,0,0,1-1.7-2.3,7.3,7.3,0,0,1-.6-3.1,7.6,7.6,0,0,1,.8-3.7,7.1,7.1,0,0,1,2.5-2.6,14.6,14.6,0,0,1,3.9-1.7,41.3,41.3,0,0,1,5.2-1.1l2.6-.4v-2a2.2,2.2,0,0,0-1-2,4.4,4.4,0,0,0-2.4-.6,4.1,4.1,0,0,0-2.6.7,3.9,3.9,0,0,0-1.1,2.5h-6.9a7.3,7.3,0,0,1,1.2-4.1,7.5,7.5,0,0,1,2.7-2.3,9.7,9.7,0,0,1,3.2-1l2.9-.2a28.8,28.8,0,0,1,4.5.3,9.7,9.7,0,0,1,3.4,1.1,6,6,0,0,1,2.2,2.2,6.8,6.8,0,0,1,.8,3.4Zm-6.9-6.8-4.8,1.4a8.9,8.9,0,0,0-2.4,1,2.3,2.3,0,0,0-1.1,2.1,2.3,2.3,0,0,0,1,2.1,4.2,4.2,0,0,0,2.3.6,4.7,4.7,0,0,0,3.5-1.4,5.7,5.7,0,0,0,1.4-4.2Z" transform="translate(-227.7 -724.3)"/><path class="cls-9" d="M1899.1,866.8a7.1,7.1,0,0,0-1.1-1.7l-1.2-1-1.2-.5h-1a5.6,5.6,0,0,0-2.6.5,4.4,4.4,0,0,0-1.7,1.5,7,7,0,0,0-.9,2.3,13.5,13.5,0,0,0-.3,2.9,12.6,12.6,0,0,0,.3,2.9,6.8,6.8,0,0,0,1,2.3,4.8,4.8,0,0,0,1.7,1.5,5.3,5.3,0,0,0,2.5.5,5,5,0,0,0,5.1-3.6l5.1,2.6a12.9,12.9,0,0,1-4.5,4.7,11.8,11.8,0,0,1-6.4,1.8,14.2,14.2,0,0,1-5-.8,10.6,10.6,0,0,1-3.9-2.5,11.3,11.3,0,0,1-2.5-4,15.4,15.4,0,0,1-.9-5.4,14.6,14.6,0,0,1,.9-5.4,11.7,11.7,0,0,1,2.6-4,11.2,11.2,0,0,1,3.8-2.5,12.7,12.7,0,0,1,4.7-.9,14.5,14.5,0,0,1,6.3,1.4,10.3,10.3,0,0,1,4.6,4.6Z" transform="translate(-227.7 -724.3)"/><path class="cls-9" d="M1914.1,872.2a7.2,7.2,0,0,0,.5,2.9,5.6,5.6,0,0,0,1.3,1.9,4.6,4.6,0,0,0,1.7,1l1.8.3,1.8-.3a4.7,4.7,0,0,0,1.4-.8l1.3-1.4,1.4-1.9,5.4,2.8a12.6,12.6,0,0,1-4.8,5.1,14,14,0,0,1-7,1.6,13.2,13.2,0,0,1-5.1-.9,10.7,10.7,0,0,1-3.8-2.5,10.9,10.9,0,0,1-2.3-3.8,14,14,0,0,1-.8-4.8q0-6.5,3.2-10a11.2,11.2,0,0,1,8.8-3.5,12.2,12.2,0,0,1,5.6,1.2,10.2,10.2,0,0,1,3.7,3.2,13,13,0,0,1,2,4.6,23.1,23.1,0,0,1,.6,5.4Zm9.6-4.4a5.5,5.5,0,0,0-.6-2.2,4.6,4.6,0,0,0-1.2-1.4,4.2,4.2,0,0,0-1.5-.8l-1.6-.2-1.6.3a4.7,4.7,0,0,0-1.5.8,4.9,4.9,0,0,0-1.2,1.5,5.8,5.8,0,0,0-.6,2.1Z" transform="translate(-227.7 -724.3)"/><path class="cls-9" d="M1935.9,850.3h7.1v10.5a7.6,7.6,0,0,1,3.4-2.3,10.2,10.2,0,0,1,7,.1,9.2,9.2,0,0,1,3.4,2.1,10.6,10.6,0,0,1,2.4,3.7,14.6,14.6,0,0,1,.9,5.6,19.8,19.8,0,0,1-.8,6.2,11.6,11.6,0,0,1-2.3,4.2,8.9,8.9,0,0,1-3.5,2.4,12,12,0,0,1-4.3.8,7.3,7.3,0,0,1-3.7-.9,8.9,8.9,0,0,1-2.5-2.1h-.1v2.4h-6.9Zm7.1,20.4a16.6,16.6,0,0,0,.3,3,7.4,7.4,0,0,0,.8,2.4,4.5,4.5,0,0,0,1.6,1.6,4.3,4.3,0,0,0,2.3.6,4.2,4.2,0,0,0,2.3-.6,4.6,4.6,0,0,0,1.5-1.6,7.5,7.5,0,0,0,.8-2.4,16.7,16.7,0,0,0,.3-3,21.4,21.4,0,0,0-.3-3.2,7.7,7.7,0,0,0-.8-2.4,3.8,3.8,0,0,0-1.5-1.5,4.8,4.8,0,0,0-2.4-.5,4.4,4.4,0,0,0-2.3.6,4.5,4.5,0,0,0-1.6,1.6,7.4,7.4,0,0,0-.8,2.4A16.6,16.6,0,0,0,1943,870.8Z" transform="translate(-227.7 -724.3)"/><path class="cls-9" d="M1976,857.9a15.5,15.5,0,0,1,5.2.8,11.3,11.3,0,0,1,4.1,2.5,11.4,11.4,0,0,1,2.7,4,15.9,15.9,0,0,1,0,10.9,11.4,11.4,0,0,1-2.7,4,11.3,11.3,0,0,1-4.1,2.5,16.5,16.5,0,0,1-10.4,0,11.3,11.3,0,0,1-4.1-2.5,11.4,11.4,0,0,1-2.7-4,15.9,15.9,0,0,1,0-10.9,11.4,11.4,0,0,1,2.7-4,11.3,11.3,0,0,1,4.1-2.5A15.5,15.5,0,0,1,1976,857.9Zm0,5.5a5.8,5.8,0,0,0-2.6.5,4.9,4.9,0,0,0-1.8,1.5,6.8,6.8,0,0,0-1.1,2.3,12.4,12.4,0,0,0,0,5.8,6.8,6.8,0,0,0,1.1,2.3,4.9,4.9,0,0,0,1.8,1.5,5.8,5.8,0,0,0,2.6.5,5.6,5.6,0,0,0,2.6-.6,5,5,0,0,0,1.8-1.6,7,7,0,0,0,1.1-2.4,12.8,12.8,0,0,0,.3-3,10.6,10.6,0,0,0-.3-2.7,6.6,6.6,0,0,0-1.1-2.2,5,5,0,0,0-1.8-1.5A5.8,5.8,0,0,0,1976,863.4Z" transform="translate(-227.7 -724.3)"/><path class="cls-9" d="M2004.8,857.9a15.5,15.5,0,0,1,5.2.8,11.3,11.3,0,0,1,4.1,2.5,11.4,11.4,0,0,1,2.7,4,15.9,15.9,0,0,1,0,10.9,11.4,11.4,0,0,1-2.7,4,11.3,11.3,0,0,1-4.1,2.5,16.5,16.5,0,0,1-10.4,0,11.3,11.3,0,0,1-4.1-2.5,11.4,11.4,0,0,1-2.7-4,15.9,15.9,0,0,1,0-10.9,11.4,11.4,0,0,1,2.7-4,11.3,11.3,0,0,1,4.1-2.5A15.5,15.5,0,0,1,2004.8,857.9Zm0,5.5a5.8,5.8,0,0,0-2.6.5,4.9,4.9,0,0,0-1.8,1.5,6.8,6.8,0,0,0-1.1,2.3,12.4,12.4,0,0,0,0,5.8,6.8,6.8,0,0,0,1.1,2.3,4.9,4.9,0,0,0,1.8,1.5,5.8,5.8,0,0,0,2.6.5,5.6,5.6,0,0,0,2.6-.6,5,5,0,0,0,1.8-1.6,7,7,0,0,0,1.1-2.4,12.8,12.8,0,0,0,.3-3,10.6,10.6,0,0,0-.3-2.7,6.6,6.6,0,0,0-1.1-2.2,5,5,0,0,0-1.8-1.5A5.8,5.8,0,0,0,2004.8,863.4Z" transform="translate(-227.7 -724.3)"/><path class="cls-9" d="M2022.4,882.9V850.3h7.1v16.4l7.4-8.2h8.7l-8.3,9.3,9,15.1h-8.2l-6-9.8-2.7,2.7v7.1Z" transform="translate(-227.7 -724.3)"/><path class="cls-9" d="M1843.1,921.7a7.1,7.1,0,0,0-1.1-1.7l-1.2-1-1.2-.5h-1a5.6,5.6,0,0,0-2.6.5,4.4,4.4,0,0,0-1.7,1.5,7,7,0,0,0-.9,2.3,13.5,13.5,0,0,0-.3,2.9,12.6,12.6,0,0,0,.3,2.9,6.8,6.8,0,0,0,1,2.3,4.8,4.8,0,0,0,1.7,1.5,5.3,5.3,0,0,0,2.5.5,5,5,0,0,0,5.1-3.6l5.1,2.6a12.9,12.9,0,0,1-4.5,4.7,11.8,11.8,0,0,1-6.4,1.8,14.2,14.2,0,0,1-5-.8,10.6,10.6,0,0,1-3.9-2.5,11.3,11.3,0,0,1-2.5-4,15.4,15.4,0,0,1-.9-5.4,14.6,14.6,0,0,1,.9-5.4,11.7,11.7,0,0,1,2.6-4,11.2,11.2,0,0,1,3.8-2.5,12.7,12.7,0,0,1,4.7-.9,14.5,14.5,0,0,1,6.3,1.4,10.3,10.3,0,0,1,4.6,4.6Z" transform="translate(-227.7 -724.3)"/><path class="cls-9" d="M1863.9,912.9a15.5,15.5,0,0,1,5.2.8,11.1,11.1,0,0,1,6.8,6.5,15.9,15.9,0,0,1,0,10.9,11.4,11.4,0,0,1-2.7,4,11.3,11.3,0,0,1-4.1,2.5,16.5,16.5,0,0,1-10.4,0,11.3,11.3,0,0,1-4.1-2.5,11.4,11.4,0,0,1-2.7-4,15.9,15.9,0,0,1,0-10.9,11.4,11.4,0,0,1,2.7-4,11.3,11.3,0,0,1,4.1-2.5A15.5,15.5,0,0,1,1863.9,912.9Zm0,5.5a5.8,5.8,0,0,0-2.6.5,4.9,4.9,0,0,0-1.8,1.5,6.8,6.8,0,0,0-1.1,2.3,12.5,12.5,0,0,0,0,5.8,6.8,6.8,0,0,0,1.1,2.3,4.9,4.9,0,0,0,1.8,1.5,5.8,5.8,0,0,0,2.6.5,5.6,5.6,0,0,0,2.6-.6,5,5,0,0,0,1.8-1.6,7.1,7.1,0,0,0,1.1-2.4,12.7,12.7,0,0,0,.3-3,10.6,10.6,0,0,0-.3-2.7,6.7,6.7,0,0,0-1.1-2.2,5,5,0,0,0-1.8-1.5A5.8,5.8,0,0,0,1863.9,918.4Z" transform="translate(-227.7 -724.3)"/><path class="cls-9" d="M1881.6,913.5h7.1v2.2a6.2,6.2,0,0,1,1.6-1.4l1.8-.8,1.9-.5h1.8a7.9,7.9,0,0,1,3.7.8,8.2,8.2,0,0,1,2.8,2.4,10.2,10.2,0,0,1,3.7-2.5,11.7,11.7,0,0,1,4.1-.7l2.2.2a7,7,0,0,1,2.5.9,6.3,6.3,0,0,1,2,1.9,5.9,5.9,0,0,1,.8,3.4v18.6h-7.1V923.7a7,7,0,0,0-.8-3.8,3.8,3.8,0,0,0-5.6,0,4.9,4.9,0,0,0-.9,3.1v15H1896V922.7a5.2,5.2,0,0,0-.7-2.9,3.1,3.1,0,0,0-2.8-1.1,3.3,3.3,0,0,0-3,1.2,5,5,0,0,0-.8,2.9v15.2h-7.1Z" transform="translate(-227.7 -724.3)"/><path class="cls-9" d="M1924,913.5h7.1v2.2a6.2,6.2,0,0,1,1.6-1.4l1.8-.8,1.9-.5h1.8a7.9,7.9,0,0,1,3.7.8,8.2,8.2,0,0,1,2.8,2.4,10.2,10.2,0,0,1,3.7-2.5,11.7,11.7,0,0,1,4.1-.7l2.2.2a7,7,0,0,1,2.5.9,6.3,6.3,0,0,1,2,1.9,5.9,5.9,0,0,1,.8,3.4v18.6h-7.1V923.7a7,7,0,0,0-.8-3.8,3.8,3.8,0,0,0-5.6,0,4.9,4.9,0,0,0-.9,3.1v15h-7.1V922.7a5.2,5.2,0,0,0-.7-2.9,3.1,3.1,0,0,0-2.8-1.1,3.3,3.3,0,0,0-3,1.2,5,5,0,0,0-.8,2.9v15.2H1924Z" transform="translate(-227.7 -724.3)"/><path class="cls-9" d="M1971.8,927.2a7.2,7.2,0,0,0,.5,2.9,5.6,5.6,0,0,0,1.3,1.9,4.6,4.6,0,0,0,1.7,1l1.8.3,1.8-.3a4.7,4.7,0,0,0,1.4-.8l1.3-1.4,1.4-1.9,5.4,2.8a12.6,12.6,0,0,1-4.8,5.1,14,14,0,0,1-7,1.6,13.2,13.2,0,0,1-5.1-.9,10.7,10.7,0,0,1-3.8-2.5,10.9,10.9,0,0,1-2.3-3.8,14,14,0,0,1-.8-4.8q0-6.5,3.2-10a11.2,11.2,0,0,1,8.8-3.5,12.2,12.2,0,0,1,5.6,1.2,10.2,10.2,0,0,1,3.7,3.2,13,13,0,0,1,2,4.6,23,23,0,0,1,.6,5.4Zm9.6-4.4a5.5,5.5,0,0,0-.6-2.2,4.6,4.6,0,0,0-1.2-1.4,4.2,4.2,0,0,0-1.5-.8l-1.6-.2-1.6.3a4.7,4.7,0,0,0-1.5.8,4.9,4.9,0,0,0-1.2,1.5,5.7,5.7,0,0,0-.6,2.1Z" transform="translate(-227.7 -724.3)"/><path class="cls-9" d="M1993.5,913.5h7.1v2.2a6.2,6.2,0,0,1,1.6-1.4l1.8-.8,1.9-.5h1.8a9.6,9.6,0,0,1,3.6.6,5.8,5.8,0,0,1,2.3,1.6,5.7,5.7,0,0,1,1.2,2.2,9.9,9.9,0,0,1,.3,2.6v18H2008V922.7a5.2,5.2,0,0,0-.7-2.9,3.1,3.1,0,0,0-2.8-1.1,3.3,3.3,0,0,0-3,1.2,5,5,0,0,0-.8,2.9v15.2h-7.1Z" transform="translate(-227.7 -724.3)"/><path class="cls-9" d="M2033.6,918.4h-4.3v12a2.3,2.3,0,0,0,.6,1.9,2.6,2.6,0,0,0,1.6.5h2.2v5.6l-2,.2h-2.5a8.8,8.8,0,0,1-3.7-.6,5.1,5.1,0,0,1-2.1-1.7,5.8,5.8,0,0,1-1-2.4,15.1,15.1,0,0,1-.2-2.6V918.4h-3.5V914h3.5v-7.1h7.1V914h4.3Z" transform="translate(-227.7 -724.3)"/></g><path class="cls-8" d="M2768.4,732.4h310.4a81.5,81.5,0,0,1,81.5,81.5V986.5a81.5,81.5,0,0,1-81.5,81.5H2768.4c-52.3,0-81.5,97.2-81.5,97.2V813.9A81.5,81.5,0,0,1,2768.4,732.4Z" transform="translate(-227.7 -724.3)"/><rect class="cls-28" x="2523.5" y="72" width="344.7" height="216.4" rx="45.8" ry="45.8"/><path class="cls-9" d="M2830.5,833.2h7l10.3,27.2h-7.3l-1.4-4.3h-10l-1.4,4.3h-7.3Zm7,17.9-3.4-11.2h-.1l-3.4,11.2Z" transform="translate(-227.7 -724.3)"/><path class="cls-9" d="M2850.3,840.1h5.5V842h.1a5.5,5.5,0,0,1,2.5-1.9,8.7,8.7,0,0,1,2.9-.5,8.8,8.8,0,0,1,3.4.6,7.8,7.8,0,0,1,2.8,1.9,9.1,9.1,0,0,1,1.9,3.1,12.5,12.5,0,0,1,.7,4.3q0,5.8-2.3,8.6a7.8,7.8,0,0,1-6.4,2.8,7.3,7.3,0,0,1-5-1.8h-.1v8h-6Zm5.8,10.2a13.8,13.8,0,0,0,.2,2.5,6.2,6.2,0,0,0,.7,2,3.8,3.8,0,0,0,1.3,1.4,3.5,3.5,0,0,0,1.9.5,3.4,3.4,0,0,0,1.9-.5,3.9,3.9,0,0,0,1.3-1.4,6.9,6.9,0,0,0,.7-2.2,17.8,17.8,0,0,0,.2-2.8,10.1,10.1,0,0,0-.2-2,6.1,6.1,0,0,0-.7-1.8,3.8,3.8,0,0,0-1.3-1.3,3.5,3.5,0,0,0-1.9-.5,3.6,3.6,0,0,0-1.9.5,4,4,0,0,0-1.3,1.4,6.2,6.2,0,0,0-.7,2A12.7,12.7,0,0,0,2856.1,850.2Z" transform="translate(-227.7 -724.3)"/><path class="cls-9" d="M2873.6,840.1h5.5V842h.1a5.5,5.5,0,0,1,2.5-1.9,8.7,8.7,0,0,1,2.9-.5,8.8,8.8,0,0,1,3.4.6,7.8,7.8,0,0,1,2.8,1.9,9.1,9.1,0,0,1,1.9,3.1,12.5,12.5,0,0,1,.7,4.3q0,5.8-2.3,8.6a7.8,7.8,0,0,1-6.4,2.8,7.3,7.3,0,0,1-5-1.8h-.1v8h-6Zm5.8,10.2a13.8,13.8,0,0,0,.2,2.5,6.2,6.2,0,0,0,.7,2,3.8,3.8,0,0,0,1.3,1.4,3.5,3.5,0,0,0,1.9.5,3.4,3.4,0,0,0,1.9-.5,3.9,3.9,0,0,0,1.3-1.4,6.9,6.9,0,0,0,.7-2.2,17.8,17.8,0,0,0,.2-2.8,10.1,10.1,0,0,0-.2-2,6.1,6.1,0,0,0-.7-1.8,3.8,3.8,0,0,0-1.3-1.3,3.5,3.5,0,0,0-1.9-.5,3.6,3.6,0,0,0-1.9.5,4,4,0,0,0-1.3,1.4,6.2,6.2,0,0,0-.7,2A12.7,12.7,0,0,0,2879.4,850.2Z" transform="translate(-227.7 -724.3)"/><path class="cls-9" d="M2907.8,840.1h6v2.1a7.4,7.4,0,0,1,2.5-1.5,11.1,11.1,0,0,1,3.1-.7v5.3h-.6a10.8,10.8,0,0,0-3.8,1,2.4,2.4,0,0,0-1.1,2.3v11.8h-6Z" transform="translate(-227.7 -724.3)"/><path class="cls-9" d="M2927.2,851.5a6,6,0,0,0,.4,2.4,4.6,4.6,0,0,0,1.1,1.6,3.8,3.8,0,0,0,1.4.8l1.5.2,1.5-.2,1.2-.7,1.1-1.1,1.2-1.6,4.5,2.3a10.5,10.5,0,0,1-4,4.2,11.7,11.7,0,0,1-5.9,1.4,11,11,0,0,1-4.2-.8,8.9,8.9,0,0,1-3.1-2.1,9.1,9.1,0,0,1-1.9-3.2,11.6,11.6,0,0,1-.7-4q0-5.4,2.7-8.4a9.3,9.3,0,0,1,7.3-2.9,10.1,10.1,0,0,1,4.7,1,8.5,8.5,0,0,1,3.1,2.6,10.9,10.9,0,0,1,1.7,3.8,19.3,19.3,0,0,1,.5,4.5Zm8-3.7a4.6,4.6,0,0,0-.5-1.9,3.8,3.8,0,0,0-1-1.2,3.5,3.5,0,0,0-1.3-.6l-1.3-.2-1.3.2a3.9,3.9,0,0,0-1.2.7,4.1,4.1,0,0,0-1,1.2,4.8,4.8,0,0,0-.5,1.7Z" transform="translate(-227.7 -724.3)"/><path class="cls-9" d="M2942.6,840.1h6.4l3.5,14.3h.1l3.5-14.3h6.3l-6.9,20.3h-6Z" transform="translate(-227.7 -724.3)"/><path class="cls-9" d="M2965.1,837.8v-4.6h6v4.6Zm6,2.3v20.3h-6V840.1Z" transform="translate(-227.7 -724.3)"/><path class="cls-9" d="M2980.9,851.5a6,6,0,0,0,.4,2.4,4.6,4.6,0,0,0,1.1,1.6,3.8,3.8,0,0,0,1.4.8l1.5.2,1.5-.2,1.2-.7,1.1-1.1,1.2-1.6,4.5,2.3a10.5,10.5,0,0,1-4,4.2,11.7,11.7,0,0,1-5.9,1.4,11,11,0,0,1-4.2-.8,8.9,8.9,0,0,1-3.1-2.1,9.1,9.1,0,0,1-1.9-3.2,11.6,11.6,0,0,1-.7-4q0-5.4,2.7-8.4a9.3,9.3,0,0,1,7.3-2.9,10.1,10.1,0,0,1,4.7,1,8.5,8.5,0,0,1,3.1,2.6,10.9,10.9,0,0,1,1.7,3.8,19.3,19.3,0,0,1,.5,4.5Zm8-3.7a4.6,4.6,0,0,0-.5-1.9,3.8,3.8,0,0,0-1-1.2,3.5,3.5,0,0,0-1.3-.6l-1.3-.2-1.3.2a3.9,3.9,0,0,0-1.2.7,4.1,4.1,0,0,0-1,1.2,4.8,4.8,0,0,0-.5,1.7Z" transform="translate(-227.7 -724.3)"/><path class="cls-9" d="M2996.3,840.1h6.2l2.7,14.3h.1l3-14.3h6.4l2.7,14.3h.1l3.2-14.3h6.2l-6.8,20.3h-5.8l-2.9-13.2h-.1l-3,13.2h-5.9Z" transform="translate(-227.7 -724.3)"/><polygon class="cls-8" points="2598.3 171.8 2601.8 179 2609.7 180.1 2604 185.7 2605.4 193.5 2598.3 189.8 2591.2 193.5 2592.6 185.7 2586.9 180.1 2594.8 179 2598.3 171.8"/><polygon class="cls-8" points="2638.4 171.8 2641.9 179 2649.8 180.1 2644.1 185.7 2645.4 193.5 2638.4 189.8 2631.3 193.5 2632.6 185.7 2626.9 180.1 2634.8 179 2638.4 171.8"/><polygon class="cls-1" points="2695.9 163.3 2702.2 176.1 2716.2 178.1 2706.1 188 2708.5 202 2695.9 195.4 2683.3 202 2685.7 188 2675.5 178.1 2689.6 176.1 2695.9 163.3"/><polygon class="cls-8" points="2752.5 171.8 2756 179 2763.9 180.1 2758.2 185.7 2759.5 193.5 2752.5 189.8 2745.4 193.5 2746.8 185.7 2741 180.1 2748.9 179 2752.5 171.8"/><polygon class="cls-8" points="2788.1 171.8 2791.6 179 2799.5 180.1 2793.8 185.7 2795.1 193.5 2788.1 189.8 2781 193.5 2782.4 185.7 2776.6 180.1 2784.5 179 2788.1 171.8"/><path class="cls-8" d="M2980.2,979.4l-34.3-42.5a35,35,0,1,0-6.5,4.5l34.7,43Zm-68.3-44.5a26.7,26.7,0,1,1,35.3-13.3A26.7,26.7,0,0,1,2911.9,934.9Z" transform="translate(-227.7 -724.3)"/></g></svg>