<svg xmlns="http://www.w3.org/2000/svg" xmlns:xlink="http://www.w3.org/1999/xlink" width="3787.8" height="3723.6" viewBox="0 0 3787.8 3723.6"><defs><style>.cls-1{fill:#97a3fe;}.cls-2{fill:#b7c4f7;}.cls-3{fill:#dbe0fe;}.cls-4{fill:url(#radial-gradient);}.cls-5{fill:url(#radial-gradient-2);}.cls-6{fill:url(#radial-gradient-3);}.cls-7{fill:url(#linear-gradient);}.cls-8{fill:#bcc1f8;}.cls-9{fill:#f33;}.cls-10{fill:url(#radial-gradient-4);}.cls-11{fill:url(#radial-gradient-5);}.cls-12{fill:url(#radial-gradient-6);}.cls-13{fill:url(#radial-gradient-7);}.cls-14{fill:url(#radial-gradient-8);}.cls-15{fill:url(#radial-gradient-9);}.cls-16{fill:url(#radial-gradient-10);}.cls-17{fill:url(#radial-gradient-11);}.cls-18{fill:url(#radial-gradient-12);}.cls-19{fill:url(#radial-gradient-13);}.cls-20{fill:url(#radial-gradient-14);}.cls-21{fill:url(#radial-gradient-15);}.cls-22{fill:url(#radial-gradient-16);}.cls-23{fill:url(#radial-gradient-17);}.cls-24{fill:url(#radial-gradient-18);}.cls-25{fill:url(#radial-gradient-19);}.cls-26{fill:url(#radial-gradient-20);}.cls-27{fill:url(#radial-gradient-21);}.cls-28{fill:url(#radial-gradient-22);}.cls-29{fill:url(#radial-gradient-23);}.cls-30{fill:url(#radial-gradient-24);}.cls-31{fill:url(#radial-gradient-25);}.cls-32{fill:url(#radial-gradient-26);}.cls-33{fill:url(#radial-gradient-27);}.cls-34{fill:url(#radial-gradient-28);}.cls-35{fill:url(#radial-gradient-29);}.cls-36{fill:url(#radial-gradient-30);}.cls-37{fill:url(#radial-gradient-31);}.cls-38{fill:url(#radial-gradient-32);}.cls-39{fill:url(#radial-gradient-33);}.cls-40{fill:url(#radial-gradient-34);}.cls-41{fill:url(#radial-gradient-35);}.cls-42{fill:url(#radial-gradient-36);}.cls-43{fill:url(#radial-gradient-37);}.cls-44{fill:url(#radial-gradient-38);}.cls-45{fill:url(#radial-gradient-39);}.cls-46{fill:url(#radial-gradient-40);}.cls-47{fill:url(#radial-gradient-41);}.cls-48{fill:url(#radial-gradient-42);}.cls-49{fill:url(#radial-gradient-43);}.cls-50{fill:url(#radial-gradient-44);}.cls-51{fill:url(#radial-gradient-45);}.cls-52{fill:url(#radial-gradient-46);}.cls-53{fill:url(#radial-gradient-47);}.cls-54{fill:url(#radial-gradient-48);}.cls-55{fill:url(#radial-gradient-49);}.cls-56{fill:url(#radial-gradient-50);}.cls-57{fill:url(#radial-gradient-51);}.cls-58{fill:url(#radial-gradient-52);}.cls-59{fill:url(#radial-gradient-53);}.cls-60{fill:url(#radial-gradient-54);}.cls-61{fill:url(#radial-gradient-55);}.cls-62{fill:url(#radial-gradient-56);}.cls-63{fill:url(#radial-gradient-57);}.cls-64{fill:url(#radial-gradient-58);}.cls-65{fill:url(#radial-gradient-59);}.cls-66{fill:url(#radial-gradient-60);}.cls-67{fill:url(#radial-gradient-61);}.cls-68{fill:url(#radial-gradient-62);}.cls-69{fill:url(#radial-gradient-63);}.cls-70{fill:url(#radial-gradient-64);}.cls-71{fill:url(#radial-gradient-65);}.cls-72{fill:url(#radial-gradient-66);}.cls-73{fill:url(#radial-gradient-67);}.cls-74{fill:url(#radial-gradient-68);}.cls-75{fill:url(#radial-gradient-69);}.cls-76{fill:#f6fc06;}.cls-77{fill:#06015f;}.cls-78{fill:#fff;}.cls-79{fill:url(#linear-gradient-2);}.cls-80{fill:url(#linear-gradient-3);}.cls-81{fill:url(#linear-gradient-4);}.cls-82{fill:url(#linear-gradient-5);}.cls-83{fill:url(#linear-gradient-6);}.cls-84{fill:url(#linear-gradient-7);}.cls-85{fill:url(#linear-gradient-8);}.cls-86{fill:url(#linear-gradient-9);}</style><radialGradient id="radial-gradient" cx="2093.78" cy="675.22" r="278.5" gradientUnits="userSpaceOnUse"><stop offset="0" stop-color="#004acc"/><stop offset="0.01" stop-color="#004acd"/><stop offset="0.35" stop-color="#0757e1"/><stop offset="0.68" stop-color="#0b5eee"/><stop offset="1" stop-color="#0c61f2"/></radialGradient><radialGradient id="radial-gradient-2" cx="2066.51" cy="597.47" r="67.73" xlink:href="#radial-gradient"/><radialGradient id="radial-gradient-3" cx="2121.04" cy="606.18" r="67.73" xlink:href="#radial-gradient"/><linearGradient id="linear-gradient" x1="2096.83" y1="1139.05" x2="2093.57" y2="915.55" gradientUnits="userSpaceOnUse"><stop offset="0" stop-color="#06015f"/><stop offset="0.58" stop-color="#004acc"/><stop offset="0.59" stop-color="#004acd"/><stop offset="0.73" stop-color="#0757e1"/><stop offset="0.87" stop-color="#0b5eee"/><stop offset="1" stop-color="#0c61f2"/></linearGradient><radialGradient id="radial-gradient-4" cx="1571.26" cy="1987.95" r="37.95" xlink:href="#radial-gradient"/><radialGradient id="radial-gradient-5" cx="1567.54" cy="1977.35" r="9.23" xlink:href="#radial-gradient"/><radialGradient id="radial-gradient-6" cx="1574.97" cy="1978.54" r="9.23" xlink:href="#radial-gradient"/><radialGradient id="radial-gradient-7" cx="685.77" cy="1931.77" r="37.95" xlink:href="#radial-gradient"/><radialGradient id="radial-gradient-8" cx="682.06" cy="1921.18" r="9.23" xlink:href="#radial-gradient"/><radialGradient id="radial-gradient-9" cx="689.49" cy="1922.37" r="9.23" xlink:href="#radial-gradient"/><radialGradient id="radial-gradient-10" cx="940.77" cy="2112.15" r="37.95" xlink:href="#radial-gradient"/><radialGradient id="radial-gradient-11" cx="937.06" cy="2101.56" r="9.23" xlink:href="#radial-gradient"/><radialGradient id="radial-gradient-12" cx="944.49" cy="2102.75" r="9.23" xlink:href="#radial-gradient"/><radialGradient id="radial-gradient-13" cx="1290.64" cy="2290.52" r="37.95" xlink:href="#radial-gradient"/><radialGradient id="radial-gradient-14" cx="1286.92" cy="2279.93" r="9.23" xlink:href="#radial-gradient"/><radialGradient id="radial-gradient-15" cx="1294.35" cy="2281.12" r="9.23" xlink:href="#radial-gradient"/><radialGradient id="radial-gradient-16" cx="1001.32" cy="2383.38" r="37.95" xlink:href="#radial-gradient"/><radialGradient id="radial-gradient-17" cx="997.6" cy="2372.78" r="9.23" xlink:href="#radial-gradient"/><radialGradient id="radial-gradient-18" cx="1005.03" cy="2373.97" r="9.23" xlink:href="#radial-gradient"/><radialGradient id="radial-gradient-19" cx="870.67" cy="2661.5" r="37.95" xlink:href="#radial-gradient"/><radialGradient id="radial-gradient-20" cx="866.96" cy="2650.91" r="9.23" xlink:href="#radial-gradient"/><radialGradient id="radial-gradient-21" cx="874.39" cy="2652.09" r="9.23" xlink:href="#radial-gradient"/><radialGradient id="radial-gradient-22" cx="1199.15" cy="2972.61" r="37.95" xlink:href="#radial-gradient"/><radialGradient id="radial-gradient-23" cx="1195.44" cy="2962.01" r="9.23" xlink:href="#radial-gradient"/><radialGradient id="radial-gradient-24" cx="1202.87" cy="2963.2" r="9.23" xlink:href="#radial-gradient"/><radialGradient id="radial-gradient-25" cx="1374.92" cy="3122.1" r="37.95" xlink:href="#radial-gradient"/><radialGradient id="radial-gradient-26" cx="1371.2" cy="3111.51" r="9.23" xlink:href="#radial-gradient"/><radialGradient id="radial-gradient-27" cx="1378.63" cy="3112.7" r="9.23" xlink:href="#radial-gradient"/><radialGradient id="radial-gradient-28" cx="2068.71" cy="3181.61" r="37.95" xlink:href="#radial-gradient"/><radialGradient id="radial-gradient-29" cx="2065" cy="3171.02" r="9.23" xlink:href="#radial-gradient"/><radialGradient id="radial-gradient-30" cx="2072.43" cy="3172.2" r="9.23" xlink:href="#radial-gradient"/><radialGradient id="radial-gradient-31" cx="2144.61" cy="2847.79" r="37.95" xlink:href="#radial-gradient"/><radialGradient id="radial-gradient-32" cx="2140.89" cy="2837.19" r="9.23" xlink:href="#radial-gradient"/><radialGradient id="radial-gradient-33" cx="2148.32" cy="2838.38" r="9.23" xlink:href="#radial-gradient"/><radialGradient id="radial-gradient-34" cx="1861.49" cy="2718.67" r="37.95" xlink:href="#radial-gradient"/><radialGradient id="radial-gradient-35" cx="1857.78" cy="2708.07" r="9.23" xlink:href="#radial-gradient"/><radialGradient id="radial-gradient-36" cx="1865.21" cy="2709.26" r="9.23" xlink:href="#radial-gradient"/><radialGradient id="radial-gradient-37" cx="2430.66" cy="2549.33" r="37.95" xlink:href="#radial-gradient"/><radialGradient id="radial-gradient-38" cx="2426.94" cy="2538.74" r="9.23" xlink:href="#radial-gradient"/><radialGradient id="radial-gradient-39" cx="2434.37" cy="2539.93" r="9.23" xlink:href="#radial-gradient"/><radialGradient id="radial-gradient-40" cx="2005" cy="2362.67" r="37.95" xlink:href="#radial-gradient"/><radialGradient id="radial-gradient-41" cx="2001.28" cy="2352.08" r="9.23" xlink:href="#radial-gradient"/><radialGradient id="radial-gradient-42" cx="2008.72" cy="2353.26" r="9.23" xlink:href="#radial-gradient"/><radialGradient id="radial-gradient-43" cx="2600.07" cy="1987.95" r="37.95" xlink:href="#radial-gradient"/><radialGradient id="radial-gradient-44" cx="2596.35" cy="1977.35" r="9.23" xlink:href="#radial-gradient"/><radialGradient id="radial-gradient-45" cx="2603.78" cy="1978.54" r="9.23" xlink:href="#radial-gradient"/><radialGradient id="radial-gradient-46" cx="3191.24" cy="1857.37" r="37.95" xlink:href="#radial-gradient"/><radialGradient id="radial-gradient-47" cx="3187.52" cy="1846.77" r="9.23" xlink:href="#radial-gradient"/><radialGradient id="radial-gradient-48" cx="3194.95" cy="1847.96" r="9.23" xlink:href="#radial-gradient"/><radialGradient id="radial-gradient-49" cx="2986.88" cy="2276.25" r="37.95" xlink:href="#radial-gradient"/><radialGradient id="radial-gradient-50" cx="2983.16" cy="2265.65" r="9.23" xlink:href="#radial-gradient"/><radialGradient id="radial-gradient-51" cx="2990.59" cy="2266.84" r="9.23" xlink:href="#radial-gradient"/><radialGradient id="radial-gradient-52" cx="2660.07" cy="2282.37" r="37.95" xlink:href="#radial-gradient"/><radialGradient id="radial-gradient-53" cx="2656.35" cy="2271.77" r="9.23" xlink:href="#radial-gradient"/><radialGradient id="radial-gradient-54" cx="2663.78" cy="2272.96" r="9.23" xlink:href="#radial-gradient"/><radialGradient id="radial-gradient-55" cx="3206.31" cy="2963.2" r="37.95" xlink:href="#radial-gradient"/><radialGradient id="radial-gradient-56" cx="3202.59" cy="2952.61" r="9.23" xlink:href="#radial-gradient"/><radialGradient id="radial-gradient-57" cx="3210.02" cy="2953.79" r="9.23" xlink:href="#radial-gradient"/><radialGradient id="radial-gradient-58" cx="3195.06" cy="3307.44" r="37.95" xlink:href="#radial-gradient"/><radialGradient id="radial-gradient-59" cx="3191.34" cy="3296.85" r="9.23" xlink:href="#radial-gradient"/><radialGradient id="radial-gradient-60" cx="3198.77" cy="3298.04" r="9.23" xlink:href="#radial-gradient"/><radialGradient id="radial-gradient-61" cx="1229.12" cy="3374.15" r="37.95" xlink:href="#radial-gradient"/><radialGradient id="radial-gradient-62" cx="1225.41" cy="3363.55" r="9.23" xlink:href="#radial-gradient"/><radialGradient id="radial-gradient-63" cx="1232.84" cy="3364.74" r="9.23" xlink:href="#radial-gradient"/><radialGradient id="radial-gradient-64" cx="2884.63" cy="2863.03" r="11.75" xlink:href="#radial-gradient"/><radialGradient id="radial-gradient-65" cx="2883.48" cy="2859.75" r="2.86" xlink:href="#radial-gradient"/><radialGradient id="radial-gradient-66" cx="2885.78" cy="2860.12" r="2.86" xlink:href="#radial-gradient"/><radialGradient id="radial-gradient-67" cx="2918.59" cy="2773.21" r="11.75" xlink:href="#radial-gradient"/><radialGradient id="radial-gradient-68" cx="2917.44" cy="2769.93" r="2.86" xlink:href="#radial-gradient"/><radialGradient id="radial-gradient-69" cx="2919.74" cy="2770.3" r="2.86" xlink:href="#radial-gradient"/><linearGradient id="linear-gradient-2" x1="2773.83" y1="1859.66" x2="3024.81" y2="1927.69" gradientTransform="translate(1728.5 3251.7) rotate(-90)" gradientUnits="userSpaceOnUse"><stop offset="0.15" stop-color="#06015f"/><stop offset="0.18" stop-color="#1d0863"/><stop offset="0.28" stop-color="#6c2071"/><stop offset="0.37" stop-color="#ab337c"/><stop offset="0.45" stop-color="#d94084"/><stop offset="0.5" stop-color="#f54989"/><stop offset="0.54" stop-color="#ff4c8b"/><stop offset="0.56" stop-color="#ff558e"/><stop offset="0.65" stop-color="#ff7a98"/><stop offset="0.74" stop-color="#ff97a1"/><stop offset="0.83" stop-color="#ffaba7"/><stop offset="0.91" stop-color="#ffb8ab"/><stop offset="1" stop-color="#ffbcac"/></linearGradient><linearGradient id="linear-gradient-3" x1="5262.44" y1="-106.24" x2="5526.76" y2="-34.6" gradientTransform="translate(517.3 5835) rotate(-90)" xlink:href="#linear-gradient-2"/><linearGradient id="linear-gradient-4" x1="2659.74" y1="1543.35" x2="3122.53" y2="1668.78" gradientTransform="translate(6018.2 2611.4) rotate(180)" gradientUnits="userSpaceOnUse"><stop offset="0" stop-color="#a3afff"/><stop offset="0.07" stop-color="#a8b4ff"/><stop offset="0.15" stop-color="#b8c2ff"/><stop offset="0.25" stop-color="#d2d9ff"/><stop offset="0.29" stop-color="#e0e6ff"/><stop offset="0.39" stop-color="#d6dcfd"/><stop offset="0.57" stop-color="#bcc1f8"/><stop offset="0.58" stop-color="#b7bcf8"/><stop offset="0.78" stop-color="#7776f6"/><stop offset="0.93" stop-color="#4e4bf4"/><stop offset="1" stop-color="#3f3af4"/></linearGradient><linearGradient id="linear-gradient-5" x1="4063.47" y1="-1021.15" x2="4210.47" y2="-981.31" gradientTransform="translate(210 -4007.7) rotate(90)" gradientUnits="userSpaceOnUse"><stop offset="0" stop-color="#a3afff"/><stop offset="0.07" stop-color="#a8b4ff"/><stop offset="0.15" stop-color="#b8c2ff"/><stop offset="0.25" stop-color="#d2d9ff"/><stop offset="0.29" stop-color="#e0e6ff"/><stop offset="0.39" stop-color="#d6dcfd"/><stop offset="0.57" stop-color="#bcc1f8"/><stop offset="0.65" stop-color="#9b9deb"/><stop offset="0.82" stop-color="#5d57d4"/><stop offset="0.94" stop-color="#362cc5"/><stop offset="1" stop-color="#271bbf"/></linearGradient><linearGradient id="linear-gradient-6" x1="1369.01" y1="2704.83" x2="1734.27" y2="2803.83" gradientTransform="translate(2370.6 3757.7) rotate(180)" xlink:href="#linear-gradient-4"/><linearGradient id="linear-gradient-7" x1="377.79" y1="1011.33" x2="876.53" y2="1011.33" gradientTransform="matrix(0.89, -0.46, 0.46, 0.89, -239.01, 402.13)" xlink:href="#linear-gradient-4"/><linearGradient id="linear-gradient-8" x1="664.68" y1="441.84" x2="617.07" y2="371.36" gradientTransform="translate(2951.6 -447.3) rotate(90)" xlink:href="#linear-gradient-2"/><linearGradient id="linear-gradient-9" x1="3049.84" y1="1762.06" x2="3010.08" y2="1703.2" gradientTransform="matrix(0.17, -0.99, 0.99, 0.17, 290, 2915.01)" xlink:href="#linear-gradient-2"/></defs><title>ladipage3</title><g id="smoke"><path class="cls-1" d="M2026.7,979.6s-62.6,397.7-314.8,454.9-380.9-118.6-602.5-98.1-356.7,17.8-453.7,189.1-244.6,106.1-419.5,272.2c-45.7,43.4-90.8,170.8-123.4,368.6Q103,2226,94.8,2294.3c-32.5,271.1,3774.9,81.6,3774.9,81.6s-.2-4.9-.9-14c0-.6-.1-1.3-.1-1.9l-.2-2.1-.2-2.3-.2-1.9-.2-2v-1.2c-.1-1.2-.2-2.5-.4-3.7l-.3-2.7-.2-2.4-.4-3.7-.2-2.2-.6-5.1c-.4-3-.7-6-1.1-9l-.5-3.8h0l-.5-3.9-.5-3.5v-1.1l-.2-1.5-.3-2.1-.4-2.8c-19.6-136.7-89.7-439-336.1-679.1-329.1-320.7-588.4-209.6-737.2-181.9-488.6,90.8-639-459.2-639-459.2" transform="translate(-86.3 -147.1)"/><path class="cls-2" d="M2026.7,979.6c-1.4,62.8-14.9,399.8-195.2,466.2-198.7,73.2-312.3,156.2-529.6,56.9s-345.3-34-498.4,65c-47.9,31-83.8,67.4-114,103h0c-28.3,33.4-51.6,66.1-75,93.2h0l-.9,2c-6.1,13.1-21.9,38.2-60.2,64.8h0c222.3-6.4,1033.6-40,1444.1-57.3,290,54,1701.9,376.6,1705.7,225,0-1.4,16.9-18.6,16.9-20,.3-63-101.7-156.4-146.2-179.9h0c-71.9-37.8-177.7-54.4-238.7-147.9-98.8-151.4-237.4-247.3-454.7-148.1s-363.8,39.2-517.5-106.5c-177.7-168.4-221.1-368.8-230.9-416.6Z" transform="translate(-86.3 -147.1)"/><path class="cls-3" d="M2060.1,983.3c-9.2,37.5-10.6,120.7-13.3,213.5a700.3,700.3,0,0,1-8.1,90.2h0c-.7,7.5-31.7,329.7-358.8,334.4-23.8.3-45.8.1-66.1-.7-116.8-4.5-181.3-25.2-236.7-36.5-62.5-12.7-113.4-13.4-214.3,34.8a164.9,164.9,0,0,1-35.7,18c-37.2,13.1-84.9,13.1-155.7-15.6-126.3-51.1-221.9-3.2-281.8,49.2h0c-28.3,33.4-51.6,66.1-75,93.2h0l-.9,2c-6.1,13.1-21.9,38.2-60.2,64.8h0c-36.6,25.4-93.8,52-182.8,70.5q-27.9,5.8-60,10.4C203.2,1927.1,142,2034,112.9,2166.2c-8.9,40.3-14.7,83-18,126.1C71.7,2481.3,79.8,2815.2,322,3160.4h0q14.5,21.8,30.2,43.1c144.8,196.5,366.1,358.8,637.8,474.1,291,123.5,639.8,193.1,1014.9,193.1,945,0,1723.6-441.9,1828.8-1073.6,39.2-171.4,46.4-310.9,36-423.3a.1.1,0,0,0,0-.1q-.4-6-.9-11.9c0-.6-.1-1.3-.1-1.9l-.2-2.1-.2-2.3-.2-1.9-.2-2v-1.2l-.4-3.7-.3-2.7-.2-2.4-.4-3.7-.2-2.2-.6-5.1c-.4-3-.7-6-1.1-9l-.5-3.8h0l-.5-3.9-.5-3.5v-1.1l-.2-1.5-.3-2.1-.4-2.8c-23.1-158.9-83.7-285.7-142.2-324.1-10.7-7-21.3-11.1-31.5-11.8-104.6-7.9-279.9-38.1-401.5-242.1a309,309,0,0,0-29-41,250.6,250.6,0,0,0-59.3-51.8c-33.9-21.1-69.6-31.5-103.4-35.4-84.4-9.9-156.8,20.1-158.7,20.9h0a517,517,0,0,0-77.6,33.4c-238.9,125.6-462.5-118.8-546-218.3-28.9-34.4-56.9-69.7-88-116.1-43.7-65.3-92.9-145.5-103.2-333.8Z" transform="translate(-86.3 -147.1)"/><path class="cls-1" d="M2132,1091.7,2098.7,1251l-47.8-155.5c6-6.7,13.1-14.4,19.7-20.5s19.4-12.7,23.1-14.3c0,0,3.5,5,18.4,14.3A91.9,91.9,0,0,1,2132,1091.7Z" transform="translate(-86.3 -147.1)"/></g><g id="Rocket"><path class="cls-4" d="M2145.3,383.5a441.2,441.2,0,0,0-51.6-34.9,441.2,441.2,0,0,0-51.6,34.9c-102.7,80.6-168.6,205.9-168.6,346.5a444.6,444.6,0,0,0,3.4,55.1,439,439,0,0,0,90.4,216.6,386.9,386.9,0,0,1,126.4-147.6,386.9,386.9,0,0,1,126.4,147.6,439.4,439.4,0,0,0,93.8-271.7C2313.9,589.4,2248,464.2,2145.3,383.5Zm74.8,515.1A442,442,0,0,0,2093.8,789a442,442,0,0,0-126.4,109.7,382.5,382.5,0,0,1-34.2-109,388,388,0,0,1-4.6-56.2c0-1.1,0-2.3,0-3.4,0-130.9,65.3-246.6,165.1-316.2,99.8,69.6,165.1,185.3,165.1,316.2,0,1.1,0,2.3,0,3.4a388,388,0,0,1-4.6,56.2A382.5,382.5,0,0,1,2220.1,898.7Z" transform="translate(-86.3 -147.1)"/><path class="cls-5" d="M2038.7,623.8l83.1-99.7a82.6,82.6,0,0,0-65,151.5l28.7-57.3Z" transform="translate(-86.3 -147.1)"/><path class="cls-6" d="M2130.7,528,2102,585.3l46.8-5.5-83.1,99.7a82.6,82.6,0,0,0,65-151.5Z" transform="translate(-86.3 -147.1)"/><path class="cls-7" d="M2212.7,1062.4a394.5,394.5,0,0,0-119.1,71.6,394,394,0,0,0-114.7-65.6,395.2,395.2,0,0,1,114.8-171.7A395.6,395.6,0,0,1,2212.7,1062.4Z" transform="translate(-86.3 -147.1)"/></g><g id="map"><path class="cls-8" d="M2563.2,2759.7c-5.9-11.5-11.9-22.9-17.6-34.5s-17.5-21.5-28.6-30c-4-3-9.6-4.9-14.7-5.4-8.2-.8-15.3-3.9-22.2-8l-24.8-14.5c-1.1-2.8-3.1-5-5.5-2s.4,4,2.8,4.8c.1,9.3.8,18.7.1,27.9-1.2,17.9-11.4,30.5-26.9,37.9a420.7,420.7,0,0,1-48.9,19.5,263.2,263.2,0,0,0-43,18c-9.3,5-19.3,8.7-29.2,12.4s-19.5-1.7-23.3-9.9c-5.2-11.1-10.2-22.3-15.2-33.5s-11.5-20.8-22.5-27c-4.6-2.6-8.4-6.4-12.6-9.7-.3-.9-.3-2.1-.9-2.8-10.3-11.3-14-24.9-15.9-39.9s-9.7-27.4-25.8-32.2c-6.1-1.8-8.8-.1-9.5,6.1s1.6,13.4,6.8,18.9a350.8,350.8,0,0,1,23.9,27.9c5.2,6.8,8.9,14.7,13.2,22.1,3.1,5.4,5.8,11.1,9.3,16.2s8.9,9.9,12.6,15.3a88.2,88.2,0,0,1,8.8,16.6c3.1,7.6,4.9,15.8,8.1,23.4,5,11.7,15.1,18.9,26.9,19.6,14.6.9,29.4-1.7,44.2-2.8l8-2.1H2355a38.2,38.2,0,0,0,2.9,3.9c14.9,15.6,15.2,18,3.6,36.3l-1.2,1.6c-20.7,30.7-41.5,61.4-62.1,92.1-11.4,17.1-23,34-33.5,51.7-7.6,12.9-13.7,26.7-7.6,42.4l1.7,10q0,4,0,8l-1.7,10c-3.2,13.5-6.5,27-12.3,39.7s-11.6,28.9-22.8,40.5c-8.2,8.6-15.7,18-23.4,27.1s-13.3,15.6-19.7,23.7c-8.4,10.7-17.2,21.1-24.5,32.5s-13.9,24.9-21,37.3c-5.3,9.2-11,18.1-16.6,27.2h0c-3.5,2.5-7.3,4.7-10.3,7.6a94.9,94.9,0,0,1-34.6,21.1,36.4,36.4,0,0,0-10.4,5.8c-9.5,7.6-18.9,15.4-30.7,19.4h-5.8c-2.7-3.3-5.4-6.5-8-9.8-5.2-6.6-3.6-14.5-4.3-22q0-6,0-12,0-16,0-32l-1.5-8.1c-2.4-8.5-3.3-17.8-7.3-25.4-8.3-15.8-18.3-30.6-27.3-46-7.6-13.2-13.8-27-15.9-42.4l-1.7-8q0-7,0-14l1.7-10q0-5,0-10l.4-4,7.6-44v-2.1l.2.2c2.5-.5,5-1,1.8-4.1l1.5-14q0-3,0-6l-1.5-14c3.2-3,.7-3.5-1.8-4.1l-.2.2v-2.1c-1.1-17.3-9.3-31-22.7-41.2-7.3-5.6-10.8-12.1-11.4-20.8l-1.5-14.1c1.1-9.7-4-16.2-11.4-21.5-4.5-3.3-9.4-6.2-13.3-10-7.9-7.8-17.2-12.8-27.6-16.1l-10.1,1.4c-11.8,2.7-24.5,3.4-35.2,8.4-17,8.1-34.5,12.7-52.7,16.1h-14l-16-1.6-4-.3c-18.4-2-31.3-12.5-39.6-28.1-12.2-23.1-15.7-48.6-18.6-74.2q0-37-.1-74c.2-21.9,5.9-43,11.4-63.9,4.4-16.9,10.3-33.5,21.6-47.4,2.7-3.3,4.9-7,7.3-10.5h0c7.3-6.7,14.1-13.9,22-19.8,9.6-7.3,20.1-13.5,30.2-20.1l22.2-4.8c16.8-3.4,34.2-4,50.7-9.5,12.6-4.2,25.2-8.5,38-12,16-4.3,31.2-3.1,46,5.8,17.3,10.3,33.4,22.9,53.3,28.6,9.6,2.8,18.8,5.8,29.1,5.8,13.9,0,27.8,1,41.7,1.8,7.3.4,14.5,1.6,21.8,1.9,30.8,1.2,60.8-4,90.7-10.3,5.3-1.1,10.6-3,13.1-8.3,3.4-7,6-14.4,9.7-23.5-5.7.6-9.4.4-12.6,1.5-5.3,1.8-10.4,4.5-15.6,6.6-8.3,3.4-16.8,8-25.9,5.6-13.1-3.4-26.9-5.9-37.7-15-7.6-6.4-14.3-13.8-21.2-20.9-2.4-2.5-4-6.1-9.9-4.4,3,6.8,5.9,13,8.6,19.3s2.9,15.1-3.2,21.2-14.2,9.4-23.6,7.3-10-9.9-11.5-16.9-1.5-13.2-2.4-19.7c-1.7-12.2-3.2-24.7-11.9-34.3-11.5-12.6-25-22.7-41.7-27.7-.3-.1-.9.7-2.2,1.7,2.4,2.6,5,5.1,7.2,7.8s5.3,5.7,6,9c2.7,12.3,4.8,24.7,6.7,37.2,1.1,7.4-2.7,12.9-8.5,16.9s-11.2,7.2-16.8,10.7-10.9,3-16-.5a29.5,29.5,0,0,1-12.7-18.4c-3.7-16.1-8-32.2-12.2-48.2-1.7-6.7-6.3-10.8-12.9-12.7-10.9-3.1-20.9-.4-30.5,4.8s-16,15-23,23.3c-19.6,23.5-41.7,43.8-68.6,58.6-6,3.3-12.1,5.3-18.9,5.3-2-2.4-4-2.4-6,0h-4c-2.2-1.2-4.9-1.9-6.5-3.7-4-4.5-7.6-9.5-11.3-14.3q0-5,0-9.9l8.3-23.9,1.3-6.2q0-2,0-4l-1.4-6.2-.7-11.8q0-7,0-14c-.1-6,4.2-9,8.2-12.2l4-.4h4l6,.3c8.9.2,17.8.7,26.7.4s10.5-4.8,8.4-11.9a32.6,32.6,0,0,0-3.1-7.1c-3.8-6.4-7.9-12.7-11.8-19.1-.3-9.4,3.7-16.4,12-21a43.2,43.2,0,0,0,3.9-2.8c7-.9,14.1-1.3,19.9-6.1,2.7-1.1,6.1-1.5,8-3.4,12-11.8,25.7-22.1,32.9-38.1a62.9,62.9,0,0,1,6.2-10.2c6.8-9.6,16.8-12.9,27.8-11.9s21.4,3.6,32.1,5.4a32.1,32.1,0,0,0,5,.1c4.1,3.1,8.3.3,12.5.2,8.6-.2,17.3.1,25.9-.3,10.2-.5,18-5,17.5-17.1-.3-7.8,3.8-13.2,10.4-16.9,3.2-1.8,6.5-3.4,9.8-5,8.1-4.1,13.4-9.8,11.9-19.6s2.5-15.3,8.6-21.2c3.7-3.5,6.4-8,10.9-13.9-4.8.5-7.1.3-9.1,1-6.3,2.1-12.5,4.6-18.7,6.9-10.7,4-17.2.3-17.5-10.9s.6-20.5,1.4-30.7,2.3-23.4,3.7-37.4c-8.2,8.2-13.3,15.6-15,24.9s-3.3,19.6-4.8,29.4c-2.9,18.3-6.2,36.6-5.6,55.3a107.4,107.4,0,0,1-1.8,20.7c-2.8,17.2-17,26.7-34,23.1-12.9-6.6-19.2-18.3-23.2-31.4-2.1-6.7-4.8-12.2-12.8-12.8l-8.1,5.8c-11.7,7.5-21.6,5-27.5-7.2a64.4,64.4,0,0,1-6.3-28.6l8.1-29.9c.3-4.5.7-9,.7-13.5,0-2.6-1-5.2-1.1-7.8-.6-15,4.5-20.6,19.7-20.7,5.9,0,11.9-.6,15.7-4.9,7.5-8.6,15.9-16.6,18.7-28.7,5.2-22.9,18.9-39.8,39.4-51,23.8-13.1,49.8-20.2,76.3-24.9,7.8-1.4,16.5.9,24.5,2.7a279.8,279.8,0,0,1,29.4,8.9c14.5,5.1,26,14.1,35.1,26.7,6.3,8.6,14,15.9,25.6,17.7,4.8.7,9.4,3.1,14.2,4.6s10.8,1.2,15.4-3.6c12.6-13.2,27.4-22.4,45.7-26.5,10.9-2.5,21.2-7.5,31.8-11.5,5.7-2.1,9-6.3,11-12.1,3.3-9.6,6.9-11.6,16.4-8.8,5,1.5,9.6,4.2,14.3,6.8s7.1,4.9,10.9,7c6.7,3.8,12.2,1.3,14.4-6.2,2.7-9.2,2.6-17.8-1.9-26.9a46.6,46.6,0,0,1-4.3-28.7c.6-3.6.1-7.3.2-11,.2-6.4,4.8-13.5,9.6-15.2s13.4.4,17.5,6.5c5.7,8.5,10.8,17.4,16.5,26.6,3.3-2.2,3.3-6,4.5-9.2,5.8-15.8,11.2-17.8,26.3-10.2,6.7,3.4,11.7,8.5,15.9,14.6a97.1,97.1,0,0,0,12,14.5c5.6,5.5,8.3,5.5,15.1,2s8.6-7.2,3.4-13-12.8-12.5-19.4-18.5a52.5,52.5,0,0,0-5.7-4c-11.1-7.7-14.5-16.3-11.5-29.1a13.1,13.1,0,0,1,6.9-9.2c16.9-9,29.5-22.8,38.6-39.2,11.2-20.2,27.7-32.5,49.9-37.8l32-7.9c0-4.5,1.6-10.1-.4-14-3-6-7.9-11.3-12.8-16.2-3.1-3.1-7.8-3.4-12.2-1.7-11.2,4.4-22.9,4-34.5,3-13.2-1.1-23.8-7.7-31.4-18.6-4.3-6.2-2.8-8.9,4.5-11.2,9.8-3.1,19.4-6.6,29.1-9.9l4-.2c2.7-.1,5.6.4,7.9-.5,8.6-3.2,15.8-.2,22.3,4.8,9.6,7.5,20.4,12.3,31.5,16.8a57,57,0,0,1,5.4,2.6c7.1,3.7,11,9.4,11,17.6,0,3.2,0,6.5,0,10.9,12.7-5.2,24.7-4.6,36.6-4.2,7.8.3,14.8,2.7,20.8,8.3s5.8,9.2,3.7,14.4a78.9,78.9,0,0,1-8.6,15.4c-4.5,6.5-9.8,12.5-14.6,18.8a20.6,20.6,0,0,0-3.3,6.1c-1.4,4.4,1.3,7.2,5.8,5.7a62.7,62.7,0,0,0,13.6-6.1,179.8,179.8,0,0,0,16.8-12.4c9.7-7.8,20.9-11.4,33-12.2a126.4,126.4,0,0,1,16-.1c11.1.6,19.2-4.4,25.6-12.8,9.7-12.7,26.1-17.7,40.7-12.1,4.5,1.7,8.4,4.1,10,9,.2.6.6,1.2.9,1.8,3.2,9.4,9.5,14.9,19.7,15.4a46.7,46.7,0,0,1,7.9.8c5.5,1.2,11.3,2.2,12.4,9.4.2,1.1,1.7,2,2.9,3.4,1.4-.2,3.1-.1,4.4-.8,12.9-6.8,26-13.3,32.6-27.6,3.2-7.1,8.5-13.5,7.4-22.2-.5-3.8,2-6.3,6.1-6.2,13.6.3,27.2.4,40.8,1.4,6.9.5,13.6,2.9,20.4,3.8a29.1,29.1,0,0,0,11.8-.4c14.9-4.4,29.7-9.5,44.6-13.9,13-3.9,26.1-7.6,39.3-10.6,4-.9,8.6,0,12.8.7,12,2.1,24,4.5,36,6.7,4,2.8,8,2.9,11.9,0,4.8-1,9.7-1.7,14.3-3.2a65.1,65.1,0,0,0,12.8-5.4c6.3-3.6,12.4-7.5,18.4-11.7,12.5-8.6,24-18.8,39.6-22.1-4.1-6.8-7.7-13.1-11.5-19.3-4.8-7.7-2.5-15.1.8-22.5a4.6,4.6,0,0,1,1.8-2.3c8.1-3.7,16.8-4.1,25.3-3.1,6.1.7,9.3,5.5,12.2,10.7,5.6,9.8,6.3,18.7-2.6,27.1-.8.8-.9,2.4-1.4,3.7l.3,2c13.3-.5,26.5-1.3,39.8-1.6,19.4-.4,36.5,4.4,49,21,6.1,8.2,13.6,15.3,23.1,20.1,5.2,2.6,9.3,7.4,13.6,11.5a7.8,7.8,0,0,1,2.2,5.3c-.5,11.9-.5,23.9-2.4,35.7s-11.2,16.7-23,14.3c-9-1.8-17.8-4.4-26.8-6.7-2.8,7.1-1.5,10.3,5.5,12.5,3.2,1,6.6,1.3,9.5,2.8,5.1,2.7,7.3,7.5,7.4,13.2s-.1,13.3,0,20-4.5,11.6-8.1,16.7c-9,12.7-18.7,24.9-27.4,37.8-3.7,5.4-6.8,11.7-8.1,18-1.6,8.4-7,13.5-12.8,18.3-3.8,3.1-8.5,5.1-13,7.1-8.3,3.8-12,10.1-10.2,18.9,2.7,12.9,5.8,25.8,8.2,38.8,5.2,28.6,10.4,57.2,14.9,86,1,6.3-1.2,13-1.9,19-5.1,2.2-8.4,1.1-11.9-1.8a175.2,175.2,0,0,1-37.5-42.1A85.4,85.4,0,0,0,3179,2129c-6-5.9-9.5-12.9-10-21.1-.7-12.1-1.1-24.3-.8-36.5.4-18.1,4.3-35.7,9.1-53.2,1.3-5,5.4-9.5,2.1-16.3-2.1,2.4-4.1,4.3-5.7,6.5s-4.2,6.8-6.7,9.9-7.6,4.4-12,.4-6.6-12.8-7.8-19.9c-.6-3.6-.4-7.3-.5-11l-1.2-3.2-2.9,2.9c-9.2,8.3-14.6,19-16.7,30.9-.8,4.4,1.2,9.9,3.5,14,8.4,15,6.3,29.3-1.6,43.5-4.1,7.3-14.2,10.7-21.6,7.1-3.7-1.8-5.2-5-5.2-9,0-5.6,0-11.2,0-16.5-9-2.3-15.7.8-20.3,8.8-3,5.2-5.3,10.8-8.9,15.5a79.8,79.8,0,0,1-13.2,13.1c-6.1,4.9-13.9,8.2-19,13.9-11.2,12.2-19.2,26.2-18.6,43.7.2,6.6,4.1,11.2,9.2,14.6a39.9,39.9,0,0,0,9,4.3c17.9,6.3,31.5,18.2,42,33.6,2.7,4,5.1,9,5.5,13.7,1.3,16.4,7.1,31.7,10.9,47.5.5,1.9,1.4,3.8,1.4,5.8.1,19,1,38-.4,56.9-.5,7.4-5.6,14.7-9.5,21.5-2.8,4.8-6.8,9-10.7,13.1s-7.5,9.1-12.3,11.2c-13.3,5.7-16.7,16.7-16.7,29.1a95.8,95.8,0,0,0,3.8,26.4c2.7,9.5,7.6,18.4,11,27.8,2.8,7.7,5.7,15.7,6.6,23.7s-7.2,12.3-14.2,7.4a35.5,35.5,0,0,1-9-9.2c-4.3-6.4-8.9-12.1-15.3-16.8s-9.2-9.5-13.5-14.6c-5.5-6.7-9.8-7.9-17.9-4.3-6,2.7-9.9,1.6-14.4-4l-8.7-10.9c-4.9-6-6.3-6.5-16-4.9-1.9,6.8,1.6,11.2,6.8,14.7,1.9,1.3,4.3,1.8,6.5,2.5,13.6,4.8,21.2,14.2,22,28.9.6,11.6,1.5,23.2,1.8,34.7.2,6.8,2.1,12.7,5.1,18.9a319,319,0,0,1,14.6,35.9c1.5,4.4.9,9.7.4,14.5-1,10.2-2,20.5-4.1,30.5-2.7,13.3-9.5,24.6-18.9,34.5-7.8,8.2-14.7,17.1-22.2,25.5a81.9,81.9,0,0,1-9.6,8.6c-7.6,6.1-15.2,6.9-23.5.8-5.6-4.1-11.2-4.7-17,.8s-10.7,7.7-16,11.7c-8.3,6.3-9.4,15.2-2.8,23.3,2.9,3.6,7.4,6.4,9.2,10.4,7.7,16.9,14.8,34,21.8,51.2,1.2,2.9,1.1,6.5,1.1,9.8.2,11.5.2,11.7-10.8,14.9-6.7,1.9-11.9,5.4-15.8,11.3s-6.2,6.5-13.6,4.5-14.4-4.7-19.4-11.2a20.3,20.3,0,0,0-9.8-6.8c2,9.5,4.2,19,5.9,28.6a85.5,85.5,0,0,0,11.4,29.4c7.7,12.9,12.6,27.1,12,42.5a26.2,26.2,0,0,1-.4,6c-3.3,11.8-6.2,16.2-17.5,8.6l-10.1-10.1-1.7-1.9c-4.6-11.6-8.8-23.4-13.9-34.8-3.3-7.4-8.1-14.2-12.2-21.2l-1.9-4-4.2-6h0l-8.1-12.1c-8.9-16.1-5.9-33.6-5.9-50.7,0-2.8,1.5-5.7,2.6-8.4,2.2-5.6,1.6-10.6-3.4-14.2s-8.6-6.4-13.5-8.1c-16.3-5.6-30.2-15-42.7-26.5-4.8-4.4-8-10.4-12-15.7-5.2-6.9-10-14-15.7-20.5-3.6-4.1-14.4-1.8-18.9,3.2l-32,35.4c-12.5,13.9-20.1,30.4-24.4,48.3-1.8,7.6-1.8,15.8-2.3,23.7-.7,13.2-1.2,26.5-1.7,39.8-3.7,8.1-8.8,15-16.2,20.2h-12l-7.9-2.3-33.7-36-10.2-14h0Zm-444.6-279.5c3.5-1.1,6.8-1.7,9.5-3.2,15.4-8.1,31.5-8.5,48.4-6.2,11.8,1.6,23.9.7,35.8.4,3.2-.1,6.3-1.9,9.4-3.1s7.2-4.7,7.1-9.8-2.9-7.3-6.8-8.9a110.2,110.2,0,0,0-11.3-3.7c-12.8-3.5-24.6-8.2-31.2-21-.1-.3-1.2-.1-2.6-.2-1.8,4.6-3.3,9.7-5.6,14.4-5.4,11-10.7,12.5-21.1,6.5-2.6-1.5-5-3.4-7.7-4.7-6.8-3.2-13.6-6.3-19.9-9.1-9.5,6.9-9.4,15.8-8.9,24.2S2116.7,2471,2118.6,2480.2Zm215.8,135.3c-3.9,15.4.4,19.5,11,24.3a42.7,42.7,0,0,0,5.6,1.9l21,6c8,2.4,8.5,2.3,15.5-6.5C2370.1,2632.4,2350.3,2629.2,2334.5,2615.5Zm-213.9-481.8-.9,3.1,9.5,4.6c3.9,1.8,8.1,3.1,11.6,5.4,15.5,10.1,19.1,4.2,23.2-8.9.1-.3-.2-.6-.4-1.4s-3.9-.9-5.5-.3c-7.3,2.8-14.1.9-21.3-1.1C2131.7,2133.8,2126,2134.2,2120.6,2133.7ZM2393.1,2033c-.2.1-1.1.3-1.2.7a5.3,5.3,0,0,0-.5,2.9,209.6,209.6,0,0,1,3.7,46.5c0,1,.5,2,1.2,4.9C2405.7,2067.6,2409,2049.6,2393.1,2033Z" transform="translate(-86.3 -147.1)"/><path class="cls-8" d="M1080.7,2597.7c-.3,5.8-1,11.7-.9,17.5s.9,14.6,1,21.8c0,1.9-.8,3.9-1.5,5.7a13,13,0,0,1-10.3,8.4c-3.8.6-8.1-4.3-9.7-10a74.3,74.3,0,0,0-19.1-33.3c-5.9-5.9-11.4-12.3-17.8-17.5a80.3,80.3,0,0,0-19.3-11.7,18.8,18.8,0,0,0-13.6.3c-21.7,10-43.2,20.6-60.4,37.7-3.9,3.9-7.1,8.7-10.2,13.4s-7.5,11.8-10.9,17.9c-5,9.1-9.7,18.1-5.1,29.2,3.3,7.9,8.4,13.5,16.2,16.6a11.5,11.5,0,0,0,7.4.4c6.5-2.3,12.9-5.2,19.2-8.1s12.3-6.5,18.9-8.8a26.1,26.1,0,0,1,31.4,13c3,6.1-.4,11.5-3.2,16.8-4.3,8.2-8.9,16.3-12.7,24.7s-4,9.9,6.5,13.8c6.5,2.4,13.1,4.9,18.8,8.6,9.1,6,15.4,14.4,17.7,25.5s7.4,23.2,16.8,32.1c11.9,11.3,32.2,15.2,48.3.1,7.9-7.4,16.4-14.7,25.7-20.1,14.8-8.7,31.3-9.9,48.2-6.6,9.4,1.8,19,2.8,28.4,4.6,11.8,2.2,21.6,8.1,30.1,16.5s15.5,16.8,24.6,23.2c11.9,8.3,24.6,15.3,39.2,18.8,6.1,1.5,11.6,6.2,17.1,9.8,10.6,6.9,21.4,13.2,33.6,16.9,10.2,3.1,14.8,10.2,14.1,21.2-.4,6.5.9,13,1.5,19.6,0,4.5.5,8.3,5.4,10.6,15.6,7.2,31,14.5,48.9,13.5l16.1,1.5,14,2h4c15.6,3,31.5,5.2,44,16.3,5.7,5.1,10.9,10.6,16.7,15.6s11.4,14.2,13.8,22.7c1.7,6,1,13.3-.8,19.3a47.4,47.4,0,0,1-14.6,22.2c-5.3,4.6-9.8,10-14.9,14.7a55.1,55.1,0,0,0-17.8,33.4l-.2,6q0,2,0,4l1.5,8.1.5,11.9c.4,17.7-.5,35.1-7.2,51.9-5.4,13.6-14.5,22.2-28.7,26.5-11,3.3-22.8,4.7-32.3,12.3-16.3,13.1-27.7,29.2-32.1,49.9-1.2,5.8-1.6,11.9-3.3,17.5-5.8,18.7-18.6,31-36.8,37.6a76.7,76.7,0,0,0-7.3,3.1c-.8.4-1.4,1.4-2.7,2.9,1.5,2.6,3.5,5.2,4.6,8.2,2.8,7,5.7,14.1,7.6,21.3s-2.6,14.5-9.2,18.2c-13.2,7.4-24.4,18.5-40.1,21a43.5,43.5,0,0,0-.7,4.6c-.3,9.3-3,14.1-11.4,16.1-5.6,1.3-7.2,4.4-9,9-4.3,11.2-4,22.2,1.2,32.8a33.2,33.2,0,0,0,9.5,11c6,4.6,8.6,9.5,5.9,17.1-3.3,9.3-6.4,18.8-8.9,28.4-3.4,13.1-2.3,25.9,5.3,37.4,5.1,7.7,11.1,14.8,17.2,21.9s14.6,15.5,21.3,23.7a55.9,55.9,0,0,1,7.8,13.8c3.2,7.6.6,11.4-7.4,11.9-20.4,1.3-38.9-3.1-57-13.4s-32.1-25.3-44.1-42.2c-10.6-15-20-30.6-25.1-48.4s-9-33.1-13.1-49.8c-5.3-21.6-8.5-43.3-8.5-65.7,0-29.3-1.2-58.5-1.5-87.8-.1-10.9,1.2-21.9,1.6-32.8a316.3,316.3,0,0,0-3.5-55.6c-2.6-18-3.4-36.2-6.5-54.1s-7.6-35.8-18.9-51.7c-13.1-18.4-28.7-33.8-45.4-48.6-19.8-17.5-37.5-36.9-43.6-63.9a64.7,64.7,0,0,1-1.8-10.7c-1.2-22.3-.1-44.4,8.2-65.6,5.3-13.6,11-27,15.9-40.7a44.3,44.3,0,0,0,2.3-15.5c-.2-11.3-6.9-17.7-19.7-19.5-3.9-.6-8.4-1.3-11.9.1-6.7,2.7-12.2.2-16.6-3.4a270.3,270.3,0,0,1-24-22.4c-6.2-6.4-11.5-13.7-17.4-20.4s-11.1-12.3-16.6-18.6c-15.9-18.2-36.6-29.6-58.3-39.1-10-4.4-19.9-8.5-28.8-15.3-6-4.6-13.2-7.6-19.9-11.2-8.4-4.5-14.8-11.2-20.1-18.9-12.7-18.7-22.2-39-29.8-60.4s-16.4-40.5-24.8-60.7c-3.7-8.9-8-17.5-12-26.2-1.8-4-4.3-6.8-10-4.8-.2,1.8-1,4.1-.7,6.2,1.9,16.1,3.9,32.2,6,48.2a119.1,119.1,0,0,0,3,13.6c4.5,17.5,5.5,35.3,4.6,53.1-9.8,3.4-13.2,2.1-16.9-6.2a13.4,13.4,0,0,1-.7-1.9c-4.8-17.3-11.5-33.8-19.2-49.9-12-25.2-19.1-52.1-25.6-79.1-3.1-12.9-6-25.7-5.5-39.1s-.5-25.3.1-38c.7-15.6,2.4-31.1,3.6-46.6a26.5,26.5,0,0,0,.2-3c-.7-20.8,4.3-40.6,9.3-60.5,3.8-15.4,8.5-30.6,10.7-46.2,1.9-13.3,1-27.1,1.3-40.7,0-2-1.2-4-.9-5.9,1.4-11.5-3-22.2-4.7-33.3-2.6-17-6.3-34-13.6-49.5-6.4-13.7-13.7-27.4-22.8-39.4-11.2-14.8-24.4-28.1-37.3-41.4-4.4-4.6-10.6-7.4-16-11.1-2-2.6-3.9-2.5-5.9,0-4.9.7-9.8,1.8-14.7,1.9-9.8.3-12.7-2-15.9-11.4-.9-2.7-1.7-5.5-2.6-8.1-5.1-.9-6.8,2.5-9,5.5-4.4,6.2-8.5,12.7-13.5,18.4a79.6,79.6,0,0,1-38.3,24c-19.2,5.5-37.5,12.9-56.2,19.6a31.7,31.7,0,0,1-9.6,1.7c-8.6.3-17.1.5-25.5,3.3-6.7,2.2-14.3,2.4-21.6,2.6s-11.3-2.6-11-11.4c.4-10.3,5.5-18.2,13.7-24.2,6.4-4.7,13-9.1,19.1-14.1,9-7.4,20.1-10,30.6-14,7.1-2.7,14.6-4.4,21.8-6.8s16.3-5.7,22.6-12.1,5.4-7.8,2.7-14.3a7.7,7.7,0,0,0-1.3-2.7c-10.8-10.1-9.3-23.4-9.4-36.3-.3-15.9,7-26.3,22.3-31.1a118,118,0,0,0,12.8-5.3,28.9,28.9,0,0,0,13.5-12.2c-4.2-4.1-7.6-8.8-12.2-11.8a27.8,27.8,0,0,1-10-11.6q0-3.9,0-7.9a9.5,9.5,0,0,0,1.7-2.2c4-10.8,11.4-16.9,23.1-18,4.5-.4,8.8-2.3,13.2-3.5a5,5,0,0,0,1.9-.1c9.4-.7,10.1-1.4,12.4-12.1l1.5-4.2.2-4c0-4.3-.3-8.7.1-13,1.6-19.4,10.6-34.3,28.7-42a141.1,141.1,0,0,1,49.2-11.2h14c20.4,1.3,37.7,8.5,51.3,24.3a207.1,207.1,0,0,0,24.7,24.5c21,17.2,42.2,34,61.2,53.5a59.1,59.1,0,0,0,32.7,17.5l4.2-1.2c3.8-.6,7.7-1.1,11.5-2,8.8-2.1,17.6-4.4,26.4-6.6h18c16.6,3.4,30.6,10.4,37.5,27.3,8.8,21.4,23.7,37.9,42.2,51.4l2,3.6c.9,4.5,3.3,7.5,8.1,8.1h0c2.5,9.9,8.1,17.1,17.9,20.7,7.5,2.7,10,1.5,12.4-6.1,1-3,2.6-5.8,4-8.8l20-.2,21.8,8.6,1.9,1.7c9.5,11,11,11,20.5,0l5.9-5.8a96,96,0,0,0,6.8-8.2c.5-.8-.5-2.7-.8-4.1s0-3.9,0-5.9l3.8-2.3,11.9.5c5,1.1,6.1.3,8-6.3a13.7,13.7,0,0,0,.1-1.8c2.3-.6,4.8-1.2,1.9-4.2l4.2-15.9c3.8-.7,7.7-2.2,11.5-2.1,10.5.2,17.5,8.5,15.6,18.7-2.6,13.7-1.4,27.2,1.1,40.6,1,5.4,2.4,11,7.5,14.7,6.7,4.9,13.2,3.8,19.5.1s14.5-4.6,22.2-4a15.1,15.1,0,0,1,12.3,7.5c4.7,7.7,1.9,25.2-5.7,30.1a93.3,93.3,0,0,1-21.3,10.3c-10,3.3-20.8,4.6-30.8,7.9-11.8,3.9-22.3,10.2-28.1,22h0l-5.9,8.1a4.6,4.6,0,0,0-.2,1.7l-6,8.3-1.9,1.8-6.2,4.1-9.8,4.1-6,2.1-10,2.3c-5.8,1.3-11.6,2.5-17.3,4s-7,4-6.7,8.6a38.5,38.5,0,0,0,2.3,11.5c4.4,10.6,14.2,15,23.7,19.8l14,21.9,4,6.3,6,13.7,2.1,6,2.1,6,3.7,8.1,2.2,7.9,3.9,12.1,6,16c1,5.8,1.8,11.6,6.5,16.2l24-22.1,15.7-4.2c13.6-6.1,17.4-15.8,10.9-28a42.5,42.5,0,0,0-2.8-4.1l1.6-29.8,8-32,.4-5.7,4.1-10.2,11.7-6c5.6-1.1,8.4-4.2,7.9-10.1l1.1-6.3,7,4.3c4.5,6.1,11.3,6.9,18,7.9,9.1,1.8,17.5,5,23.8,12.2l4.1,8.2,4.4,19.7c4.3,7.2,4.8,7.4,11,3.8a92.2,92.2,0,0,0,8.5-5.1c7.8-5.8,15.1-5.4,22,1.4l.7,23.9c1.4,7.1,1.7,14.7,4.4,21.2,5.3,12.5,12,24.4,18.1,36.7s14,26.4,19.5,40.2a70.3,70.3,0,0,1,5.1,33.1c-.7,6.9-1,13.8-1.5,20.7v6l-8.2,8-18,.2-15.8-4.4h0c-1.7-2.7-3.8-5.3-5.1-8.2-2.7-5.7-6.5-6.1-12.2-4.5-10.5,2.8-17.7-1.2-23.1-11.4-2.6-4.9-8.8-8.4-13.9-7.8s-6.9,5.3-7.4,10.1q0,2,0,4c1.4,3.2,2.3,6.9,4.4,9.6s6.5,6.6,9.8,9.9c8.4,8.6,8.9,11.3,1.8,21.3a36.2,36.2,0,0,1-9.9,9c-3.2,2.1-6.3,3.7-6.6,7.9h0l-11.9,6h-7.8c-6.4-2.5-12.7-5.1-19.2-7.3-4.4-1.5-8-.8-11.2,3.6-7.1,10.1-15.2,19.3-25.7,26l-4,.3c-13.5.1-17.9,3.1-22.3,15.3-2.4,6.6-4.9,13-7.5,19.5-4.6,11.6-12.4,21.1-20.2,30.6-9.8,11.8-20.6,22.5-34.6,29.4-6.3,3.1-12.2,6.8-18.4,10s-9.4,9.4-10.8,16S1081.5,2590.8,1080.7,2597.7Z" transform="translate(-86.3 -147.1)"/><path class="cls-8" d="M1307.1,1931.5l-1.8-1.8c-2.2-9.4-4.1-10.5-12.6-9.1-5.8,1-11.8.8-17.7,1.2l-4-2h0c.4-8.4-6.7-9.3-12-12.1l-6.1-5.8c-6.9-11.6-6.1-16.6,4-24.2,6.4-2.5,12.4-1.2,17.9,2.2,3.1,1.9,5.6,4.6,8.3,7.1s7.2,4.2,12.2.9c-2.9-7-5.3-13.8-10.6-19.1s-7.4-10.9-4.5-18c.6-1.5.4-3.3.6-4.9,2.3-3,4-6.9,7-8.9,5.3-3.6,11.4-6,17.1-8.9v-2.1c-6.6-2.1-13.2-4.5-19.9-6.2-8.7-2.1-14-8.6-19.7-14.6s-1.5-10.2-2.4-15.3c3.4-4.9,8.8-5.6,14-6s9.3-.2,14-.2l8,2.1,9.9,2.4,10,2,16.1,1.5,13.9.5,14.1,1.5,27.9.4,12.1,1.6c3.2.8,6.3,1.5,9.5,2.4,11.1,3.3,21.3,8,28.4,17.8l.8,8a22.5,22.5,0,0,1-8.2,14.3c-4.8,3.9-9.8,7.6-14.7,11.4l-21.8,8.3-14.5,6.4c8.3.5,8.7.3,14.4-4.1,8.5-1.6,17.3-2,24.2-8.2,5.2-2.1,10.5-4.1,15.6-6.3,11.7-5.2,24.3-6.5,36.7-8.2,7.8-1.1,15.8-.5,23.6-.6,3.3,0,6.6.2,9.9.4l12.2-1,7.8-.6h6c1.9.4,4.1.3,5.7,1.3,8.8,5.8,18.5,5.5,28.3,4.8l6.1-1.6c4.2-.9,8.4-1.5,12.5-2.6,19.4-5.3,38.6-11.8,59.2-9.4l6.1,1.6,10,.3,10,1.7,9.7,2.2c8.7,2.1,17.3,4.7,24.7,10.1,9.3,6.8,11.6,16.1,6.4,26.1l-4.6,8.6c10.1,1.8,10.1,1.9,17.2-1.5,9.1-4.4,18.5-7.4,28.7-7.3l3.9.3c3.3,1.3,6.6,2.8,10,3.8,14.2,4.4,19.8,17.9,11.6,30.2-4.5,6.8-9.8,13.7-16.2,18.7-14.4,11.2-23.6,26.1-29.8,42.4-7,18.1-11.7,37.1-17.4,55.8-2.6,8.6-5.5,16.8-14,22-5,3.1-9.5,7.5-8.1,14.7q0,5,0,10t0,8l-1.8,14c-1.9,7.9-5.4,15-11.8,20.3A81.9,81.9,0,0,1,1641,2128l-8.1,1.6-9.9.3h-4l-4.2,1.5a105.5,105.5,0,0,0-44.4,16c-12.5,7.9-21.5,19.3-28.6,32.3s-13.4,24.4-21,35.9c-5.8,8.8-13.4,16.4-23.8,20.2h-14c-19.3-.7-33.5-9.3-41.3-27.2-3.5-8.1-6-16.6-8.9-25v-2.1q0-5,0-10,0-23,.1-46v-12l1.6-6c1.3-7.8,2.4-15.6,3.9-23.3,2.8-14.2,5.7-28.4,8.6-42.6a78.8,78.8,0,0,0-.1-36.2c-2.2-12.9-7.1-24.3-18.1-32.2l-1.8-1.8c-4.4-7.2-12-10-18.9-13.7-19-10.3-40.6-14.8-59.3-26.1a5.2,5.2,0,0,0-1.9-.3h0l-4.3-13.8q0-9-.1-18c.5-7.6,4.9-13,10.1-18l8.1-5.9h1.9c3.2-.3,5.9-1.3,6.1-5.8l-6.2,3.6-2.1,2c-3.1.3-7-1.2-8.1,3.5-18.9,6.3-30.9,19.8-38.9,37.3-.9,1.9.8,4.9,1.3,7.3s0,2.7,0,4C1313.4,1931.1,1310.6,1932,1307.1,1931.5Zm69.9-63.7-2.1,1.4,2-1.4.5-.8Z" transform="translate(-86.3 -147.1)"/><path class="cls-8" d="M3079.2,3106.1c7.6.5,15.1.9,22.7,1.6,5.3.5,9.5,0,12.5-5.6s7.7-10.8,10.8-16.6c5.3-9.6,13.3-15.8,23.7-18.2,12.3-2.8,25-4.7,36,4.5a39.2,39.2,0,0,1,4.2,4.1c4.4,4.9,10.6,9.2,12.6,15,3.3,9.6,10.4,15.5,16.3,22.8,1.6,2,2.3,4.8,3.7,7,4.8,7.3,14.2,7.3,19,.1a10.9,10.9,0,0,0,1.4-2.7c4.4-13.7,9.2-27.4,13.1-41.3,2.1-7.5,4.3-9.6,11.5-8.2,14.2,2.8,20.2,11.8,17.7,26.3-.5,2.9-.6,5.9-.9,8.8s-.8,5.2-1.3,7.8c-2.6,12-3.9,24.1-2.9,36.4.3,4.1,1.4,8.7,3.6,12.1,6.4,10,13.9,19.3,20.4,29.2,12.3,18.8,24.6,37.6,28,60.5l1.7,10.1q0,13.9,0,27.8l-1.6,8.1-.5,13.9-1.5,6.1c-.7,3.6-1.7,7.1-2.1,10.7-2.4,21-8.7,40.6-18,59.5-13.4,27-34.7,44.7-62.1,55.8-9.4,3.8-17.6,8.6-23.3,17.5-3.1,4.9-7.8,9.1-12.5,12.8-10,8-21.2,12.2-34.3,8.1-1.8-.6-4-.3-6-.3l-4-.2c-6.6-.1-11.8-3.4-16.6-7.6-9.7-8.6-13.7-19.7-13.7-32.4l-1.6-12c-.7-9.2-.8-18.5-2.3-27.6-1.7-10.7-6-20.4-15.8-26.5h0c-3.1-2.8-5.8-6.8-9.5-8.4-17.4-7.5-35-14.5-54.6-11.3l-6.1,1.5c-8.8,1.4-17.6,2.4-26.3,4.3-15.2,3.3-30.8,5.6-45.1,11.3-12.6,5.1-25.3,7.3-38.5,8.9h-12c-8.1,1-11.7-5-15.8-10.2l-.3-6c3.9-10.4,8.4-20.6,11.5-31.3s4.5-20.4,6.7-30.6c3.9-.5,4.1-3.1,3.6-6.2l.3-21.9.2-4,1.9-10v-4l2.2-19.9a50.3,50.3,0,0,0,2.8-6.1c4.3-13.9,9.4-27.4,18.6-39,.6-.7.6-1.9.8-2.8l7.7-7.9c11.7-7,24.5-10.3,37.9-12.9,7.6-1.5,16.4-2.6,22.3-9.2l5.8-3.9,6.1-8.1h0l4-6h0l8.3-10,3.7-3.9,14.1-14.1,1.9-1.8Z" transform="translate(-86.3 -147.1)"/><path class="cls-8" d="M1271.1,2145.5c-.3-1.6-.2-3.4-.8-4.8-5.2-11.4-5.6-12.6-17.3-9h-13.9c-9.1-10.9-4.2-30.6,11-34a78.3,78.3,0,0,0,13.2-3.9c3.5-1.5,6.5-4,9.7-6l2.1-1.9,2.1-1.9,2-1.9c7.4-4.3,11.2-11.4,9.2-18.8a96,96,0,0,0-6.2-16.8c-4.5-9.4-13.4-13.4-23.9-11.3-6.1,1.2-12.1,1.8-17.2-2.4s-13-5.7-20.6-3.7-14.4-2.5-15.4-10.9c-.3-2.6.3-5.4-.1-8a79.7,79.7,0,0,0-2.8-11.4c-2.1-6.6-5.2-12.9-6.6-19.6-2.1-9.9,5.1-25.1,13.6-29.2s15.2-6.8,23.9-5.7l14,5.6c5.5,5.2,11.2,10.4,16.6,15.8,15,14.9,28.6,31.8,49.9,38.7l.9.5c7.1,3.7,11.5,9.4,13.7,17.3,4.8,17.5,14.2,32.7,25,47.2,9.3,12.4,19.5,24.3,26,38.6q0,7,0,14l-2.4,5.9-9.7,6h-12l-6-2.2-8.2-6-1.3,1.4,7.5,18.8-.4,11.9-5.8,8-5.9,2.4c-3.9-.4-7.9-.8-10.1,3.6l-8,6h-11.8l-20-17.7Z" transform="translate(-86.3 -147.1)"/><path class="cls-8" d="M3183.9,2931.4c5.2-1.2,9.3,1,11.5,7a98.7,98.7,0,0,0,5.2,10.6c3.3,6.3,5.9,7.4,12.9,5.4a73.1,73.1,0,0,0,7.5-2.5c8.2-3.4,16.1-2.5,24.2.9a100.4,100.4,0,0,0,15.1,5c15.7,4,28.4,12.2,37.8,25.6,5.7,8.1,12.8,15.3,18.3,23.6,8.4,12.7,15.9,26,23.7,39.1,3.9,6.5,7.7,13.2,11.7,19.7s4.7,11.8,1.6,18c-3.9,8-14.7,10.9-24,6.9s-16.9-9.4-22.4-18.6c-7.6-12.8-17.3-15.2-31.5-9.7a15.2,15.2,0,0,1-13.4-.5c-4.3-2.2-8.7-4.8-13.4-5.8-9-2-13.3-7.8-15.8-16-1.3-4.4-2.2-9.2-4.5-13.1s-5.7-7.1-9.1-10c-5.5-4.7-11.5-8.8-17.3-13.3-2.4-1.8-4.2-4.4-6.8-5.8-15.1-7.9-19.8-22.4-24.1-37.2-1.4-4.7-1.8-9.7-3-14.5-2.6-10.7,0-14.3,10.7-14.7Z" transform="translate(-86.3 -147.1)"/><path class="cls-8" d="M1061.1,2001.6l-3.9-2.1c-7.2-5.8-14.5-4.7-22.1-.7-5.2,2.7-10.7,4.7-16.1,7.1l-9.7-6.2c-1.1-3.1-1.5-6.7-3.4-9.1s-5.5-7.7-11.1-5.3l-3.1.2c-.1-3.6-2.2-5.6-4.9-8s-6.5-6.9-7.6-11a58.1,58.1,0,0,1-1.1-18.4c.4-5.8,1.8-11.5-.3-17.1a9.9,9.9,0,0,0-2.5-.2c-9.6,2.4-18.3,2.4-24.4-7.4-1.1-1.7-3.8-2.4-5.8-3.6h0l-4.3-9.8c0-3.3.1-6.6-.1-9.9-.6-11,5.2-18.9,13.2-25.3,9.6-7.6,20.5-11.8,33-10.9l6,2,5.9,2.4,11.8,10.5,4,9.4,4.1,6.2,8,9.9c3.8,4.4,9,4,14.1,4l12,1.7,8,2.5a1.5,1.5,0,0,0,1.3,0l4.6,5.8,4,3.9c2.1,6.1,4.1,12.3,6.5,18.3,3,7.8,5,16.6,15.3,18.4l1.6,1.6c1.2,1.9,2,4.3,3.7,5.6,7.4,5.8,10.2,13,6.9,22h0l-8.1,10-1.9,1.8c-8.5,2.5-16.9,5.2-25.9,4.4l-3.9-.4Z" transform="translate(-86.3 -147.1)"/><path class="cls-8" d="M1854.8,2333.7c-.5,3.5-2.4,7.5-1.3,10.4,3.3,9-.3,16.1-4.6,23.4-2,1.1-4.1,2-6.1,3.2-5.5,3.3-11.2,5.8-17.8,5.1l-6,.2-4.3,3.7c-3.2,3.7-6.2,7.6-9.7,11s-7.8,3.7-9.9-2.4a30.4,30.4,0,0,1-.3-18.5l.5-6c4.3-7,8.7-13.9,13-20.9a77.2,77.2,0,0,0,5-9.7c2.5-5.8.7-8-7.1-8.9-2.1,6.1-4,12.4-6.5,18.4s-5.8,12.6-8.7,18.9c-8.2,4.1-17.3,3.8-25.1.8-5.7-2.1-9.8-8.3-14.6-12.7q0-4.9,0-9.9c2.1-5.5,4-11,6.2-16.4,5.3-12.8,11.5-24.8,25.7-30,.5-.2.9-.9,2-2.1-.4-2.9-.7-6.4-1.3-9.9-.9-5.2-2.1-10.4-3.1-15.5q-.1-5-.1-10c.1-5.6,1.3-10.4,8.4-10.5l10,.2,37.9,18.4h0c2.6,6.7,5.5,13.3,7.7,20.1a160.6,160.6,0,0,1,4.1,18.1C1850.6,2312.7,1856.7,2322.4,1854.8,2333.7Z" transform="translate(-86.3 -147.1)"/><path class="cls-8" d="M3022.8,2967.7c-.6,3.2-1.7,6.4-1.6,9.5.1,5.8-2.1,8.9-8.1,8.6l-5.9-4.3-1.9-1.9-8.1-6.1c-1.7-3.7-5.1-4.2-8.5-3.8-8.9.9-16.1-2.7-23-7.8-15.6-11.5-26.1-26.2-29-45.6a12.9,12.9,0,0,1,2.1-9c7.4-9.4,15.2-18.3,23-27.3,6.4-7.4,14.8-12,23.4-16.6a106.6,106.6,0,0,0,20.5-13.7c4.6-4,7.6-9.9,10.9-15.2,2.2-3.5,4-7.2,8.9-6.7s7.1,3.8,8.2,7.7c2.9,10.2,4.9,20.7,2.4,31.3-2.1,8.7-4.5,17.3-7.1,25.8-3.4,11.3-1.1,22.1,1.6,33-.3,3.5-.6,7.1-1,10.6C3028.3,2947.1,3020.9,2956.4,3022.8,2967.7Z" transform="translate(-86.3 -147.1)"/><path class="cls-8" d="M2270.3,3179.6c1.6-19.6,6.9-33.4,13.4-46.9,4.7-9.8,9.9-19.5,13.7-29.7,6.5-17.7,12.9-35.5,22.2-52,2.3-4,4.5-8.2,7.5-11.7,7.2-8.4,16.5-6.6,21.3,3.3,3.5,7.3,1.9,14.5.1,21.3s-1.7,15.2,3.4,22.5,4.2,18.1,2,27.1a142.1,142.1,0,0,1-9.8,26c-9.2,19.2-19,38.2-28.5,57.2-3.3,6.6-6.3,12.7-15.4,13.6s-17.4-3.5-22.4-11.6S2269.2,3184.1,2270.3,3179.6Z" transform="translate(-86.3 -147.1)"/><path class="cls-8" d="M2000,1938.8c4.8,2.8,7.8,4.2,10.5,6s5.2,5.3,3,10.1c-5.5,12.3-11.3,15.1-24.4,11.2-3.4-1-6.8-1.7-11-2.8-.6,3.5-.6,6.2-1.6,8.5-1.9,4.1-3.7,8.6-6.7,11.9-5.5,6.2-9.7,5.5-14.4-1.2-2.1-2.9-4.7-5.4-6.7-8.3s-3.4-4.5-3.4-6.7c-.1-5.7-3.6-7.9-7.7-10.6a23.6,23.6,0,0,1-7.9-8.3c-4.2-8.2-7.4-16.8-6.9-26.5.5-12,10.7-20.5,22.6-17.8a87.5,87.5,0,0,1,12.4,3.7c7.8,3.1,14.5.5,20.2-4.4s14.1-8.8,22.8-7.7,17,2.3,25.3,4.1a19.2,19.2,0,0,1,8.5,4.8c5,4.7,5.6,9.9.9,14.9a50.9,50.9,0,0,1-13.4,9.8C2015.7,1932.9,2008.8,1935.2,2000,1938.8Z" transform="translate(-86.3 -147.1)"/><path class="cls-8" d="M3079.1,2512.1c-2-9.7,3.3-16.9,10.1-23.8,10.5-10.7,20.8-21.5,30.8-32.7s12.4-21.8,15.1-34.2c1.4-6.5,2.5-13.2,5.1-19.2a42.3,42.3,0,0,1,10.4-14.1c5-4.4,11.7-2.2,13.4,4.3s6.2,13.8,10.2,20.2c7.8,12.3,8,25.8,6,39.5-1.3,9-8.5,13.9-14.9,19.2s-10.5,8.1-15.5,12.4-11.2,8.2-18.2,9.7l-3,.4c-9.9,1.9-16.6,7.1-19.6,17.2-2.4,8.3-7.9,14.4-15.2,19s-13.5,2.2-14.8-6.2C3078.7,2520.3,3079.1,2516.5,3079.1,2512.1Z" transform="translate(-86.3 -147.1)"/><path class="cls-8" d="M1755.2,2163.8q0,7,.1,14c-3.1,10.3-9.9,18.2-18.2,24.3s-19.7,10.4-31.6,7.5c-7.9-2-15.7-4.2-24.1-2.2-4.3,1-8.2-3.1-8.2-7.9a19.2,19.2,0,0,1,1.5-6.7c2.3-6.1,2.6-11.2-1.4-17.6-7.7-12.3-5.4-21.9,5.1-31.8s29.4-13.2,43.1-6.2c5.3,2.7,10.3,5.9,15.7,8.6A40.6,40.6,0,0,1,1755.2,2163.8Z" transform="translate(-86.3 -147.1)"/><path class="cls-8" d="M1063.1,1815.8l-2.2,15.8-10.9,10.5,6.9,5.9c4.7,5.6,10.3,4.6,16,2l16,1.8,13.3,10.4c4.1,10.7,3.1,15.4-5.5,22.7-3.8,3.2-7.9,5.9-11.9,8.8l-21.9.3h-4a43.9,43.9,0,0,0-4.5-2c-6.5-2.1-10.2-6.6-9.5-13.3s-2.4-12.9-9-17.1-11.3-9.1-16.9-13.8l-10.1-6c-11.2-9.6-10.2-20.5,2.7-28,3.7-2.1,7.5-4,11.2-6l8-2,8-1.9h8l6,1.8,5.9,2.3h0Z" transform="translate(-86.3 -147.1)"/><path class="cls-8" d="M3082.9,3053.7c-14.4,1.4-28.9,3.4-43.3,3.9s-27.2,2.3-40.5-1.8l-14-5.8-33-11.8a25,25,0,0,0-2.9-.7l-24.1-11.9-3.5-2.1-4.5-3.8-3.8-4.1-2.6-5.8.2-6.1c6.1-8.5,15-7.3,24.9-1.2,11.9,7.3,24.7,12.6,37.4,18.1,3.4,1.4,7.5,5.5,11.8,1.3l15.9,3.7,34,6.3,6,1.8h30c3.1.8,6.3,1.5,9.3,2.5,12.1,3.9,13.2,5.7,10.5,15.6h0Z" transform="translate(-86.3 -147.1)"/><path class="cls-8" d="M2329.3,1933.8c-2.2,3-3.7,6.1-6.1,8.2-11.8,10.2-24.2,19.6-35.5,30.3-8.8,8.4-16.5,18.2-24.2,27.7s-7.1,18.5-6.1,28.5c.3,3.3,2.6,6.9,5,9.4a175.6,175.6,0,0,0,16.2,14.7c4.5,3.6,7.4,7.6,6.3,13.6-.7,4.2-3.1,6.1-6.9,4.7a99.1,99.1,0,0,1-32-19.6c-5.1-4.5-6.8-11.3-6.9-18.1-.1-11.3-.4-22.7,0-34,.2-4.8,1.2-10.2,3.6-14.2,5.9-9.6,12.2-19.1,19.6-27.4s16.5-16.4,25.5-23.7c7.4-6,16.5-8.3,26.1-8.2C2321.2,1925.8,2322.5,1926.5,2329.3,1933.8Z" transform="translate(-86.3 -147.1)"/><path class="cls-8" d="M2905.2,2981.8l1.7,10.1.3,9.9-.4,7.8-1.8,2.1c-4.6.8-7.1-2-9.6-5.2-3.9-5.1-8.2-9.9-12.3-14.8l-7.9-8h0l-12-16h0l-4-6h0c-3.7-10.2-7.5-20.4-11.2-30.6-2.6-7.5-4.7-15.2-7.7-22.5s-5.2-13.2-13.2-14.9h0l-6-4.2-5.9-5.8a33.2,33.2,0,0,1-4.3-19.9,12,12,0,0,0,.1-1.8l7.9-2.2,11.8,12.1c7.1,11.3,14.1,22.8,21.5,34,3.8,5.6,8.4,10.7,12.6,16h0c2.7,2.9,4.9,6.6,8.1,8.5,8.4,5,17.2,9.2,25.9,13.7l4.2,13.7v2l1.8,16Z" transform="translate(-86.3 -147.1)"/><path class="cls-8" d="M1103.9,2715.8c-5.3-.1-11-3.2-15.9-8-7.4-7.2-14.5-14.7-21.9-21.9a78.5,78.5,0,0,0-7.6-6.3c-8.5-6.5-17.7-5.6-27.4-3.1a24.3,24.3,0,0,1-13.3-.8c-5.4-1.9-6.3-6.5-2.8-11.2s7.7-7.4,13.5-6.9c8.9.7,17.8,1.8,26.7,2.3,5.5.3,11.3.7,16.5-.7,14.3-4,26.6,0,38.9,7a77,77,0,0,1,19.2,15.6c7,7.8,6.8,14.2.1,22.1S1115.6,2715.6,1103.9,2715.8Z" transform="translate(-86.3 -147.1)"/><path class="cls-8" d="M1212.9,1827.9l-2-4-1.7-6.1q0-3.9,0-7.8l6.2-14,13.7-8.1c15.6.3,21.5,4.5,26.5,18.9,3.5,10.2,8.6,19.3,16.5,26.9,2.3,2.2,3.6,5.4,5.3,8.2.1,14.7-6.2,25-20.2,30.2-11,0-17.3-6.7-22.1-15.6a68.5,68.5,0,0,0-6.3-9.9C1223.5,1840.2,1218.1,1834.1,1212.9,1827.9Z" transform="translate(-86.3 -147.1)"/><path class="cls-8" d="M1233,1941.8c-10.9-7.6-20.3-16.1-26.8-28.3-3.2-5.9-11.3-9.2-17.2-13.7h.1l-.3-6c.1-3.9-.2-7.8.5-11.5.3-1.7,2.5-3.2,3.8-4.7l16,.3c7.6,2,14.5,5.3,18.2,12.5,5.5,10.7,14.1,16.2,25.7,17.6l3.8,2,14.2,9.9h0l3.9,6.2,15.8,8.4c-1.5,7.8-6,11.3-12,13.3-10.7,3.4-21.3,3.3-31.5-1.6Z" transform="translate(-86.3 -147.1)"/><path class="cls-8" d="M3045,3015.9c-3.9,2.5-6.8.8-9-2.6-3.8-5.9-6-12.3-4.8-19.4l1.9-6.1,1.7-10,.2-4,2.2-20,2-8c2.6-3.8,5.2-7.6,7.7-11.4s4.9-3.2,7.7-1.6a39.2,39.2,0,0,1,8,5.8c9.4,9.2,17.5,19.7,18.8,32.9.9,8.8-1.7,18.1-3.3,27.1-.6,3.3-6.6,4.3-10.4,2.2-2.2-1.3-4.1-3.2-7.4-5.7l-9.4,18.4Z" transform="translate(-86.3 -147.1)"/><path class="cls-8" d="M3075.2,2180.8c8.1-3,12.6,1.5,16.6,5,7.2,6.3,14.6,12.6,18.4,22a19.3,19.3,0,0,0,4.5,6.5c12,11.6,16.4,26.1,16.4,42.3,0,12.3.1,24.6-.1,36.9-.1,3.8-1.3,7.5-2.3,13.5-3.4-3.1-5.7-4.5-6.8-6.5-8-13.9-14.6-28.5-16.4-44.5-2-18.1-9.1-33.5-20.3-47.7A45.2,45.2,0,0,1,3075.2,2180.8Z" transform="translate(-86.3 -147.1)"/><path class="cls-8" d="M2854.8,1763.4c13.2-1.3,21.6,7,20.1,19.4-.3,2.4-1.5,5.5-3.4,6.7-13.2,8.8-23.6,21.2-38,28.4-10.4,5.3-18.9,2.8-23-8-1-2.5-1.3-6.1-.2-8.4a219.7,219.7,0,0,1,13.6-25.1C2829.3,1768.2,2842,1763.4,2854.8,1763.4Z" transform="translate(-86.3 -147.1)"/><path class="cls-8" d="M3104.6,2802.4c-4.5,1.7-7.2,1.1-9.5-3-4.6-8.4-9.6-16.5-14.6-24.7-2-3.3-4.8-5.3-9-5.2-8.4.3-13.4-4.6-17.2-11.5-2.9-5.2-6.1-10.3-8.7-15.6-1.8-3.5-4-7.3-4.2-11.1-.6-10.9-.2-21.8-.2-32.2,4.1-2.3,6.2-.7,7.4,1.9,5.7,12,16.2,20,24.4,30,14.6,17.8,25.8,37.8,31.4,60.4C3105.4,2795,3104.6,2798.7,3104.6,2802.4Z" transform="translate(-86.3 -147.1)"/><path class="cls-8" d="M3150.7,2311.7c12.3-2.3,19.2,3.9,23.4,15.6,2.3,6.6,5.8,12.5,5.2,19.9-.4,5.3-2.3,9.1-7.6,10.3-12.6,2.9-21,10.8-26.8,21.9-1.6,3.1-4,4.4-7.4,3.6s-4.4-3.7-4.4-6.9-.3-4.1.3-6c3-10,1.6-19.5-1.2-29.4-1.7-6.2-1.2-13.2-.8-19.8s3.6-8.7,9.7-9.4A91.2,91.2,0,0,1,3150.7,2311.7Z" transform="translate(-86.3 -147.1)"/><path class="cls-8" d="M1172.7,1889.7c-6.3,9.7-11.1,19.7-10.1,31.8a11.4,11.4,0,0,1-2.8,7.9c-4.4,4.5-6.2,9.6-7.5,15.7s-4.4,11.1-7.8,15.8c-5.5,7.7-9.1,8.2-17.9,4.7-1.8-.7-3.7-1.3-5.6-1.9-4-4.6-4.9-9.3-2.5-15.4s3.3-13.2,4.8-19.9l9.8-10.6,12-3.7c3.7-.1,6.3-1.2,6-5.7s-.2-8.4-.3-12.6l.3-3.8c4.7-4.4,4.7-4.4-2.1-8.3,1.6-9.8,4.4-13.3,10.9-13.8,8.3-.6,12.8,3.5,13.1,12C1173.2,1884.5,1172.9,1887.1,1172.7,1889.7Z" transform="translate(-86.3 -147.1)"/><path class="cls-8" d="M1161.1,2127.8c-.2-9.1,3.8-15.5,11.5-20.5s17.6-10.4,27.9-12.4c3.6-.7,7.1-2.5,10.1.8s1,6.7-.7,10a15.2,15.2,0,0,0-.7,3.3c9.4,5.1,15,13.6,19.8,22.7l-.5,8.7c-5.4,2.6-8.9-.5-12.7-2.9s-7.3-4-10.9-5.9c-4.5-.4-7.4,1.4-8.4,5.9l-9.7,7.9-15.8-2C1167.6,2138.5,1161.7,2134.8,1161.1,2127.8Z" transform="translate(-86.3 -147.1)"/><path class="cls-8" d="M1110.7,2737.9c-3-6-.1-8.8,3.1-11.4,7.6-6.4,15.7-12.2,22.7-19.2,10.3-10.3,21.9-11.7,34.8-7s15.9,19.9,4.4,29c-4.6,3.6-10.1,5.3-16,7-10.1,3-20.2,1.1-30.2,3C1123.3,2740.5,1116.5,2738.4,1110.7,2737.9Z" transform="translate(-86.3 -147.1)"/><path class="cls-8" d="M3086.8,2876c-2.4-6.6-5.9-12.3-6.3-18.2-.8-11.7-.4-23.6.3-35.3.4-7,4.7-11.8,12-12.3s12.6,4.5,14.8,9.9c3.4,8.6,7.9,17.7,3.5,27.6a40.2,40.2,0,0,1-2.5,5.3c-2.8,4.4-6.2,8.5-8.7,13.1S3093.7,2873.8,3086.8,2876Z" transform="translate(-86.3 -147.1)"/><path class="cls-8" d="M3153.1,3505.6c6.2-11.7,11.8-13.3,23.9-6.9,7,3.7,12.2,9,14.2,16.9l-.3,16c-3.2,2.2-7.1,3.8-9.4,6.7-6.3,7.9-13.7,8.8-22.5,5l-1.8-1.8c-1.4-4-2.4-8.1-4.3-11.8-3.4-6.7,1.3-13.4-.2-20Z" transform="translate(-86.3 -147.1)"/><path class="cls-8" d="M3385.3,2992.8c-1.4,15.9-8.7,25.8-19,34-1.8,1.4-3.9,2.6-5.8,3.9-4.5,3.1-8.7,3.4-13.9.8-14.6-7.3-14.9-7.9-3.6-19,1.4-1.4,3.2-2.9,3.6-4.7,2.5-10.2,10.9-15.7,17.7-22.2s11.2-5.3,16.2-.7C3383.2,2987.2,3384.4,2991.2,3385.3,2992.8Z" transform="translate(-86.3 -147.1)"/><path class="cls-8" d="M3423.2,3079.8c-6-4.4-6.1-10.4-8.2-15.5s-5-11.4-9.7-16.7c-6.4-7.1-9.9-17.1-13.8-26.2-.8-2,1.6-6.7,3.9-8.4a9.4,9.4,0,0,1,12,.5,32.9,32.9,0,0,1,7.1,9.5,67.4,67.4,0,0,0,11.7,17.2c8.2,8.6,9.4,24,3.1,34.1C3427.9,3076.6,3425.2,3078,3423.2,3079.8Z" transform="translate(-86.3 -147.1)"/><path class="cls-8" d="M1177.2,1831.8c3.3,5.9-1.4,11.6-.6,17.4l-5,9.6c-13.2,2-16.4-.2-18.7-13.1.8-5.4-.9-9.6-5.9-12.1a3,3,0,0,0-.5-.9c-9.9-8.8-9.9-8.8-3.5-20.7l5.9-2.5,13.8.4,12.1,11.8h0l1.9,4Z" transform="translate(-86.3 -147.1)"/><path class="cls-8" d="M3489,3249c.1,5-3.1,9.5-7.8,13.1s-12.6-.5-15.4-5.5a159.7,159.7,0,0,1-10.3-22.5c-1.9-5.3,1.4-10.4,6.7-12.5a22.9,22.9,0,0,1,16.4-.5c4.4,1.5,6.9,4.2,7.7,8.1C3487.6,3235.3,3488.1,3241.6,3489,3249Z" transform="translate(-86.3 -147.1)"/><path class="cls-8" d="M1108.7,1819.7l-3.8,3.9-5.2,4.3c-3,2.5-1.8,4.3,1,5.9l-1.8,3.6-13.8,2.2c-11.4-5.9-11.2-26.6-.7-36,2.2-2,4.4-3.8,6.7-5.7l4-.3,11.9.3,5.8,6.4-2,11.3Z" transform="translate(-86.3 -147.1)"/><path class="cls-8" d="M3115.9,2919.7c1.6-5,.8-9-2.5-13-4.7-5.6-1.6-11.8,5.6-12.8,9.8-1.4,18.2,5,17.9,14.8a236.8,236.8,0,0,1-2.9,28.4,18.6,18.6,0,0,1-4.4,8.6c-2.6,3.1-6.9,2.3-7.9-1.3C3119.5,2936.3,3117.8,2928,3115.9,2919.7Z" transform="translate(-86.3 -147.1)"/><path class="cls-8" d="M3143.7,2947.9c13.8.2,21.4,6.8,23.1,18.6,1,6.9-2.1,10.2-9.1,8.9-5.1-1-9.9-3.1-14.9-4.3a64.8,64.8,0,0,0-10.7-1.2c-3.3-.2-7.5.3-8.4-3.5a13.5,13.5,0,0,1,1.8-9.2C3130.1,2950,3138.3,2949.9,3143.7,2947.9Z" transform="translate(-86.3 -147.1)"/><path class="cls-8" d="M2860.3,1841.5c-6.6,0-12.6-4.2-14.2-10.1s3.7-15.5,9-17.4a65.2,65.2,0,0,1,15.4-3.6c6.9-.6,13.8,10.7,11.2,17.6S2869.5,1841.5,2860.3,1841.5Z" transform="translate(-86.3 -147.1)"/><path class="cls-8" d="M3618.2,3182.4c5.7,13.7-.1,24.4-7.8,34.4-2.6,3.4-17.6,4.4-20.7,1.5-1.5-1.3-2.7-4.3-2.2-6a49.8,49.8,0,0,1,5.8-13.5c3.3-4.9,7.6-9.1,11.5-13.7S3612.7,3181.1,3618.2,3182.4Z" transform="translate(-86.3 -147.1)"/><path class="cls-8" d="M3098.3,2922.8c-7.2,4.1-12.7,7.4-18.5,10.4-1.2.6-3.2-.1-4.7-.4-6.3-1.2-10.4-5.7-14.2-10.2-5.4-6.5-5-9.2,1.4-15s17.5-5.7,23.4.2C3089.8,2911.9,3093.3,2916.7,3098.3,2922.8Z" transform="translate(-86.3 -147.1)"/><path class="cls-8" d="M1311.1,3535.1a107.4,107.4,0,0,1,.1-11c.6-5.5,5.5-10,10.5-10.2s8,2.4,9.4,9.3c.6,2.9,1,6,2.3,8.6,3.2,6.6,1.1,12.3-2.4,17.9s-8.1,7.1-11.7,5.6-8-4.8-8.1-10.3c-.1-3.3,0-6.7,0-10Z" transform="translate(-86.3 -147.1)"/><path class="cls-8" d="M2165.7,1906.8c-5-2.2-10.4-3.8-14.9-6.8-6.4-4.4-5.2-15,1.6-19,8.3-4.8,20.6-3.4,26.2,3.4,2.7,3.3,5.5,6.8,3.1,11.6s-5.3,9.2-11.5,9.5h-4Z" transform="translate(-86.3 -147.1)"/><path class="cls-8" d="M1184.9,1851.8c1.4-3.3,2.6-6.8,4.3-10,3.7-7,7.3-8,14.6-4.5s11.5,10.8,8.8,20.7c-1.3,4.7-3.8,9.1-5.7,13.7-4,.4-8.3,2.1-11.6-2Z" transform="translate(-86.3 -147.1)"/><path class="cls-8" d="M2900.9,1787.6a37.3,37.3,0,0,1-6,0c-6.6-1.1-8.8-5.2-6.1-11.3,3.5-7.8,15.4-15,24-14.5,5.5.3,8.5,3.3,9.8,9.4s-2,11.9-7.2,13.9-9.5,2.3-14.3,3.4Z" transform="translate(-86.3 -147.1)"/><path class="cls-8" d="M1108.8,1927.7l-11.7,13c-3.8-5.1-7.6-8.8-9.8-13.4s-2.1-7.9-1-11.2c3.7-11,10.8-12.8,20.7-6.1l4,3.9q0,4.9-.1,9.8Z" transform="translate(-86.3 -147.1)"/><path class="cls-8" d="M3442,3097.1c-3.4,2.1-2.6,7.3-8.2,6.3a6.3,6.3,0,0,1-5.4-7.2c.8-6.1,6.1-4.4,9.2-3.9,1.6-4.9,3.1-8.8,4.3-12.9,1.7-5.8,2.5-11.7-1.1-17.2-2-3-2.3-5.6,1.1-7.6s5.3.4,7.3,2.9c8,10.4,7.3,21.8,2.9,32.9C3450.7,3093.5,3445.4,3094.9,3442,3097.1Z" transform="translate(-86.3 -147.1)"/><path class="cls-8" d="M2206.9,1855.6c8.5,5.3,11.5,13.6,13.9,22.1a11.4,11.4,0,0,1-1.1,7.6c-3.7,7.2-11.2,7.5-16.8,1s-3.7-13-3.8-19.9S2203,1858.6,2206.9,1855.6Z" transform="translate(-86.3 -147.1)"/><path class="cls-8" d="M3040.4,2638.3c-1.9,6.6-3.5,13.2-5.9,19.7-1.5,4.2-6.4,4.8-7.2,1.2-2.2-10.6-9-20.7-4.3-32.4,1.6-4,3.7-7.2,8.4-7s6.4,4.5,7.3,8.2.2,6.6.2,9.9Z" transform="translate(-86.3 -147.1)"/><path class="cls-8" d="M2229.7,1873.9c1.8-4.1,3.2-8.4,5.5-12.2s8-5.3,12.1-3.6,6.6,7.6,5.2,11.8-4.8,10.8-10.6,13.7-10.6,1.5-11.1-6.3c-.1-1,0-2,0-3Z" transform="translate(-86.3 -147.1)"/><path class="cls-8" d="M3092.2,2940.2c2.9.1,5.1.3,7.3.3,9.8-.1,16.7,7.5,15.4,17.2-.5,4.1-2.6,7.4-6.5,7.4-2.1,0-5-2.9-6-5.2-1.7-4-3.5-7.4-7.6-9.8S3089.9,2945,3092.2,2940.2Z" transform="translate(-86.3 -147.1)"/><path class="cls-8" d="M1404.9,2940c-17.8,1-33.3-6.3-48.9-13.5-4.9-2.3-5.4-6.1-5.4-10.6,1.5.5,3.5.5,4.6,1.5,12.1,11,27.2,14,42.5,16.3C1401.9,2934.3,1404.8,2935.4,1404.9,2940Z" transform="translate(-86.3 -147.1)"/><path class="cls-8" d="M1189,1899.8c.7,3.2,1.5,6.4,1.9,9.6.7,5.3-1.1,7.7-5.9,8.4-7.2,1-10.7-.6-11.9-5.6-.1-.3,0-.7-.1-1l-1.6-12.2,5.6-1.4,5.9.4,6.1,1.8Z" transform="translate(-86.3 -147.1)"/><path class="cls-8" d="M2263.2,1845.6c5.6-.1,11.3,4.6,11.1,8.9s-4.8,10.9-9.5,10.8-9.8-6.6-9.6-12S2258.1,1845.7,2263.2,1845.6Z" transform="translate(-86.3 -147.1)"/><path class="cls-8" d="M3627.4,3231.6l-9.1,14.3c-7.5-5.5-9-9.8-5.9-14.4S3618.7,3226.9,3627.4,3231.6Z" transform="translate(-86.3 -147.1)"/><path class="cls-8" d="M1092.7,1958.5c-10.3-1.8-12.3-10.6-15.3-18.4-2.4-6-4.3-12.2-6.5-18.3,4.6-.7,6.7,2,7.8,5.9s1.6,6.4,2.5,9.6a27.5,27.5,0,0,0,7.8,13.6C1090.8,1952.8,1091.5,1956,1092.7,1958.5Z" transform="translate(-86.3 -147.1)"/><path class="cls-8" d="M1204.9,1940.2c.2,5.4-2.6,9.5-8,9.3-7.7-.2-14.2,2.3-20.9,5.5-2.6,1.2-5.8,2.1-8.5,1.7-9.3-1.5-12.7-9.4-6.8-16.9s13.3-13.9,24.3-12.3a14.7,14.7,0,0,0,3.9-.5C1197.4,1925.9,1204.6,1931.8,1204.9,1940.2Z" transform="translate(-86.3 -147.1)"/><path class="cls-8" d="M1278.9,2081.7l-2,2-2,2-1.9,2c-2.3,0-4.7.3-6.9-.1-5.2-1-7-3.9-5.4-9.2a22.6,22.6,0,0,0,.4-12.5c-1.2-4.9.2-9.2,5.9-11.6,1.2.5,2.7.9,4.2,1.6,9.1,4.3,10.9,7.3,9.7,17.1A73.9,73.9,0,0,1,1278.9,2081.7Z" transform="translate(-86.3 -147.1)"/><path id="Viet_nam" data-name="Viet nam" class="cls-9" d="M2878.3,2889.2s6.5,2,6.7,4.1-2,1.2-1.8,4.3-1.2,3.2-1.5,6.5-5.4,8.1,3.4,4.3,8.3-7.1,11.4-7.9,3.3,2.4,7.9-2,10.5-5.8,11-9.1,3.2,1.5,6.1-2.5-1-6.5,4.1-6.1,16.4,3.5,27-13.6c0,0,2-2.8,0-9.5s-1.2-6.5-1-11.8a20.3,20.3,0,0,0-3.7-12.8c-2.4-3.7-2.6-2.8-4.5-8.1s-2.4-7.3-6.8-6.9-6.2-5.7-8.3-6.9-2.6,1-6.9-3.9-2.6-4.1-7.1-7.7-1.8.4-5.7-4.9-6.9-4.7-7.4-7.4-.9-6.7,5.4-13.3,20.5-13,22.7-16.7,7.7-5.9-1.2-7.5-10.2-.8-10.2-4.8.1-3-2.1-3.8.1-3.5-2.2-5.7-4.7,1-8.5,0,4.3-2.8-2-3.7-2.6,4.3-9.7,2.8-14.4,1.8-16.2,2.8-1.2,1.6-5.9.4-3.2.8-8.1,2.2-21.1-9.5-6.1,12.4,15.6,13.2,16.2,12.6,7.9-6.1,8.7,3.7,5.1,5.7,5.1,5.7-3.7,3.2-10,0-10.4,15.8,13.2,14a7.5,7.5,0,0,1,2.8,6.5c-.2,4.5,7.7,4.7,10.8,8.1s5.3,10.2,7.5,13.6,7.9,2.2,8.7,5.7,3.7,3.7,3.2,8.7-3.2,5.3-1.6,10.2,5.1,4.9,2.2,8.3-.4,7.5-3.7,11.2-11.6,8.7-18.3,9.3-6.1,4.5-4.6,6.7c0,0-8.9-.8-10.2,2.2s-3.7,3-5.7,2.4S2871.2,2887,2878.3,2889.2Z" transform="translate(-86.3 -147.1)"/><g id="logo"><path class="cls-10" d="M1578.3,1948.2a60.1,60.1,0,0,0-7-4.8,60,60,0,0,0-17.2,89,52.7,52.7,0,0,1,17.2-20.1,52.7,52.7,0,0,1,17.2,20.1,60,60,0,0,0-10.2-84.2Zm10.2,70.2a60.2,60.2,0,0,0-17.2-14.9,60.2,60.2,0,0,0-17.2,14.9,52.1,52.1,0,0,1-4.7-14.8,52.9,52.9,0,0,1-.6-7.7c0-.2,0-.3,0-.5a52.4,52.4,0,0,1,22.5-43.1,52.4,52.4,0,0,1,22.5,43.1c0,.2,0,.3,0,.5a52.9,52.9,0,0,1-.6,7.7A52.1,52.1,0,0,1,1588.5,2018.4Z" transform="translate(-86.3 -147.1)"/><path class="cls-11" d="M1563.8,1980.9l11.3-13.6a11.3,11.3,0,0,0-8.9,20.6l3.9-7.8Z" transform="translate(-86.3 -147.1)"/><path class="cls-12" d="M1576.3,1967.9l-3.9,7.8,6.4-.7-11.3,13.6a11.3,11.3,0,0,0,8.9-20.6Z" transform="translate(-86.3 -147.1)"/><path class="cls-13" d="M692.8,1892a60.1,60.1,0,0,0-7-4.8,60,60,0,0,0-17.2,89,52.7,52.7,0,0,1,17.2-20.1,52.7,52.7,0,0,1,17.2,20.1,60,60,0,0,0-10.2-84.2Zm10.2,70.2a60.2,60.2,0,0,0-17.2-14.9,60.2,60.2,0,0,0-17.2,14.9,52.1,52.1,0,0,1-4.7-14.8,52.9,52.9,0,0,1-.6-7.7c0-.2,0-.3,0-.5a52.4,52.4,0,0,1,22.5-43.1,52.4,52.4,0,0,1,22.5,43.1c0,.2,0,.3,0,.5a52.9,52.9,0,0,1-.6,7.7A52.1,52.1,0,0,1,703,1962.2Z" transform="translate(-86.3 -147.1)"/><path class="cls-14" d="M678.3,1924.8l11.3-13.6a11.3,11.3,0,0,0-8.9,20.6l3.9-7.8Z" transform="translate(-86.3 -147.1)"/><path class="cls-15" d="M690.8,1911.7l-3.9,7.8,6.4-.7L682,1932.4a11.3,11.3,0,0,0,8.9-20.6Z" transform="translate(-86.3 -147.1)"/><path class="cls-16" d="M947.8,2072.4a60.1,60.1,0,0,0-7-4.8,60,60,0,0,0-17.2,89,52.7,52.7,0,0,1,17.2-20.1,52.7,52.7,0,0,1,17.2,20.1,60,60,0,0,0-10.2-84.2Zm10.2,70.2a60.2,60.2,0,0,0-17.2-14.9,60.2,60.2,0,0,0-17.2,14.9,52.1,52.1,0,0,1-4.7-14.8,52.9,52.9,0,0,1-.6-7.7c0-.2,0-.3,0-.5a52.4,52.4,0,0,1,22.5-43.1,52.4,52.4,0,0,1,22.5,43.1c0,.2,0,.3,0,.5a52.9,52.9,0,0,1-.6,7.7A52.1,52.1,0,0,1,958,2142.6Z" transform="translate(-86.3 -147.1)"/><path class="cls-17" d="M933.3,2105.2l11.3-13.6a11.3,11.3,0,0,0-8.9,20.6l3.9-7.8Z" transform="translate(-86.3 -147.1)"/><path class="cls-18" d="M945.8,2092.1l-3.9,7.8,6.4-.7L937,2112.7a11.3,11.3,0,0,0,8.9-20.6Z" transform="translate(-86.3 -147.1)"/><path class="cls-19" d="M1297.7,2250.8a60.1,60.1,0,0,0-7-4.8,60,60,0,0,0-17.2,89,52.7,52.7,0,0,1,17.2-20.1,52.7,52.7,0,0,1,17.2,20.1,60,60,0,0,0-10.2-84.2Zm10.2,70.2a60.2,60.2,0,0,0-17.2-14.9,60.2,60.2,0,0,0-17.2,14.9,52.1,52.1,0,0,1-4.7-14.8,52.9,52.9,0,0,1-.6-7.7c0-.2,0-.3,0-.5a52.4,52.4,0,0,1,22.5-43.1,52.4,52.4,0,0,1,22.5,43.1c0,.2,0,.3,0,.5a52.9,52.9,0,0,1-.6,7.7A52.1,52.1,0,0,1,1307.9,2321Z" transform="translate(-86.3 -147.1)"/><path class="cls-20" d="M1283.1,2283.5l11.3-13.6a11.3,11.3,0,0,0-8.9,20.6l3.9-7.8Z" transform="translate(-86.3 -147.1)"/><path class="cls-21" d="M1295.7,2270.5l-3.9,7.8,6.4-.7-11.3,13.6a11.3,11.3,0,0,0,8.9-20.6Z" transform="translate(-86.3 -147.1)"/><path class="cls-22" d="M1008.3,2343.6a60.1,60.1,0,0,0-7-4.8,60,60,0,0,0-17.2,89,52.7,52.7,0,0,1,17.2-20.1,52.7,52.7,0,0,1,17.2,20.1,60,60,0,0,0-10.2-84.2Zm10.2,70.2a60.2,60.2,0,0,0-17.2-14.9,60.2,60.2,0,0,0-17.2,14.9,52.1,52.1,0,0,1-4.7-14.8,52.9,52.9,0,0,1-.6-7.7c0-.2,0-.3,0-.5a52.4,52.4,0,0,1,22.5-43.1,52.4,52.4,0,0,1,22.5,43.1c0,.2,0,.3,0,.5a52.9,52.9,0,0,1-.6,7.7A52.1,52.1,0,0,1,1018.5,2413.8Z" transform="translate(-86.3 -147.1)"/><path class="cls-23" d="M993.8,2376.4l11.3-13.6a11.3,11.3,0,0,0-8.9,20.6l3.9-7.8Z" transform="translate(-86.3 -147.1)"/><path class="cls-24" d="M1006.3,2363.3l-3.9,7.8,6.4-.7L997.5,2384a11.3,11.3,0,0,0,8.9-20.6Z" transform="translate(-86.3 -147.1)"/><path class="cls-25" d="M877.7,2621.8a60.1,60.1,0,0,0-7-4.8,60,60,0,0,0-17.2,89,52.7,52.7,0,0,1,17.2-20.1,52.7,52.7,0,0,1,17.2,20.1,60,60,0,0,0-10.2-84.2Zm10.2,70.2a60.2,60.2,0,0,0-17.2-14.9,60.2,60.2,0,0,0-17.2,14.9,52.1,52.1,0,0,1-4.7-14.8,52.9,52.9,0,0,1-.6-7.7c0-.2,0-.3,0-.5a52.4,52.4,0,0,1,22.5-43.1,52.4,52.4,0,0,1,22.5,43.1c0,.2,0,.3,0,.5a52.9,52.9,0,0,1-.6,7.7A52.1,52.1,0,0,1,887.9,2691.9Z" transform="translate(-86.3 -147.1)"/><path class="cls-26" d="M863.2,2654.5l11.3-13.6a11.3,11.3,0,0,0-8.9,20.6l3.9-7.8Z" transform="translate(-86.3 -147.1)"/><path class="cls-27" d="M875.7,2641.4l-3.9,7.8,6.4-.7-11.3,13.6a11.3,11.3,0,0,0,8.9-20.6Z" transform="translate(-86.3 -147.1)"/><path class="cls-28" d="M1206.2,2932.9a60.1,60.1,0,0,0-7-4.8,60,60,0,0,0-17.2,89,52.7,52.7,0,0,1,17.2-20.1,52.7,52.7,0,0,1,17.2,20.1,60,60,0,0,0-10.2-84.2Zm10.2,70.2a60.2,60.2,0,0,0-17.2-14.9,60.2,60.2,0,0,0-17.2,14.9,52.1,52.1,0,0,1-4.7-14.8,52.9,52.9,0,0,1-.6-7.7c0-.2,0-.3,0-.5a52.4,52.4,0,0,1,22.5-43.1,52.4,52.4,0,0,1,22.5,43.1c0,.2,0,.3,0,.5a52.9,52.9,0,0,1-.6,7.7A52.1,52.1,0,0,1,1216.4,3003.1Z" transform="translate(-86.3 -147.1)"/><path class="cls-29" d="M1191.7,2965.6,1203,2952a11.3,11.3,0,0,0-8.9,20.6l3.9-7.8Z" transform="translate(-86.3 -147.1)"/><path class="cls-30" d="M1204.2,2952.5l-3.9,7.8,6.4-.7-11.3,13.6a11.3,11.3,0,0,0,8.9-20.6Z" transform="translate(-86.3 -147.1)"/><path class="cls-31" d="M1381.9,3082.4a60.1,60.1,0,0,0-7-4.8,60,60,0,0,0-17.2,89,52.7,52.7,0,0,1,17.2-20.1,52.7,52.7,0,0,1,17.2,20.1,60,60,0,0,0-10.2-84.2Zm10.2,70.2a60.2,60.2,0,0,0-17.2-14.9,60.2,60.2,0,0,0-17.2,14.9,52.1,52.1,0,0,1-4.7-14.8,52.9,52.9,0,0,1-.6-7.7c0-.2,0-.3,0-.5a52.4,52.4,0,0,1,22.5-43.1,52.4,52.4,0,0,1,22.5,43.1c0,.2,0,.3,0,.5a52.9,52.9,0,0,1-.6,7.7A52.1,52.1,0,0,1,1392.1,3152.6Z" transform="translate(-86.3 -147.1)"/><path class="cls-32" d="M1367.4,3115.1l11.3-13.6a11.3,11.3,0,0,0-8.9,20.6l3.9-7.8Z" transform="translate(-86.3 -147.1)"/><path class="cls-33" d="M1379.9,3102l-3.9,7.8,6.4-.7-11.3,13.6a11.3,11.3,0,0,0,8.9-20.6Z" transform="translate(-86.3 -147.1)"/><path class="cls-34" d="M2075.7,3141.9a60.1,60.1,0,0,0-7-4.8,60,60,0,0,0-17.2,89,52.7,52.7,0,0,1,17.2-20.1,52.7,52.7,0,0,1,17.2,20.1,60,60,0,0,0-10.2-84.2Zm10.2,70.2a60.2,60.2,0,0,0-17.2-14.9,60.2,60.2,0,0,0-17.2,14.9,52.1,52.1,0,0,1-4.7-14.8,52.9,52.9,0,0,1-.6-7.7c0-.2,0-.3,0-.5a52.4,52.4,0,0,1,22.5-43.1,52.4,52.4,0,0,1,22.5,43.1c0,.2,0,.3,0,.5a52.9,52.9,0,0,1-.6,7.7A52.1,52.1,0,0,1,2085.9,3212.1Z" transform="translate(-86.3 -147.1)"/><path class="cls-35" d="M2061.2,3174.6l11.3-13.6a11.3,11.3,0,0,0-8.9,20.6l3.9-7.8Z" transform="translate(-86.3 -147.1)"/><path class="cls-36" d="M2073.7,3161.5l-3.9,7.8,6.4-.7-11.3,13.6a11.3,11.3,0,0,0,8.9-20.6Z" transform="translate(-86.3 -147.1)"/><path class="cls-37" d="M2151.6,2808a60.1,60.1,0,0,0-7-4.8,60,60,0,0,0-17.2,89,52.7,52.7,0,0,1,17.2-20.1,52.7,52.7,0,0,1,17.2,20.1,60,60,0,0,0-10.2-84.2Zm10.2,70.2a60.2,60.2,0,0,0-17.2-14.9,60.2,60.2,0,0,0-17.2,14.9,52.1,52.1,0,0,1-4.7-14.8,52.9,52.9,0,0,1-.6-7.7c0-.2,0-.3,0-.5a52.4,52.4,0,0,1,22.5-43.1,52.4,52.4,0,0,1,22.5,43.1c0,.2,0,.3,0,.5a52.9,52.9,0,0,1-.6,7.7A52.1,52.1,0,0,1,2161.8,2878.2Z" transform="translate(-86.3 -147.1)"/><path class="cls-38" d="M2137.1,2840.8l11.3-13.6a11.3,11.3,0,0,0-8.9,20.6l3.9-7.8Z" transform="translate(-86.3 -147.1)"/><path class="cls-39" d="M2149.6,2827.7l-3.9,7.8,6.4-.7-11.3,13.6a11.3,11.3,0,0,0,8.9-20.6Z" transform="translate(-86.3 -147.1)"/><path class="cls-40" d="M1868.5,2678.9a60.1,60.1,0,0,0-7-4.8,60,60,0,0,0-17.2,89,52.7,52.7,0,0,1,17.2-20.1,52.7,52.7,0,0,1,17.2,20.1,60,60,0,0,0-10.2-84.2Zm10.2,70.2a60.2,60.2,0,0,0-17.2-14.9,60.2,60.2,0,0,0-17.2,14.9,52.1,52.1,0,0,1-4.7-14.8,52.9,52.9,0,0,1-.6-7.7c0-.2,0-.3,0-.5a52.4,52.4,0,0,1,22.5-43.1,52.4,52.4,0,0,1,22.5,43.1c0,.2,0,.3,0,.5a52.9,52.9,0,0,1-.6,7.7A52.1,52.1,0,0,1,1878.7,2749.1Z" transform="translate(-86.3 -147.1)"/><path class="cls-41" d="M1854,2711.7l11.3-13.6a11.3,11.3,0,0,0-8.9,20.6l3.9-7.8Z" transform="translate(-86.3 -147.1)"/><path class="cls-42" d="M1866.5,2698.6l-3.9,7.8,6.4-.7-11.3,13.6a11.3,11.3,0,0,0,8.9-20.6Z" transform="translate(-86.3 -147.1)"/><path class="cls-43" d="M2437.7,2509.6a60.1,60.1,0,0,0-7-4.8,60,60,0,0,0-17.2,89,52.7,52.7,0,0,1,17.2-20.1,52.7,52.7,0,0,1,17.2,20.1,60,60,0,0,0-10.2-84.2Zm10.2,70.2a60.2,60.2,0,0,0-17.2-14.9,60.2,60.2,0,0,0-17.2,14.9,52.1,52.1,0,0,1-4.7-14.8,52.9,52.9,0,0,1-.6-7.7c0-.2,0-.3,0-.5a52.4,52.4,0,0,1,22.5-43.1,52.4,52.4,0,0,1,22.5,43.1c0,.2,0,.3,0,.5a52.9,52.9,0,0,1-.6,7.7A52.1,52.1,0,0,1,2447.9,2579.8Z" transform="translate(-86.3 -147.1)"/><path class="cls-44" d="M2423.2,2542.3l11.3-13.6a11.3,11.3,0,0,0-8.9,20.6l3.9-7.8Z" transform="translate(-86.3 -147.1)"/><path class="cls-45" d="M2435.7,2529.3l-3.9,7.8,6.4-.7-11.3,13.6a11.3,11.3,0,0,0,8.9-20.6Z" transform="translate(-86.3 -147.1)"/><path class="cls-46" d="M2012,2322.9a60.1,60.1,0,0,0-7-4.8,60,60,0,0,0-17.2,89,52.7,52.7,0,0,1,17.2-20.1,52.7,52.7,0,0,1,17.2,20.1,60,60,0,0,0-10.2-84.2Zm10.2,70.2a60.2,60.2,0,0,0-17.2-14.9,60.2,60.2,0,0,0-17.2,14.9,52.1,52.1,0,0,1-4.7-14.8,52.9,52.9,0,0,1-.6-7.7c0-.2,0-.3,0-.5a52.4,52.4,0,0,1,22.5-43.1,52.4,52.4,0,0,1,22.5,43.1c0,.2,0,.3,0,.5a52.9,52.9,0,0,1-.6,7.7A52.1,52.1,0,0,1,2022.2,2393.1Z" transform="translate(-86.3 -147.1)"/><path class="cls-47" d="M1997.5,2355.7l11.3-13.6a11.3,11.3,0,0,0-8.9,20.6l3.9-7.8Z" transform="translate(-86.3 -147.1)"/><path class="cls-48" d="M2010,2342.6l-3.9,7.8,6.4-.7-11.3,13.6a11.3,11.3,0,0,0,8.9-20.6Z" transform="translate(-86.3 -147.1)"/><path class="cls-49" d="M2607.1,1948.2a60.1,60.1,0,0,0-7-4.8,60,60,0,0,0-17.2,89,52.7,52.7,0,0,1,17.2-20.1,52.7,52.7,0,0,1,17.2,20.1,60,60,0,0,0-10.2-84.2Zm10.2,70.2a60.2,60.2,0,0,0-17.2-14.9,60.2,60.2,0,0,0-17.2,14.9,52.1,52.1,0,0,1-4.7-14.8,52.9,52.9,0,0,1-.6-7.7c0-.2,0-.3,0-.5a52.4,52.4,0,0,1,22.5-43.1,52.4,52.4,0,0,1,22.5,43.1c0,.2,0,.3,0,.5a52.9,52.9,0,0,1-.6,7.7A52.1,52.1,0,0,1,2617.3,2018.4Z" transform="translate(-86.3 -147.1)"/><path class="cls-50" d="M2592.6,1980.9l11.3-13.6a11.3,11.3,0,0,0-8.9,20.6l3.9-7.8Z" transform="translate(-86.3 -147.1)"/><path class="cls-51" d="M2605.1,1967.9l-3.9,7.8,6.4-.7-11.3,13.6a11.3,11.3,0,0,0,8.9-20.6Z" transform="translate(-86.3 -147.1)"/><path class="cls-52" d="M3198.3,1817.6a60.1,60.1,0,0,0-7-4.8,60,60,0,0,0-17.2,89,52.7,52.7,0,0,1,17.2-20.1,52.7,52.7,0,0,1,17.2,20.1,60,60,0,0,0-10.2-84.2Zm10.2,70.2a60.2,60.2,0,0,0-17.2-14.9,60.2,60.2,0,0,0-17.2,14.9,52.1,52.1,0,0,1-4.7-14.8,52.9,52.9,0,0,1-.6-7.7c0-.2,0-.3,0-.5a52.4,52.4,0,0,1,22.5-43.1,52.4,52.4,0,0,1,22.5,43.1c0,.2,0,.3,0,.5a52.9,52.9,0,0,1-.6,7.7A52.1,52.1,0,0,1,3208.5,1887.8Z" transform="translate(-86.3 -147.1)"/><path class="cls-53" d="M3183.7,1850.4l11.3-13.6a11.3,11.3,0,0,0-8.9,20.6l3.9-7.8Z" transform="translate(-86.3 -147.1)"/><path class="cls-54" d="M3196.3,1837.3l-3.9,7.8,6.4-.7-11.3,13.6a11.3,11.3,0,0,0,8.9-20.6Z" transform="translate(-86.3 -147.1)"/><path class="cls-55" d="M2993.9,2236.5a60.1,60.1,0,0,0-7-4.8,60,60,0,0,0-17.2,89,52.7,52.7,0,0,1,17.2-20.1,52.7,52.7,0,0,1,17.2,20.1,60,60,0,0,0-10.2-84.2Zm10.2,70.2a60.2,60.2,0,0,0-17.2-14.9,60.2,60.2,0,0,0-17.2,14.9,52.1,52.1,0,0,1-4.7-14.8,52.9,52.9,0,0,1-.6-7.7c0-.2,0-.3,0-.5a52.4,52.4,0,0,1,22.5-43.1,52.4,52.4,0,0,1,22.5,43.1c0,.2,0,.3,0,.5a52.9,52.9,0,0,1-.6,7.7A52.1,52.1,0,0,1,3004.1,2306.7Z" transform="translate(-86.3 -147.1)"/><path class="cls-56" d="M2979.4,2269.2l11.3-13.6a11.3,11.3,0,0,0-8.9,20.6l3.9-7.8Z" transform="translate(-86.3 -147.1)"/><path class="cls-57" d="M2991.9,2256.2l-3.9,7.8,6.4-.7-11.3,13.6a11.3,11.3,0,0,0,8.9-20.6Z" transform="translate(-86.3 -147.1)"/><path class="cls-58" d="M2667.1,2242.6a60.1,60.1,0,0,0-7-4.8,60,60,0,0,0-17.2,89,52.7,52.7,0,0,1,17.2-20.1,52.7,52.7,0,0,1,17.2,20.1,60,60,0,0,0-10.2-84.2Zm10.2,70.2a60.2,60.2,0,0,0-17.2-14.9,60.2,60.2,0,0,0-17.2,14.9,52.1,52.1,0,0,1-4.7-14.8,52.9,52.9,0,0,1-.6-7.7c0-.2,0-.3,0-.5a52.4,52.4,0,0,1,22.5-43.1,52.4,52.4,0,0,1,22.5,43.1c0,.2,0,.3,0,.5a52.9,52.9,0,0,1-.6,7.7A52.1,52.1,0,0,1,2677.3,2312.8Z" transform="translate(-86.3 -147.1)"/><path class="cls-59" d="M2652.6,2275.4l11.3-13.6a11.3,11.3,0,0,0-8.9,20.6l3.9-7.8Z" transform="translate(-86.3 -147.1)"/><path class="cls-60" d="M2665.1,2262.3l-3.9,7.8,6.4-.7-11.3,13.6a11.3,11.3,0,0,0,8.9-20.6Z" transform="translate(-86.3 -147.1)"/><path class="cls-61" d="M3213.3,2923.5a60.1,60.1,0,0,0-7-4.8,60,60,0,0,0-17.2,89,52.7,52.7,0,0,1,17.2-20.1,52.7,52.7,0,0,1,17.2,20.1,60,60,0,0,0-10.2-84.2Zm10.2,70.2a60.2,60.2,0,0,0-17.2-14.9,60.2,60.2,0,0,0-17.2,14.9,52.1,52.1,0,0,1-4.7-14.8,52.9,52.9,0,0,1-.6-7.7c0-.2,0-.3,0-.5a52.4,52.4,0,0,1,22.5-43.1,52.4,52.4,0,0,1,22.5,43.1c0,.2,0,.3,0,.5a52.9,52.9,0,0,1-.6,7.7A52.1,52.1,0,0,1,3223.5,2993.6Z" transform="translate(-86.3 -147.1)"/><path class="cls-62" d="M3198.8,2956.2l11.3-13.6a11.3,11.3,0,0,0-8.9,20.6l3.9-7.8Z" transform="translate(-86.3 -147.1)"/><path class="cls-63" d="M3211.3,2943.1l-3.9,7.8,6.4-.7-11.3,13.6a11.3,11.3,0,0,0,8.9-20.6Z" transform="translate(-86.3 -147.1)"/><path class="cls-64" d="M3202.1,3267.7a60.1,60.1,0,0,0-7-4.8,60,60,0,0,0-17.2,89,52.7,52.7,0,0,1,17.2-20.1,52.7,52.7,0,0,1,17.2,20.1,60,60,0,0,0-10.2-84.2Zm10.2,70.2a60.2,60.2,0,0,0-17.2-14.9,60.2,60.2,0,0,0-17.2,14.9,52.1,52.1,0,0,1-4.7-14.8,52.9,52.9,0,0,1-.6-7.7c0-.2,0-.3,0-.5a52.4,52.4,0,0,1,22.5-43.1,52.4,52.4,0,0,1,22.5,43.1c0,.2,0,.3,0,.5a52.9,52.9,0,0,1-.6,7.7A52.1,52.1,0,0,1,3212.3,3337.9Z" transform="translate(-86.3 -147.1)"/><path class="cls-65" d="M3187.6,3300.4l11.3-13.6a11.3,11.3,0,0,0-8.9,20.6l3.9-7.8Z" transform="translate(-86.3 -147.1)"/><path class="cls-66" d="M3200.1,3287.4l-3.9,7.8,6.4-.7-11.3,13.6a11.3,11.3,0,0,0,8.9-20.6Z" transform="translate(-86.3 -147.1)"/><path class="cls-67" d="M1236.1,3334.4a60.1,60.1,0,0,0-7-4.8,60,60,0,0,0-17.2,89,52.7,52.7,0,0,1,17.2-20.1,52.7,52.7,0,0,1,17.2,20.1,60,60,0,0,0-10.2-84.2Zm10.2,70.2a60.2,60.2,0,0,0-17.2-14.9,60.2,60.2,0,0,0-17.2,14.9,52.1,52.1,0,0,1-4.7-14.8,52.9,52.9,0,0,1-.6-7.7c0-.2,0-.3,0-.5a52.4,52.4,0,0,1,22.5-43.1,52.4,52.4,0,0,1,22.5,43.1c0,.2,0,.3,0,.5a52.9,52.9,0,0,1-.6,7.7A52.1,52.1,0,0,1,1246.3,3404.6Z" transform="translate(-86.3 -147.1)"/><path class="cls-68" d="M1221.6,3367.1l11.3-13.6a11.3,11.3,0,0,0-8.9,20.6l3.9-7.8Z" transform="translate(-86.3 -147.1)"/><path class="cls-69" d="M1234.2,3354.1l-3.9,7.8,6.4-.7-11.3,13.6a11.3,11.3,0,0,0,8.9-20.6Z" transform="translate(-86.3 -147.1)"/><path class="cls-70" d="M2886.8,2850.7l-2.2-1.5-2.2,1.5a18.5,18.5,0,0,0-7.1,14.6,18.8,18.8,0,0,0,.1,2.3,18.5,18.5,0,0,0,3.8,9.1,5.6,5.6,0,0,1,10.7,0,18.6,18.6,0,0,0-3.2-26.1Zm3.2,21.7a18.7,18.7,0,0,0-3.2-3.2l-2.2-1.5-2.2,1.5a18.7,18.7,0,0,0-3.2,3.2,16.1,16.1,0,0,1-1.4-4.6,16.4,16.4,0,0,1-.2-2.4h0a8.5,8.5,0,1,1,13.9,0h0a16.4,16.4,0,0,1-.2,2.4A16.1,16.1,0,0,1,2890,2872.5Z" transform="translate(-86.3 -147.1)"/><path class="cls-71" d="M2882.3,2860.9l3.5-4.2-1.2-.2a3.5,3.5,0,0,0-1.6,6.6l1.2-2.4Z" transform="translate(-86.3 -147.1)"/><path class="cls-72" d="M2886.2,2856.8l-1.2,2.4,2-.2-3.5,4.2,1.2.2a3.5,3.5,0,0,0,1.6-6.6Z" transform="translate(-86.3 -147.1)"/><path class="cls-73" d="M2920.8,2760.9l-2.2-1.5-2.2,1.5a18.5,18.5,0,0,0-7.1,14.6,18.8,18.8,0,0,0,.1,2.3,18.5,18.5,0,0,0,3.8,9.1,5.6,5.6,0,0,1,10.7,0,18.6,18.6,0,0,0-3.2-26.1Zm3.2,21.7a18.7,18.7,0,0,0-3.2-3.2l-2.2-1.5-2.2,1.5a18.7,18.7,0,0,0-3.2,3.2,16.1,16.1,0,0,1-1.4-4.6,16.4,16.4,0,0,1-.2-2.4h0a8.5,8.5,0,1,1,13.9,0h0a16.4,16.4,0,0,1-.2,2.4A16.1,16.1,0,0,1,2923.9,2782.6Z" transform="translate(-86.3 -147.1)"/><path class="cls-74" d="M2916.3,2771l3.5-4.2-1.2-.2a3.5,3.5,0,0,0-1.6,6.6l1.2-2.4Z" transform="translate(-86.3 -147.1)"/><path class="cls-75" d="M2920.1,2767l-1.2,2.4,2-.2-3.5,4.2,1.2.2a3.5,3.5,0,0,0,1.6-6.6Z" transform="translate(-86.3 -147.1)"/></g><polygon class="cls-76" points="2812.4 2597.8 2815.2 2606.5 2824.4 2606.5 2817 2611.9 2819.8 2620.6 2812.4 2615.3 2805 2620.6 2807.8 2611.9 2800.4 2606.5 2809.6 2606.5 2812.4 2597.8"/><path class="cls-77" d="M2910.3,2884v0Z" transform="translate(-86.3 -147.1)"/><path class="cls-77" d="M2914.3,2874.8c4.8-5.4,4.3-8.9,4.3-8.9a8.3,8.3,0,0,0-16.5-.2.6.6,0,0,0,0,.2,8.3,8.3,0,0,0,.3,2.3c.3,1.5,1,3,3.7,6.9s4,8,4.2,8.9C2910.2,2883,2910.3,2879.3,2914.3,2874.8Z" transform="translate(-86.3 -147.1)"/><circle class="cls-78" cx="2824.1" cy="2718.8" r="2.9"/></g><g id="planet"><circle class="cls-79" cx="3627.4" cy="333" r="113.6" transform="translate(1110 2898.5) rotate(-53.4)"/><circle class="cls-80" cx="452.4" cy="419.9" r="119.7" transform="translate(-240.7 385.4) rotate(-53.4)"/><circle class="cls-81" cx="3091.1" cy="995.6" r="209.5" transform="translate(1488.4 3720.2) rotate(-80)"/><circle class="cls-82" cx="1208.1" cy="140.7" r="66.6"/><g id="planet-2" data-name="planet"><circle class="cls-83" cx="790.7" cy="995.6" r="165.4" transform="translate(-435.5 1411.6) rotate(-77.8)"/><path class="cls-84" d="M954.4,1014.1a71.1,71.1,0,0,1-2,10.4c94.7,52.5,154.4,98.2,146.3,116.1-11.8,26-162.7-17.1-337.2-96.1S455.2,880.4,467,854.4c9.3-20.5,105.6,2.1,231.6,51.4,2-2.7,3.9-5.5,5.7-8.3C557.2,842,441.5,822.1,427.1,854,409.2,893.5,553.3,997.3,749,1086s368.8,128.5,386.7,89C1148.8,1145.8,1073.6,1081.5,954.4,1014.1Z" transform="translate(-86.3 -147.1)"/></g><g id="planet-3" data-name="planet"><circle class="cls-85" cx="2545" cy="193.6" r="42.5" transform="translate(410.4 1569.2) rotate(-41)"/><path class="cls-86" d="M2574.1,162.8a18.3,18.3,0,0,1,1.8,2c25.4-11.4,44-16.6,46.5-12.2,3.5,6.4-28.6,30.9-71.8,54.6s-81,37.7-84.6,31.3,16.7-21.4,46.3-39.7c-.3-.8-.5-1.7-.8-2.5-34.1,21.7-56.1,42.4-51.7,50.3,5.4,9.8,49-3.9,97.4-30.5s83.3-56.1,77.9-65.8C2631.2,143.1,2606.3,148.6,2574.1,162.8Z" transform="translate(-86.3 -147.1)"/></g></g></svg>